ISO-10303-21;
HEADER;
/* Generated by software containing ST-Developer
 * from STEP Tools, Inc. (www.steptools.com) 
 */
/* OPTION: using custom renumber hook */

FILE_DESCRIPTION(
/* description */ ('STEP AP242 Edition 2',
'CAx-IF Rec.Pracs.---Representation and Presentation of Product Manufa
cturing Information (PMI)---4.0---2014-10-13',
'CAx-IF Rec.Pracs.---3D Tessellated Geometry---0.4---2014-09-14','2;1',
'CAx-IF Rec.Pracs.---User Defined Attributes---1.5---2016-08-15'),
/* implementation_level */ '2;1');

FILE_NAME(
/* name */ 'Part Studio 1 - Bottom',
/* time_stamp */ '2026-08-15T16:05:37Z',
/* author */ (''),
/* organization */ (''),
/* preprocessor_version */ 'ST-DEVELOPER v20',
/* originating_system */ 'ONSHAPE BY PTC INC, 1.219',
/* authorisation */ '  ');

FILE_SCHEMA (('AP242_MANAGED_MODEL_BASED_3D_ENGINEERING_MIM_LF { 1 0 10303 442 3 1 4 }'));
ENDSEC;

DATA;
#10=SHAPE_REPRESENTATION_RELATIONSHIP('','',#759,#11);
#11=ADVANCED_BREP_SHAPE_REPRESENTATION('',(#757),#1329);
#12=CONICAL_SURFACE('',#855,0.0025,0.785398163397448);
#13=CONICAL_SURFACE('',#856,0.0015,0.785398163397448);
#14=CONICAL_SURFACE('',#857,0.0025,0.785398163397448);
#15=CONICAL_SURFACE('',#858,0.0015,0.785398163397448);
#16=B_SPLINE_CURVE_WITH_KNOTS('',3,(#1267,#1268,#1269,#1270,#1271),
 .UNSPECIFIED.,.F.,.F.,(4,1,4),(0.,0.00176981524485186,0.00353963048970371),
 .UNSPECIFIED.);
#17=B_SPLINE_CURVE_WITH_KNOTS('',3,(#1277,#1278,#1279,#1280,#1281),
 .UNSPECIFIED.,.F.,.F.,(4,1,4),(0.,0.00176981524485188,0.00353963048970376),
 .UNSPECIFIED.);
#18=B_SPLINE_CURVE_WITH_KNOTS('',3,(#1286,#1287,#1288,#1289,#1290),
 .UNSPECIFIED.,.F.,.F.,(4,1,4),(0.,0.00176981524485188,0.00353963048970376),
 .UNSPECIFIED.);
#19=B_SPLINE_CURVE_WITH_KNOTS('',3,(#1295,#1296,#1297,#1298,#1299),
 .UNSPECIFIED.,.F.,.F.,(4,1,4),(0.,0.00176981524485188,0.00353963048970376),
 .UNSPECIFIED.);
#20=CYLINDRICAL_SURFACE('',#787,0.002999999252925);
#21=CYLINDRICAL_SURFACE('',#790,0.00299999925292501);
#22=CYLINDRICAL_SURFACE('',#793,0.00299999925292499);
#23=CYLINDRICAL_SURFACE('',#796,0.00299999925292501);
#24=CYLINDRICAL_SURFACE('',#806,0.0016);
#25=CYLINDRICAL_SURFACE('',#809,0.00345);
#26=CYLINDRICAL_SURFACE('',#813,0.0016);
#27=CYLINDRICAL_SURFACE('',#816,0.00345);
#28=CYLINDRICAL_SURFACE('',#820,0.0016);
#29=CYLINDRICAL_SURFACE('',#823,0.00345);
#30=CYLINDRICAL_SURFACE('',#827,0.0016);
#31=CYLINDRICAL_SURFACE('',#830,0.00345);
#32=CYLINDRICAL_SURFACE('',#834,0.006999999252925);
#33=CYLINDRICAL_SURFACE('',#836,0.006999999252925);
#34=CYLINDRICAL_SURFACE('',#838,0.006999999252925);
#35=CYLINDRICAL_SURFACE('',#840,0.00699999925292501);
#36=CYLINDRICAL_SURFACE('',#845,0.00375);
#37=CYLINDRICAL_SURFACE('',#846,0.00375);
#38=CYLINDRICAL_SURFACE('',#847,0.0015);
#39=CYLINDRICAL_SURFACE('',#849,0.0015);
#40=CYLINDRICAL_SURFACE('',#851,0.0015);
#41=CYLINDRICAL_SURFACE('',#853,0.0015);
#42=LINE('',#1103,#82);
#43=LINE('',#1106,#83);
#44=LINE('',#1110,#84);
#45=LINE('',#1114,#85);
#46=LINE('',#1118,#86);
#47=LINE('',#1122,#87);
#48=LINE('',#1124,#88);
#49=LINE('',#1126,#89);
#50=LINE('',#1130,#90);
#51=LINE('',#1134,#91);
#52=LINE('',#1138,#92);
#53=LINE('',#1142,#93);
#54=LINE('',#1155,#94);
#55=LINE('',#1163,#95);
#56=LINE('',#1171,#96);
#57=LINE('',#1179,#97);
#58=LINE('',#1181,#98);
#59=LINE('',#1183,#99);
#60=LINE('',#1187,#100);
#61=LINE('',#1189,#101);
#62=LINE('',#1191,#102);
#63=LINE('',#1195,#103);
#64=LINE('',#1197,#104);
#65=LINE('',#1199,#105);
#66=LINE('',#1203,#106);
#67=LINE('',#1205,#107);
#68=LINE('',#1207,#108);
#69=LINE('',#1213,#109);
#70=LINE('',#1216,#110);
#71=LINE('',#1272,#111);
#72=LINE('',#1273,#112);
#73=LINE('',#1275,#113);
#74=LINE('',#1282,#114);
#75=LINE('',#1284,#115);
#76=LINE('',#1291,#116);
#77=LINE('',#1293,#117);
#78=LINE('',#1300,#118);
#79=LINE('',#1306,#119);
#80=LINE('',#1308,#120);
#81=LINE('',#1309,#121);
#82=VECTOR('',#867,1.);
#83=VECTOR('',#868,1.);
#84=VECTOR('',#871,1.);
#85=VECTOR('',#874,1.);
#86=VECTOR('',#877,1.);
#87=VECTOR('',#880,1.);
#88=VECTOR('',#881,1.);
#89=VECTOR('',#882,1.);
#90=VECTOR('',#885,1.);
#91=VECTOR('',#888,1.);
#92=VECTOR('',#891,1.);
#93=VECTOR('',#894,1.);
#94=VECTOR('',#907,1.);
#95=VECTOR('',#914,1.);
#96=VECTOR('',#921,1.);
#97=VECTOR('',#928,1.);
#98=VECTOR('',#931,1.);
#99=VECTOR('',#932,1.);
#100=VECTOR('',#937,1.);
#101=VECTOR('',#938,1.);
#102=VECTOR('',#941,1.);
#103=VECTOR('',#946,1.);
#104=VECTOR('',#947,1.);
#105=VECTOR('',#950,1.);
#106=VECTOR('',#955,1.);
#107=VECTOR('',#956,1.);
#108=VECTOR('',#959,1.);
#109=VECTOR('',#966,1.);
#110=VECTOR('',#969,1.);
#111=VECTOR('',#1038,1.);
#112=VECTOR('',#1039,1.);
#113=VECTOR('',#1042,1.);
#114=VECTOR('',#1045,1.);
#115=VECTOR('',#1048,1.);
#116=VECTOR('',#1051,1.);
#117=VECTOR('',#1054,1.);
#118=VECTOR('',#1057,1.);
#119=VECTOR('',#1064,1.);
#120=VECTOR('',#1067,1.);
#121=VECTOR('',#1068,1.);
#122=ORIENTED_EDGE('',*,*,#314,.F.);
#123=ORIENTED_EDGE('',*,*,#315,.T.);
#124=ORIENTED_EDGE('',*,*,#316,.F.);
#125=ORIENTED_EDGE('',*,*,#317,.T.);
#126=ORIENTED_EDGE('',*,*,#318,.T.);
#127=ORIENTED_EDGE('',*,*,#319,.T.);
#128=ORIENTED_EDGE('',*,*,#320,.T.);
#129=ORIENTED_EDGE('',*,*,#321,.T.);
#130=ORIENTED_EDGE('',*,*,#322,.T.);
#131=ORIENTED_EDGE('',*,*,#323,.T.);
#132=ORIENTED_EDGE('',*,*,#324,.T.);
#133=ORIENTED_EDGE('',*,*,#325,.T.);
#134=ORIENTED_EDGE('',*,*,#326,.F.);
#135=ORIENTED_EDGE('',*,*,#327,.F.);
#136=ORIENTED_EDGE('',*,*,#328,.F.);
#137=ORIENTED_EDGE('',*,*,#329,.F.);
#138=ORIENTED_EDGE('',*,*,#330,.F.);
#139=ORIENTED_EDGE('',*,*,#331,.F.);
#140=ORIENTED_EDGE('',*,*,#332,.F.);
#141=ORIENTED_EDGE('',*,*,#333,.F.);
#142=ORIENTED_EDGE('',*,*,#334,.F.);
#143=ORIENTED_EDGE('',*,*,#335,.F.);
#144=ORIENTED_EDGE('',*,*,#336,.T.);
#145=ORIENTED_EDGE('',*,*,#337,.F.);
#146=ORIENTED_EDGE('',*,*,#338,.T.);
#147=ORIENTED_EDGE('',*,*,#339,.T.);
#148=ORIENTED_EDGE('',*,*,#340,.T.);
#149=ORIENTED_EDGE('',*,*,#341,.T.);
#150=ORIENTED_EDGE('',*,*,#342,.T.);
#151=ORIENTED_EDGE('',*,*,#343,.T.);
#152=ORIENTED_EDGE('',*,*,#344,.T.);
#153=ORIENTED_EDGE('',*,*,#345,.T.);
#154=ORIENTED_EDGE('',*,*,#346,.T.);
#155=ORIENTED_EDGE('',*,*,#347,.T.);
#156=ORIENTED_EDGE('',*,*,#348,.T.);
#157=ORIENTED_EDGE('',*,*,#349,.T.);
#158=ORIENTED_EDGE('',*,*,#350,.T.);
#159=ORIENTED_EDGE('',*,*,#351,.T.);
#160=ORIENTED_EDGE('',*,*,#352,.T.);
#161=ORIENTED_EDGE('',*,*,#353,.T.);
#162=ORIENTED_EDGE('',*,*,#354,.T.);
#163=ORIENTED_EDGE('',*,*,#324,.F.);
#164=ORIENTED_EDGE('',*,*,#355,.F.);
#165=ORIENTED_EDGE('',*,*,#356,.T.);
#166=ORIENTED_EDGE('',*,*,#355,.T.);
#167=ORIENTED_EDGE('',*,*,#323,.F.);
#168=ORIENTED_EDGE('',*,*,#357,.F.);
#169=ORIENTED_EDGE('',*,*,#358,.T.);
#170=ORIENTED_EDGE('',*,*,#357,.T.);
#171=ORIENTED_EDGE('',*,*,#322,.F.);
#172=ORIENTED_EDGE('',*,*,#359,.F.);
#173=ORIENTED_EDGE('',*,*,#360,.T.);
#174=ORIENTED_EDGE('',*,*,#359,.T.);
#175=ORIENTED_EDGE('',*,*,#321,.F.);
#176=ORIENTED_EDGE('',*,*,#361,.F.);
#177=ORIENTED_EDGE('',*,*,#362,.T.);
#178=ORIENTED_EDGE('',*,*,#361,.T.);
#179=ORIENTED_EDGE('',*,*,#320,.F.);
#180=ORIENTED_EDGE('',*,*,#363,.F.);
#181=ORIENTED_EDGE('',*,*,#364,.T.);
#182=ORIENTED_EDGE('',*,*,#363,.T.);
#183=ORIENTED_EDGE('',*,*,#319,.F.);
#184=ORIENTED_EDGE('',*,*,#365,.F.);
#185=ORIENTED_EDGE('',*,*,#366,.T.);
#186=ORIENTED_EDGE('',*,*,#365,.T.);
#187=ORIENTED_EDGE('',*,*,#318,.F.);
#188=ORIENTED_EDGE('',*,*,#367,.F.);
#189=ORIENTED_EDGE('',*,*,#368,.T.);
#190=ORIENTED_EDGE('',*,*,#317,.F.);
#191=ORIENTED_EDGE('',*,*,#369,.T.);
#192=ORIENTED_EDGE('',*,*,#370,.T.);
#193=ORIENTED_EDGE('',*,*,#371,.T.);
#194=ORIENTED_EDGE('',*,*,#325,.F.);
#195=ORIENTED_EDGE('',*,*,#354,.F.);
#196=ORIENTED_EDGE('',*,*,#372,.T.);
#197=ORIENTED_EDGE('',*,*,#367,.T.);
#198=ORIENTED_EDGE('',*,*,#373,.F.);
#199=ORIENTED_EDGE('',*,*,#374,.F.);
#200=ORIENTED_EDGE('',*,*,#375,.F.);
#201=ORIENTED_EDGE('',*,*,#376,.F.);
#202=ORIENTED_EDGE('',*,*,#356,.F.);
#203=ORIENTED_EDGE('',*,*,#358,.F.);
#204=ORIENTED_EDGE('',*,*,#360,.F.);
#205=ORIENTED_EDGE('',*,*,#362,.F.);
#206=ORIENTED_EDGE('',*,*,#364,.F.);
#207=ORIENTED_EDGE('',*,*,#366,.F.);
#208=ORIENTED_EDGE('',*,*,#368,.F.);
#209=ORIENTED_EDGE('',*,*,#372,.F.);
#210=ORIENTED_EDGE('',*,*,#377,.F.);
#211=ORIENTED_EDGE('',*,*,#378,.T.);
#212=ORIENTED_EDGE('',*,*,#379,.T.);
#213=ORIENTED_EDGE('',*,*,#376,.T.);
#214=ORIENTED_EDGE('',*,*,#377,.T.);
#215=ORIENTED_EDGE('',*,*,#379,.F.);
#216=ORIENTED_EDGE('',*,*,#378,.F.);
#217=ORIENTED_EDGE('',*,*,#380,.F.);
#218=ORIENTED_EDGE('',*,*,#381,.T.);
#219=ORIENTED_EDGE('',*,*,#382,.T.);
#220=ORIENTED_EDGE('',*,*,#375,.T.);
#221=ORIENTED_EDGE('',*,*,#380,.T.);
#222=ORIENTED_EDGE('',*,*,#382,.F.);
#223=ORIENTED_EDGE('',*,*,#381,.F.);
#224=ORIENTED_EDGE('',*,*,#383,.F.);
#225=ORIENTED_EDGE('',*,*,#384,.T.);
#226=ORIENTED_EDGE('',*,*,#385,.T.);
#227=ORIENTED_EDGE('',*,*,#374,.T.);
#228=ORIENTED_EDGE('',*,*,#383,.T.);
#229=ORIENTED_EDGE('',*,*,#385,.F.);
#230=ORIENTED_EDGE('',*,*,#384,.F.);
#231=ORIENTED_EDGE('',*,*,#386,.F.);
#232=ORIENTED_EDGE('',*,*,#387,.T.);
#233=ORIENTED_EDGE('',*,*,#388,.T.);
#234=ORIENTED_EDGE('',*,*,#373,.T.);
#235=ORIENTED_EDGE('',*,*,#386,.T.);
#236=ORIENTED_EDGE('',*,*,#388,.F.);
#237=ORIENTED_EDGE('',*,*,#387,.F.);
#238=ORIENTED_EDGE('',*,*,#344,.F.);
#239=ORIENTED_EDGE('',*,*,#389,.T.);
#240=ORIENTED_EDGE('',*,*,#342,.F.);
#241=ORIENTED_EDGE('',*,*,#390,.T.);
#242=ORIENTED_EDGE('',*,*,#334,.T.);
#243=ORIENTED_EDGE('',*,*,#391,.F.);
#244=ORIENTED_EDGE('',*,*,#391,.T.);
#245=ORIENTED_EDGE('',*,*,#333,.T.);
#246=ORIENTED_EDGE('',*,*,#392,.F.);
#247=ORIENTED_EDGE('',*,*,#345,.F.);
#248=ORIENTED_EDGE('',*,*,#348,.F.);
#249=ORIENTED_EDGE('',*,*,#393,.T.);
#250=ORIENTED_EDGE('',*,*,#346,.F.);
#251=ORIENTED_EDGE('',*,*,#392,.T.);
#252=ORIENTED_EDGE('',*,*,#332,.T.);
#253=ORIENTED_EDGE('',*,*,#394,.F.);
#254=ORIENTED_EDGE('',*,*,#394,.T.);
#255=ORIENTED_EDGE('',*,*,#331,.T.);
#256=ORIENTED_EDGE('',*,*,#395,.F.);
#257=ORIENTED_EDGE('',*,*,#349,.F.);
#258=ORIENTED_EDGE('',*,*,#352,.F.);
#259=ORIENTED_EDGE('',*,*,#396,.T.);
#260=ORIENTED_EDGE('',*,*,#350,.F.);
#261=ORIENTED_EDGE('',*,*,#395,.T.);
#262=ORIENTED_EDGE('',*,*,#330,.T.);
#263=ORIENTED_EDGE('',*,*,#397,.F.);
#264=ORIENTED_EDGE('',*,*,#397,.T.);
#265=ORIENTED_EDGE('',*,*,#329,.T.);
#266=ORIENTED_EDGE('',*,*,#398,.F.);
#267=ORIENTED_EDGE('',*,*,#353,.F.);
#268=ORIENTED_EDGE('',*,*,#340,.F.);
#269=ORIENTED_EDGE('',*,*,#399,.T.);
#270=ORIENTED_EDGE('',*,*,#338,.F.);
#271=ORIENTED_EDGE('',*,*,#398,.T.);
#272=ORIENTED_EDGE('',*,*,#328,.T.);
#273=ORIENTED_EDGE('',*,*,#400,.F.);
#274=ORIENTED_EDGE('',*,*,#401,.F.);
#275=ORIENTED_EDGE('',*,*,#335,.T.);
#276=ORIENTED_EDGE('',*,*,#390,.F.);
#277=ORIENTED_EDGE('',*,*,#341,.F.);
#278=ORIENTED_EDGE('',*,*,#400,.T.);
#279=ORIENTED_EDGE('',*,*,#327,.T.);
#280=ORIENTED_EDGE('',*,*,#402,.F.);
#281=ORIENTED_EDGE('',*,*,#403,.F.);
#282=ORIENTED_EDGE('',*,*,#404,.F.);
#283=ORIENTED_EDGE('',*,*,#403,.T.);
#284=ORIENTED_EDGE('',*,*,#405,.T.);
#285=ORIENTED_EDGE('',*,*,#370,.F.);
#286=ORIENTED_EDGE('',*,*,#316,.T.);
#287=ORIENTED_EDGE('',*,*,#401,.T.);
#288=ORIENTED_EDGE('',*,*,#404,.T.);
#289=ORIENTED_EDGE('',*,*,#369,.F.);
#290=ORIENTED_EDGE('',*,*,#405,.F.);
#291=ORIENTED_EDGE('',*,*,#402,.T.);
#292=ORIENTED_EDGE('',*,*,#326,.T.);
#293=ORIENTED_EDGE('',*,*,#371,.F.);
#294=ORIENTED_EDGE('',*,*,#406,.T.);
#295=ORIENTED_EDGE('',*,*,#315,.F.);
#296=ORIENTED_EDGE('',*,*,#407,.T.);
#297=ORIENTED_EDGE('',*,*,#314,.T.);
#298=ORIENTED_EDGE('',*,*,#408,.T.);
#299=ORIENTED_EDGE('',*,*,#336,.F.);
#300=ORIENTED_EDGE('',*,*,#409,.T.);
#301=ORIENTED_EDGE('',*,*,#337,.T.);
#302=ORIENTED_EDGE('',*,*,#406,.F.);
#303=ORIENTED_EDGE('',*,*,#399,.F.);
#304=ORIENTED_EDGE('',*,*,#339,.F.);
#305=ORIENTED_EDGE('',*,*,#389,.F.);
#306=ORIENTED_EDGE('',*,*,#343,.F.);
#307=ORIENTED_EDGE('',*,*,#409,.F.);
#308=ORIENTED_EDGE('',*,*,#408,.F.);
#309=ORIENTED_EDGE('',*,*,#393,.F.);
#310=ORIENTED_EDGE('',*,*,#347,.F.);
#311=ORIENTED_EDGE('',*,*,#396,.F.);
#312=ORIENTED_EDGE('',*,*,#351,.F.);
#313=ORIENTED_EDGE('',*,*,#407,.F.);
#314=EDGE_CURVE('',#410,#410,#482,.F.);
#315=EDGE_CURVE('',#411,#411,#483,.T.);
#316=EDGE_CURVE('',#412,#413,#42,.F.);
#317=EDGE_CURVE('',#412,#414,#43,.T.);
#318=EDGE_CURVE('',#414,#415,#484,.T.);
#319=EDGE_CURVE('',#415,#416,#44,.T.);
#320=EDGE_CURVE('',#416,#417,#485,.T.);
#321=EDGE_CURVE('',#417,#418,#45,.T.);
#322=EDGE_CURVE('',#418,#419,#486,.T.);
#323=EDGE_CURVE('',#419,#420,#46,.T.);
#324=EDGE_CURVE('',#420,#421,#487,.T.);
#325=EDGE_CURVE('',#421,#422,#47,.T.);
#326=EDGE_CURVE('',#423,#422,#48,.T.);
#327=EDGE_CURVE('',#424,#423,#49,.T.);
#328=EDGE_CURVE('',#425,#424,#488,.T.);
#329=EDGE_CURVE('',#426,#425,#50,.T.);
#330=EDGE_CURVE('',#427,#426,#489,.T.);
#331=EDGE_CURVE('',#428,#427,#51,.T.);
#332=EDGE_CURVE('',#429,#428,#490,.T.);
#333=EDGE_CURVE('',#430,#429,#52,.T.);
#334=EDGE_CURVE('',#431,#430,#491,.T.);
#335=EDGE_CURVE('',#413,#431,#53,.T.);
#336=EDGE_CURVE('',#432,#432,#492,.T.);
#337=EDGE_CURVE('',#433,#433,#493,.F.);
#338=EDGE_CURVE('',#434,#435,#494,.T.);
#339=EDGE_CURVE('',#435,#436,#495,.F.);
#340=EDGE_CURVE('',#436,#437,#496,.T.);
#341=EDGE_CURVE('',#437,#438,#54,.T.);
#342=EDGE_CURVE('',#438,#439,#497,.T.);
#343=EDGE_CURVE('',#439,#440,#498,.F.);
#344=EDGE_CURVE('',#440,#441,#499,.T.);
#345=EDGE_CURVE('',#441,#442,#55,.T.);
#346=EDGE_CURVE('',#442,#443,#500,.T.);
#347=EDGE_CURVE('',#443,#444,#501,.F.);
#348=EDGE_CURVE('',#444,#445,#502,.T.);
#349=EDGE_CURVE('',#445,#446,#56,.T.);
#350=EDGE_CURVE('',#446,#447,#503,.T.);
#351=EDGE_CURVE('',#447,#448,#504,.F.);
#352=EDGE_CURVE('',#448,#449,#505,.T.);
#353=EDGE_CURVE('',#449,#434,#57,.T.);
#354=EDGE_CURVE('',#450,#421,#58,.T.);
#355=EDGE_CURVE('',#451,#420,#59,.T.);
#356=EDGE_CURVE('',#451,#450,#506,.T.);
#357=EDGE_CURVE('',#452,#419,#60,.T.);
#358=EDGE_CURVE('',#452,#451,#61,.T.);
#359=EDGE_CURVE('',#453,#418,#62,.T.);
#360=EDGE_CURVE('',#453,#452,#507,.T.);
#361=EDGE_CURVE('',#454,#417,#63,.T.);
#362=EDGE_CURVE('',#454,#453,#64,.T.);
#363=EDGE_CURVE('',#455,#416,#65,.T.);
#364=EDGE_CURVE('',#455,#454,#508,.T.);
#365=EDGE_CURVE('',#456,#415,#66,.T.);
#366=EDGE_CURVE('',#456,#455,#67,.T.);
#367=EDGE_CURVE('',#457,#414,#68,.T.);
#368=EDGE_CURVE('',#457,#456,#509,.T.);
#369=EDGE_CURVE('',#412,#458,#510,.F.);
#370=EDGE_CURVE('',#458,#459,#69,.T.);
#371=EDGE_CURVE('',#459,#422,#511,.F.);
#372=EDGE_CURVE('',#450,#457,#70,.T.);
#373=EDGE_CURVE('',#460,#460,#512,.F.);
#374=EDGE_CURVE('',#461,#461,#513,.F.);
#375=EDGE_CURVE('',#462,#462,#514,.F.);
#376=EDGE_CURVE('',#463,#463,#515,.F.);
#377=EDGE_CURVE('',#464,#464,#516,.T.);
#378=EDGE_CURVE('',#465,#465,#517,.T.);
#379=EDGE_CURVE('',#466,#466,#518,.T.);
#380=EDGE_CURVE('',#467,#467,#519,.T.);
#381=EDGE_CURVE('',#468,#468,#520,.T.);
#382=EDGE_CURVE('',#469,#469,#521,.T.);
#383=EDGE_CURVE('',#470,#470,#522,.T.);
#384=EDGE_CURVE('',#471,#471,#523,.T.);
#385=EDGE_CURVE('',#472,#472,#524,.T.);
#386=EDGE_CURVE('',#473,#473,#525,.T.);
#387=EDGE_CURVE('',#474,#474,#526,.T.);
#388=EDGE_CURVE('',#475,#475,#527,.T.);
#389=EDGE_CURVE('',#440,#439,#16,.T.);
#390=EDGE_CURVE('',#438,#431,#71,.T.);
#391=EDGE_CURVE('',#441,#430,#72,.T.);
#392=EDGE_CURVE('',#442,#429,#73,.T.);
#393=EDGE_CURVE('',#444,#443,#17,.T.);
#394=EDGE_CURVE('',#445,#428,#74,.T.);
#395=EDGE_CURVE('',#446,#427,#75,.T.);
#396=EDGE_CURVE('',#448,#447,#18,.T.);
#397=EDGE_CURVE('',#449,#426,#76,.T.);
#398=EDGE_CURVE('',#434,#425,#77,.T.);
#399=EDGE_CURVE('',#436,#435,#19,.T.);
#400=EDGE_CURVE('',#437,#424,#78,.T.);
#401=EDGE_CURVE('',#413,#476,#528,.F.);
#402=EDGE_CURVE('',#477,#423,#529,.F.);
#403=EDGE_CURVE('',#476,#477,#79,.T.);
#404=EDGE_CURVE('',#476,#458,#80,.T.);
#405=EDGE_CURVE('',#477,#459,#81,.T.);
#406=EDGE_CURVE('',#478,#478,#530,.T.);
#407=EDGE_CURVE('',#479,#479,#531,.T.);
#408=EDGE_CURVE('',#480,#480,#532,.T.);
#409=EDGE_CURVE('',#481,#481,#533,.T.);
#410=VERTEX_POINT('',#1100);
#411=VERTEX_POINT('',#1102);
#412=VERTEX_POINT('',#1104);
#413=VERTEX_POINT('',#1105);
#414=VERTEX_POINT('',#1107);
#415=VERTEX_POINT('',#1109);
#416=VERTEX_POINT('',#1111);
#417=VERTEX_POINT('',#1113);
#418=VERTEX_POINT('',#1115);
#419=VERTEX_POINT('',#1117);
#420=VERTEX_POINT('',#1119);
#421=VERTEX_POINT('',#1121);
#422=VERTEX_POINT('',#1123);
#423=VERTEX_POINT('',#1125);
#424=VERTEX_POINT('',#1127);
#425=VERTEX_POINT('',#1129);
#426=VERTEX_POINT('',#1131);
#427=VERTEX_POINT('',#1133);
#428=VERTEX_POINT('',#1135);
#429=VERTEX_POINT('',#1137);
#430=VERTEX_POINT('',#1139);
#431=VERTEX_POINT('',#1141);
#432=VERTEX_POINT('',#1144);
#433=VERTEX_POINT('',#1146);
#434=VERTEX_POINT('',#1149);
#435=VERTEX_POINT('',#1150);
#436=VERTEX_POINT('',#1152);
#437=VERTEX_POINT('',#1154);
#438=VERTEX_POINT('',#1156);
#439=VERTEX_POINT('',#1158);
#440=VERTEX_POINT('',#1160);
#441=VERTEX_POINT('',#1162);
#442=VERTEX_POINT('',#1164);
#443=VERTEX_POINT('',#1166);
#444=VERTEX_POINT('',#1168);
#445=VERTEX_POINT('',#1170);
#446=VERTEX_POINT('',#1172);
#447=VERTEX_POINT('',#1174);
#448=VERTEX_POINT('',#1176);
#449=VERTEX_POINT('',#1178);
#450=VERTEX_POINT('',#1182);
#451=VERTEX_POINT('',#1184);
#452=VERTEX_POINT('',#1188);
#453=VERTEX_POINT('',#1192);
#454=VERTEX_POINT('',#1196);
#455=VERTEX_POINT('',#1200);
#456=VERTEX_POINT('',#1204);
#457=VERTEX_POINT('',#1208);
#458=VERTEX_POINT('',#1212);
#459=VERTEX_POINT('',#1214);
#460=VERTEX_POINT('',#1219);
#461=VERTEX_POINT('',#1221);
#462=VERTEX_POINT('',#1223);
#463=VERTEX_POINT('',#1225);
#464=VERTEX_POINT('',#1228);
#465=VERTEX_POINT('',#1230);
#466=VERTEX_POINT('',#1233);
#467=VERTEX_POINT('',#1238);
#468=VERTEX_POINT('',#1240);
#469=VERTEX_POINT('',#1243);
#470=VERTEX_POINT('',#1248);
#471=VERTEX_POINT('',#1250);
#472=VERTEX_POINT('',#1253);
#473=VERTEX_POINT('',#1258);
#474=VERTEX_POINT('',#1260);
#475=VERTEX_POINT('',#1263);
#476=VERTEX_POINT('',#1303);
#477=VERTEX_POINT('',#1305);
#478=VERTEX_POINT('',#1314);
#479=VERTEX_POINT('',#1317);
#480=VERTEX_POINT('',#1320);
#481=VERTEX_POINT('',#1323);
#482=CIRCLE('',#762,0.0015);
#483=CIRCLE('',#763,0.0015);
#484=CIRCLE('',#764,0.00299999925292501);
#485=CIRCLE('',#765,0.00299999925292499);
#486=CIRCLE('',#766,0.00299999925292501);
#487=CIRCLE('',#767,0.002999999252925);
#488=CIRCLE('',#768,0.00699999925292501);
#489=CIRCLE('',#769,0.006999999252925);
#490=CIRCLE('',#770,0.006999999252925);
#491=CIRCLE('',#771,0.006999999252925);
#492=CIRCLE('',#772,0.0015);
#493=CIRCLE('',#773,0.0015);
#494=CIRCLE('',#775,0.00699999925292501);
#495=CIRCLE('',#776,0.0025);
#496=CIRCLE('',#777,0.00699999925292501);
#497=CIRCLE('',#778,0.006999999252925);
#498=CIRCLE('',#779,0.0025);
#499=CIRCLE('',#780,0.006999999252925);
#500=CIRCLE('',#781,0.006999999252925);
#501=CIRCLE('',#782,0.0025);
#502=CIRCLE('',#783,0.006999999252925);
#503=CIRCLE('',#784,0.006999999252925);
#504=CIRCLE('',#785,0.0025);
#505=CIRCLE('',#786,0.006999999252925);
#506=CIRCLE('',#788,0.002999999252925);
#507=CIRCLE('',#791,0.00299999925292501);
#508=CIRCLE('',#794,0.00299999925292499);
#509=CIRCLE('',#797,0.00299999925292501);
#510=CIRCLE('',#799,0.00375);
#511=CIRCLE('',#800,0.00375);
#512=CIRCLE('',#802,0.00345);
#513=CIRCLE('',#803,0.00345);
#514=CIRCLE('',#804,0.00345);
#515=CIRCLE('',#805,0.00345);
#516=CIRCLE('',#807,0.0016);
#517=CIRCLE('',#808,0.0016);
#518=CIRCLE('',#810,0.00345);
#519=CIRCLE('',#814,0.0016);
#520=CIRCLE('',#815,0.0016);
#521=CIRCLE('',#817,0.00345);
#522=CIRCLE('',#821,0.0016);
#523=CIRCLE('',#822,0.0016);
#524=CIRCLE('',#824,0.00345);
#525=CIRCLE('',#828,0.0016);
#526=CIRCLE('',#829,0.0016);
#527=CIRCLE('',#831,0.00345);
#528=CIRCLE('',#842,0.00375);
#529=CIRCLE('',#843,0.00375);
#530=CIRCLE('',#848,0.0015);
#531=CIRCLE('',#850,0.0015);
#532=CIRCLE('',#852,0.0015);
#533=CIRCLE('',#854,0.0015);
#534=EDGE_LOOP('',(#122));
#535=EDGE_LOOP('',(#123));
#536=EDGE_LOOP('',(#124,#125,#126,#127,#128,#129,#130,#131,#132,#133,#134,
#135,#136,#137,#138,#139,#140,#141,#142,#143));
#537=EDGE_LOOP('',(#144));
#538=EDGE_LOOP('',(#145));
#539=EDGE_LOOP('',(#146,#147,#148,#149,#150,#151,#152,#153,#154,#155,#156,
#157,#158,#159,#160,#161));
#540=EDGE_LOOP('',(#162,#163,#164,#165));
#541=EDGE_LOOP('',(#166,#167,#168,#169));
#542=EDGE_LOOP('',(#170,#171,#172,#173));
#543=EDGE_LOOP('',(#174,#175,#176,#177));
#544=EDGE_LOOP('',(#178,#179,#180,#181));
#545=EDGE_LOOP('',(#182,#183,#184,#185));
#546=EDGE_LOOP('',(#186,#187,#188,#189));
#547=EDGE_LOOP('',(#190,#191,#192,#193,#194,#195,#196,#197));
#548=EDGE_LOOP('',(#198));
#549=EDGE_LOOP('',(#199));
#550=EDGE_LOOP('',(#200));
#551=EDGE_LOOP('',(#201));
#552=EDGE_LOOP('',(#202,#203,#204,#205,#206,#207,#208,#209));
#553=EDGE_LOOP('',(#210));
#554=EDGE_LOOP('',(#211));
#555=EDGE_LOOP('',(#212));
#556=EDGE_LOOP('',(#213));
#557=EDGE_LOOP('',(#214));
#558=EDGE_LOOP('',(#215));
#559=EDGE_LOOP('',(#216));
#560=EDGE_LOOP('',(#217));
#561=EDGE_LOOP('',(#218));
#562=EDGE_LOOP('',(#219));
#563=EDGE_LOOP('',(#220));
#564=EDGE_LOOP('',(#221));
#565=EDGE_LOOP('',(#222));
#566=EDGE_LOOP('',(#223));
#567=EDGE_LOOP('',(#224));
#568=EDGE_LOOP('',(#225));
#569=EDGE_LOOP('',(#226));
#570=EDGE_LOOP('',(#227));
#571=EDGE_LOOP('',(#228));
#572=EDGE_LOOP('',(#229));
#573=EDGE_LOOP('',(#230));
#574=EDGE_LOOP('',(#231));
#575=EDGE_LOOP('',(#232));
#576=EDGE_LOOP('',(#233));
#577=EDGE_LOOP('',(#234));
#578=EDGE_LOOP('',(#235));
#579=EDGE_LOOP('',(#236));
#580=EDGE_LOOP('',(#237));
#581=EDGE_LOOP('',(#238,#239,#240,#241,#242,#243));
#582=EDGE_LOOP('',(#244,#245,#246,#247));
#583=EDGE_LOOP('',(#248,#249,#250,#251,#252,#253));
#584=EDGE_LOOP('',(#254,#255,#256,#257));
#585=EDGE_LOOP('',(#258,#259,#260,#261,#262,#263));
#586=EDGE_LOOP('',(#264,#265,#266,#267));
#587=EDGE_LOOP('',(#268,#269,#270,#271,#272,#273));
#588=EDGE_LOOP('',(#274,#275,#276,#277,#278,#279,#280,#281));
#589=EDGE_LOOP('',(#282,#283,#284,#285));
#590=EDGE_LOOP('',(#286,#287,#288,#289));
#591=EDGE_LOOP('',(#290,#291,#292,#293));
#592=EDGE_LOOP('',(#294));
#593=EDGE_LOOP('',(#295));
#594=EDGE_LOOP('',(#296));
#595=EDGE_LOOP('',(#297));
#596=EDGE_LOOP('',(#298));
#597=EDGE_LOOP('',(#299));
#598=EDGE_LOOP('',(#300));
#599=EDGE_LOOP('',(#301));
#600=EDGE_LOOP('',(#302));
#601=EDGE_LOOP('',(#303,#304));
#602=EDGE_LOOP('',(#305,#306));
#603=EDGE_LOOP('',(#307));
#604=EDGE_LOOP('',(#308));
#605=EDGE_LOOP('',(#309,#310));
#606=EDGE_LOOP('',(#311,#312));
#607=EDGE_LOOP('',(#313));
#608=FACE_BOUND('',#534,.T.);
#609=FACE_BOUND('',#535,.T.);
#610=FACE_BOUND('',#536,.T.);
#611=FACE_BOUND('',#537,.T.);
#612=FACE_BOUND('',#538,.T.);
#613=FACE_BOUND('',#539,.T.);
#614=FACE_BOUND('',#540,.T.);
#615=FACE_BOUND('',#541,.T.);
#616=FACE_BOUND('',#542,.T.);
#617=FACE_BOUND('',#543,.T.);
#618=FACE_BOUND('',#544,.T.);
#619=FACE_BOUND('',#545,.T.);
#620=FACE_BOUND('',#546,.T.);
#621=FACE_BOUND('',#547,.T.);
#622=FACE_BOUND('',#548,.T.);
#623=FACE_BOUND('',#549,.T.);
#624=FACE_BOUND('',#550,.T.);
#625=FACE_BOUND('',#551,.T.);
#626=FACE_BOUND('',#552,.T.);
#627=FACE_BOUND('',#553,.T.);
#628=FACE_BOUND('',#554,.T.);
#629=FACE_BOUND('',#555,.T.);
#630=FACE_BOUND('',#556,.T.);
#631=FACE_BOUND('',#557,.T.);
#632=FACE_BOUND('',#558,.T.);
#633=FACE_BOUND('',#559,.T.);
#634=FACE_BOUND('',#560,.T.);
#635=FACE_BOUND('',#561,.T.);
#636=FACE_BOUND('',#562,.T.);
#637=FACE_BOUND('',#563,.T.);
#638=FACE_BOUND('',#564,.T.);
#639=FACE_BOUND('',#565,.T.);
#640=FACE_BOUND('',#566,.T.);
#641=FACE_BOUND('',#567,.T.);
#642=FACE_BOUND('',#568,.T.);
#643=FACE_BOUND('',#569,.T.);
#644=FACE_BOUND('',#570,.T.);
#645=FACE_BOUND('',#571,.T.);
#646=FACE_BOUND('',#572,.T.);
#647=FACE_BOUND('',#573,.T.);
#648=FACE_BOUND('',#574,.T.);
#649=FACE_BOUND('',#575,.T.);
#650=FACE_BOUND('',#576,.T.);
#651=FACE_BOUND('',#577,.T.);
#652=FACE_BOUND('',#578,.T.);
#653=FACE_BOUND('',#579,.T.);
#654=FACE_BOUND('',#580,.T.);
#655=FACE_BOUND('',#581,.T.);
#656=FACE_BOUND('',#582,.T.);
#657=FACE_BOUND('',#583,.T.);
#658=FACE_BOUND('',#584,.T.);
#659=FACE_BOUND('',#585,.T.);
#660=FACE_BOUND('',#586,.T.);
#661=FACE_BOUND('',#587,.T.);
#662=FACE_BOUND('',#588,.T.);
#663=FACE_BOUND('',#589,.T.);
#664=FACE_BOUND('',#590,.T.);
#665=FACE_BOUND('',#591,.T.);
#666=FACE_BOUND('',#592,.T.);
#667=FACE_BOUND('',#593,.T.);
#668=FACE_BOUND('',#594,.T.);
#669=FACE_BOUND('',#595,.T.);
#670=FACE_BOUND('',#596,.T.);
#671=FACE_BOUND('',#597,.T.);
#672=FACE_BOUND('',#598,.T.);
#673=FACE_BOUND('',#599,.T.);
#674=FACE_BOUND('',#600,.T.);
#675=FACE_BOUND('',#601,.T.);
#676=FACE_BOUND('',#602,.T.);
#677=FACE_BOUND('',#603,.T.);
#678=FACE_BOUND('',#604,.T.);
#679=FACE_BOUND('',#605,.T.);
#680=FACE_BOUND('',#606,.T.);
#681=FACE_BOUND('',#607,.T.);
#682=PLANE('',#761);
#683=PLANE('',#774);
#684=PLANE('',#789);
#685=PLANE('',#792);
#686=PLANE('',#795);
#687=PLANE('',#798);
#688=PLANE('',#801);
#689=PLANE('',#811);
#690=PLANE('',#812);
#691=PLANE('',#818);
#692=PLANE('',#819);
#693=PLANE('',#825);
#694=PLANE('',#826);
#695=PLANE('',#832);
#696=PLANE('',#833);
#697=PLANE('',#835);
#698=PLANE('',#837);
#699=PLANE('',#839);
#700=PLANE('',#841);
#701=PLANE('',#844);
#702=ADVANCED_FACE('',(#608,#609,#610,#611,#612),#682,.F.);
#703=ADVANCED_FACE('',(#613),#683,.T.);
#704=ADVANCED_FACE('',(#614),#20,.F.);
#705=ADVANCED_FACE('',(#615),#684,.T.);
#706=ADVANCED_FACE('',(#616),#21,.F.);
#707=ADVANCED_FACE('',(#617),#685,.T.);
#708=ADVANCED_FACE('',(#618),#22,.F.);
#709=ADVANCED_FACE('',(#619),#686,.T.);
#710=ADVANCED_FACE('',(#620),#23,.F.);
#711=ADVANCED_FACE('',(#621),#687,.T.);
#712=ADVANCED_FACE('',(#622,#623,#624,#625,#626),#688,.F.);
#713=ADVANCED_FACE('',(#627,#628),#24,.F.);
#714=ADVANCED_FACE('',(#629,#630),#25,.T.);
#715=ADVANCED_FACE('',(#631,#632),#689,.F.);
#716=ADVANCED_FACE('',(#633),#690,.F.);
#717=ADVANCED_FACE('',(#634,#635),#26,.F.);
#718=ADVANCED_FACE('',(#636,#637),#27,.T.);
#719=ADVANCED_FACE('',(#638,#639),#691,.F.);
#720=ADVANCED_FACE('',(#640),#692,.F.);
#721=ADVANCED_FACE('',(#641,#642),#28,.F.);
#722=ADVANCED_FACE('',(#643,#644),#29,.T.);
#723=ADVANCED_FACE('',(#645,#646),#693,.F.);
#724=ADVANCED_FACE('',(#647),#694,.F.);
#725=ADVANCED_FACE('',(#648,#649),#30,.F.);
#726=ADVANCED_FACE('',(#650,#651),#31,.T.);
#727=ADVANCED_FACE('',(#652,#653),#695,.F.);
#728=ADVANCED_FACE('',(#654),#696,.F.);
#729=ADVANCED_FACE('',(#655),#32,.T.);
#730=ADVANCED_FACE('',(#656),#697,.F.);
#731=ADVANCED_FACE('',(#657),#33,.T.);
#732=ADVANCED_FACE('',(#658),#698,.F.);
#733=ADVANCED_FACE('',(#659),#34,.T.);
#734=ADVANCED_FACE('',(#660),#699,.F.);
#735=ADVANCED_FACE('',(#661),#35,.T.);
#736=ADVANCED_FACE('',(#662),#700,.F.);
#737=ADVANCED_FACE('',(#663),#701,.T.);
#738=ADVANCED_FACE('',(#664),#36,.F.);
#739=ADVANCED_FACE('',(#665),#37,.F.);
#740=ADVANCED_FACE('',(#666,#667),#38,.F.);
#741=ADVANCED_FACE('',(#668,#669),#39,.F.);
#742=ADVANCED_FACE('',(#670,#671),#40,.F.);
#743=ADVANCED_FACE('',(#672,#673),#41,.F.);
#744=ADVANCED_FACE('',(#674,#675),#12,.F.);
#745=ADVANCED_FACE('',(#676,#677),#13,.F.);
#746=ADVANCED_FACE('',(#678,#679),#14,.F.);
#747=ADVANCED_FACE('',(#680,#681),#15,.F.);
#748=CLOSED_SHELL('',(#702,#703,#704,#705,#706,#707,#708,#709,#710,#711,
#712,#713,#714,#715,#716,#717,#718,#719,#720,#721,#722,#723,#724,#725,#726,
#727,#728,#729,#730,#731,#732,#733,#734,#735,#736,#737,#738,#739,#740,#741,
#742,#743,#744,#745,#746,#747));
#749=STYLED_ITEM('',(#750),#757);
#750=PRESENTATION_STYLE_ASSIGNMENT((#751));
#751=SURFACE_STYLE_USAGE(.BOTH.,#752);
#752=SURFACE_SIDE_STYLE('',(#753));
#753=SURFACE_STYLE_FILL_AREA(#754);
#754=FILL_AREA_STYLE('',(#755));
#755=FILL_AREA_STYLE_COLOUR('',#756);
#756=COLOUR_RGB('',0.615686274509804,0.811764705882353,0.929411764705882);
#757=MANIFOLD_SOLID_BREP('Bottom',#748);
#758=SHAPE_DEFINITION_REPRESENTATION(#1334,#759);
#759=SHAPE_REPRESENTATION('Bottom',(#760),#1329);
#760=AXIS2_PLACEMENT_3D('',#1097,#859,#860);
#761=AXIS2_PLACEMENT_3D('',#1098,#861,#862);
#762=AXIS2_PLACEMENT_3D('',#1099,#863,#864);
#763=AXIS2_PLACEMENT_3D('',#1101,#865,#866);
#764=AXIS2_PLACEMENT_3D('',#1108,#869,#870);
#765=AXIS2_PLACEMENT_3D('',#1112,#872,#873);
#766=AXIS2_PLACEMENT_3D('',#1116,#875,#876);
#767=AXIS2_PLACEMENT_3D('',#1120,#878,#879);
#768=AXIS2_PLACEMENT_3D('',#1128,#883,#884);
#769=AXIS2_PLACEMENT_3D('',#1132,#886,#887);
#770=AXIS2_PLACEMENT_3D('',#1136,#889,#890);
#771=AXIS2_PLACEMENT_3D('',#1140,#892,#893);
#772=AXIS2_PLACEMENT_3D('',#1143,#895,#896);
#773=AXIS2_PLACEMENT_3D('',#1145,#897,#898);
#774=AXIS2_PLACEMENT_3D('',#1147,#899,#900);
#775=AXIS2_PLACEMENT_3D('',#1148,#901,#902);
#776=AXIS2_PLACEMENT_3D('',#1151,#903,#904);
#777=AXIS2_PLACEMENT_3D('',#1153,#905,#906);
#778=AXIS2_PLACEMENT_3D('',#1157,#908,#909);
#779=AXIS2_PLACEMENT_3D('',#1159,#910,#911);
#780=AXIS2_PLACEMENT_3D('',#1161,#912,#913);
#781=AXIS2_PLACEMENT_3D('',#1165,#915,#916);
#782=AXIS2_PLACEMENT_3D('',#1167,#917,#918);
#783=AXIS2_PLACEMENT_3D('',#1169,#919,#920);
#784=AXIS2_PLACEMENT_3D('',#1173,#922,#923);
#785=AXIS2_PLACEMENT_3D('',#1175,#924,#925);
#786=AXIS2_PLACEMENT_3D('',#1177,#926,#927);
#787=AXIS2_PLACEMENT_3D('',#1180,#929,#930);
#788=AXIS2_PLACEMENT_3D('',#1185,#933,#934);
#789=AXIS2_PLACEMENT_3D('',#1186,#935,#936);
#790=AXIS2_PLACEMENT_3D('',#1190,#939,#940);
#791=AXIS2_PLACEMENT_3D('',#1193,#942,#943);
#792=AXIS2_PLACEMENT_3D('',#1194,#944,#945);
#793=AXIS2_PLACEMENT_3D('',#1198,#948,#949);
#794=AXIS2_PLACEMENT_3D('',#1201,#951,#952);
#795=AXIS2_PLACEMENT_3D('',#1202,#953,#954);
#796=AXIS2_PLACEMENT_3D('',#1206,#957,#958);
#797=AXIS2_PLACEMENT_3D('',#1209,#960,#961);
#798=AXIS2_PLACEMENT_3D('',#1210,#962,#963);
#799=AXIS2_PLACEMENT_3D('',#1211,#964,#965);
#800=AXIS2_PLACEMENT_3D('',#1215,#967,#968);
#801=AXIS2_PLACEMENT_3D('',#1217,#970,#971);
#802=AXIS2_PLACEMENT_3D('',#1218,#972,#973);
#803=AXIS2_PLACEMENT_3D('',#1220,#974,#975);
#804=AXIS2_PLACEMENT_3D('',#1222,#976,#977);
#805=AXIS2_PLACEMENT_3D('',#1224,#978,#979);
#806=AXIS2_PLACEMENT_3D('',#1226,#980,#981);
#807=AXIS2_PLACEMENT_3D('',#1227,#982,#983);
#808=AXIS2_PLACEMENT_3D('',#1229,#984,#985);
#809=AXIS2_PLACEMENT_3D('',#1231,#986,#987);
#810=AXIS2_PLACEMENT_3D('',#1232,#988,#989);
#811=AXIS2_PLACEMENT_3D('',#1234,#990,#991);
#812=AXIS2_PLACEMENT_3D('',#1235,#992,#993);
#813=AXIS2_PLACEMENT_3D('',#1236,#994,#995);
#814=AXIS2_PLACEMENT_3D('',#1237,#996,#997);
#815=AXIS2_PLACEMENT_3D('',#1239,#998,#999);
#816=AXIS2_PLACEMENT_3D('',#1241,#1000,#1001);
#817=AXIS2_PLACEMENT_3D('',#1242,#1002,#1003);
#818=AXIS2_PLACEMENT_3D('',#1244,#1004,#1005);
#819=AXIS2_PLACEMENT_3D('',#1245,#1006,#1007);
#820=AXIS2_PLACEMENT_3D('',#1246,#1008,#1009);
#821=AXIS2_PLACEMENT_3D('',#1247,#1010,#1011);
#822=AXIS2_PLACEMENT_3D('',#1249,#1012,#1013);
#823=AXIS2_PLACEMENT_3D('',#1251,#1014,#1015);
#824=AXIS2_PLACEMENT_3D('',#1252,#1016,#1017);
#825=AXIS2_PLACEMENT_3D('',#1254,#1018,#1019);
#826=AXIS2_PLACEMENT_3D('',#1255,#1020,#1021);
#827=AXIS2_PLACEMENT_3D('',#1256,#1022,#1023);
#828=AXIS2_PLACEMENT_3D('',#1257,#1024,#1025);
#829=AXIS2_PLACEMENT_3D('',#1259,#1026,#1027);
#830=AXIS2_PLACEMENT_3D('',#1261,#1028,#1029);
#831=AXIS2_PLACEMENT_3D('',#1262,#1030,#1031);
#832=AXIS2_PLACEMENT_3D('',#1264,#1032,#1033);
#833=AXIS2_PLACEMENT_3D('',#1265,#1034,#1035);
#834=AXIS2_PLACEMENT_3D('',#1266,#1036,#1037);
#835=AXIS2_PLACEMENT_3D('',#1274,#1040,#1041);
#836=AXIS2_PLACEMENT_3D('',#1276,#1043,#1044);
#837=AXIS2_PLACEMENT_3D('',#1283,#1046,#1047);
#838=AXIS2_PLACEMENT_3D('',#1285,#1049,#1050);
#839=AXIS2_PLACEMENT_3D('',#1292,#1052,#1053);
#840=AXIS2_PLACEMENT_3D('',#1294,#1055,#1056);
#841=AXIS2_PLACEMENT_3D('',#1301,#1058,#1059);
#842=AXIS2_PLACEMENT_3D('',#1302,#1060,#1061);
#843=AXIS2_PLACEMENT_3D('',#1304,#1062,#1063);
#844=AXIS2_PLACEMENT_3D('',#1307,#1065,#1066);
#845=AXIS2_PLACEMENT_3D('',#1310,#1069,#1070);
#846=AXIS2_PLACEMENT_3D('',#1311,#1071,#1072);
#847=AXIS2_PLACEMENT_3D('',#1312,#1073,#1074);
#848=AXIS2_PLACEMENT_3D('',#1313,#1075,#1076);
#849=AXIS2_PLACEMENT_3D('',#1315,#1077,#1078);
#850=AXIS2_PLACEMENT_3D('',#1316,#1079,#1080);
#851=AXIS2_PLACEMENT_3D('',#1318,#1081,#1082);
#852=AXIS2_PLACEMENT_3D('',#1319,#1083,#1084);
#853=AXIS2_PLACEMENT_3D('',#1321,#1085,#1086);
#854=AXIS2_PLACEMENT_3D('',#1322,#1087,#1088);
#855=AXIS2_PLACEMENT_3D('',#1324,#1089,#1090);
#856=AXIS2_PLACEMENT_3D('',#1325,#1091,#1092);
#857=AXIS2_PLACEMENT_3D('',#1326,#1093,#1094);
#858=AXIS2_PLACEMENT_3D('',#1327,#1095,#1096);
#859=DIRECTION('',(0.,0.,1.));
#860=DIRECTION('',(1.,0.,0.));
#861=DIRECTION('',(0.,0.,-1.));
#862=DIRECTION('',(1.,0.,0.));
#863=DIRECTION('',(0.,0.,-1.));
#864=DIRECTION('',(-1.,0.,0.));
#865=DIRECTION('',(0.,0.,-1.));
#866=DIRECTION('',(-1.,0.,0.));
#867=DIRECTION('',(1.346145417358E-15,-1.,3.006609133585E-15));
#868=DIRECTION('',(1.,0.,0.));
#869=DIRECTION('',(0.,0.,-1.));
#870=DIRECTION('',(-1.,0.,0.));
#871=DIRECTION('',(0.,-1.,0.));
#872=DIRECTION('',(0.,0.,-1.));
#873=DIRECTION('',(-1.,0.,0.));
#874=DIRECTION('',(-1.,0.,0.));
#875=DIRECTION('',(0.,0.,-1.));
#876=DIRECTION('',(-1.,0.,0.));
#877=DIRECTION('',(0.,1.,0.));
#878=DIRECTION('',(0.,0.,-1.));
#879=DIRECTION('',(-1.,0.,0.));
#880=DIRECTION('',(1.,0.,0.));
#881=DIRECTION('',(1.346145417358E-15,-1.,3.006609133585E-15));
#882=DIRECTION('',(1.,0.,0.));
#883=DIRECTION('',(0.,0.,-1.));
#884=DIRECTION('',(-1.,0.,0.));
#885=DIRECTION('',(0.,1.,0.));
#886=DIRECTION('',(0.,0.,-1.));
#887=DIRECTION('',(-1.,0.,0.));
#888=DIRECTION('',(-1.,0.,0.));
#889=DIRECTION('',(0.,0.,-1.));
#890=DIRECTION('',(-1.,0.,0.));
#891=DIRECTION('',(0.,-1.,0.));
#892=DIRECTION('',(0.,0.,-1.));
#893=DIRECTION('',(-1.,0.,0.));
#894=DIRECTION('',(1.,0.,0.));
#895=DIRECTION('',(0.,0.,-1.));
#896=DIRECTION('',(-1.,0.,0.));
#897=DIRECTION('',(0.,0.,-1.));
#898=DIRECTION('',(-1.,0.,0.));
#899=DIRECTION('',(0.,0.,-1.));
#900=DIRECTION('',(1.,0.,0.));
#901=DIRECTION('',(0.,0.,-1.));
#902=DIRECTION('',(-1.,0.,0.));
#903=DIRECTION('',(0.,0.,-1.));
#904=DIRECTION('',(-1.,0.,0.));
#905=DIRECTION('',(0.,0.,-1.));
#906=DIRECTION('',(-1.,0.,0.));
#907=DIRECTION('',(1.,0.,0.));
#908=DIRECTION('',(0.,0.,-1.));
#909=DIRECTION('',(-1.,0.,0.));
#910=DIRECTION('',(0.,0.,-1.));
#911=DIRECTION('',(-1.,0.,0.));
#912=DIRECTION('',(0.,0.,-1.));
#913=DIRECTION('',(-1.,0.,0.));
#914=DIRECTION('',(0.,-1.,0.));
#915=DIRECTION('',(0.,0.,-1.));
#916=DIRECTION('',(-1.,0.,0.));
#917=DIRECTION('',(0.,0.,-1.));
#918=DIRECTION('',(-1.,0.,0.));
#919=DIRECTION('',(0.,0.,-1.));
#920=DIRECTION('',(-1.,0.,0.));
#921=DIRECTION('',(-1.,0.,0.));
#922=DIRECTION('',(0.,0.,-1.));
#923=DIRECTION('',(-1.,0.,0.));
#924=DIRECTION('',(0.,0.,-1.));
#925=DIRECTION('',(-1.,0.,0.));
#926=DIRECTION('',(0.,0.,-1.));
#927=DIRECTION('',(-1.,0.,0.));
#928=DIRECTION('',(0.,1.,0.));
#929=DIRECTION('',(0.,0.,1.));
#930=DIRECTION('',(1.,0.,0.));
#931=DIRECTION('',(0.,0.,1.));
#932=DIRECTION('',(0.,0.,1.));
#933=DIRECTION('',(0.,0.,-1.));
#934=DIRECTION('',(-1.,0.,0.));
#935=DIRECTION('',(1.,0.,0.));
#936=DIRECTION('',(0.,0.,-1.));
#937=DIRECTION('',(0.,0.,1.));
#938=DIRECTION('',(0.,1.,0.));
#939=DIRECTION('',(0.,0.,1.));
#940=DIRECTION('',(1.,0.,0.));
#941=DIRECTION('',(0.,0.,1.));
#942=DIRECTION('',(0.,0.,-1.));
#943=DIRECTION('',(-1.,0.,0.));
#944=DIRECTION('',(0.,1.,0.));
#945=DIRECTION('',(0.,0.,1.));
#946=DIRECTION('',(0.,0.,1.));
#947=DIRECTION('',(-1.,0.,0.));
#948=DIRECTION('',(0.,0.,1.));
#949=DIRECTION('',(1.,0.,0.));
#950=DIRECTION('',(0.,0.,1.));
#951=DIRECTION('',(0.,0.,-1.));
#952=DIRECTION('',(-1.,0.,0.));
#953=DIRECTION('',(-1.,0.,0.));
#954=DIRECTION('',(0.,0.,1.));
#955=DIRECTION('',(0.,0.,1.));
#956=DIRECTION('',(0.,-1.,0.));
#957=DIRECTION('',(0.,0.,1.));
#958=DIRECTION('',(1.,0.,0.));
#959=DIRECTION('',(0.,0.,1.));
#960=DIRECTION('',(0.,0.,-1.));
#961=DIRECTION('',(-1.,0.,0.));
#962=DIRECTION('',(0.,-1.,0.));
#963=DIRECTION('',(0.,0.,-1.));
#964=DIRECTION('',(0.,-1.,0.));
#965=DIRECTION('',(0.,0.,-1.));
#966=DIRECTION('',(-1.,0.,-6.47905024486483E-30));
#967=DIRECTION('',(0.,-1.,0.));
#968=DIRECTION('',(0.,0.,-1.));
#969=DIRECTION('',(1.,0.,0.));
#970=DIRECTION('',(0.,0.,-1.));
#971=DIRECTION('',(1.,0.,0.));
#972=DIRECTION('',(0.,0.,-1.));
#973=DIRECTION('',(-1.,0.,0.));
#974=DIRECTION('',(0.,0.,-1.));
#975=DIRECTION('',(-1.,0.,0.));
#976=DIRECTION('',(0.,0.,-1.));
#977=DIRECTION('',(-1.,0.,0.));
#978=DIRECTION('',(0.,0.,-1.));
#979=DIRECTION('',(-1.,0.,0.));
#980=DIRECTION('',(0.,0.,1.));
#981=DIRECTION('',(1.,0.,0.));
#982=DIRECTION('',(0.,0.,-1.));
#983=DIRECTION('',(-1.,0.,0.));
#984=DIRECTION('',(0.,0.,-1.));
#985=DIRECTION('',(-1.,0.,0.));
#986=DIRECTION('',(0.,0.,1.));
#987=DIRECTION('',(1.,0.,0.));
#988=DIRECTION('',(0.,0.,-1.));
#989=DIRECTION('',(-1.,0.,0.));
#990=DIRECTION('',(0.,0.,-1.));
#991=DIRECTION('',(1.,0.,0.));
#992=DIRECTION('',(0.,0.,-1.));
#993=DIRECTION('',(1.,0.,0.));
#994=DIRECTION('',(0.,0.,1.));
#995=DIRECTION('',(1.,0.,0.));
#996=DIRECTION('',(0.,0.,-1.));
#997=DIRECTION('',(-1.,0.,0.));
#998=DIRECTION('',(0.,0.,-1.));
#999=DIRECTION('',(-1.,0.,0.));
#1000=DIRECTION('',(0.,0.,1.));
#1001=DIRECTION('',(1.,0.,0.));
#1002=DIRECTION('',(0.,0.,-1.));
#1003=DIRECTION('',(-1.,0.,0.));
#1004=DIRECTION('',(0.,0.,-1.));
#1005=DIRECTION('',(1.,0.,0.));
#1006=DIRECTION('',(0.,0.,-1.));
#1007=DIRECTION('',(1.,0.,0.));
#1008=DIRECTION('',(0.,0.,1.));
#1009=DIRECTION('',(1.,0.,0.));
#1010=DIRECTION('',(0.,0.,-1.));
#1011=DIRECTION('',(-1.,0.,0.));
#1012=DIRECTION('',(0.,0.,-1.));
#1013=DIRECTION('',(-1.,0.,0.));
#1014=DIRECTION('',(0.,0.,1.));
#1015=DIRECTION('',(1.,0.,0.));
#1016=DIRECTION('',(0.,0.,-1.));
#1017=DIRECTION('',(-1.,0.,0.));
#1018=DIRECTION('',(0.,0.,-1.));
#1019=DIRECTION('',(1.,0.,0.));
#1020=DIRECTION('',(0.,0.,-1.));
#1021=DIRECTION('',(1.,0.,0.));
#1022=DIRECTION('',(0.,0.,1.));
#1023=DIRECTION('',(1.,0.,0.));
#1024=DIRECTION('',(0.,0.,-1.));
#1025=DIRECTION('',(-1.,0.,0.));
#1026=DIRECTION('',(0.,0.,-1.));
#1027=DIRECTION('',(-1.,0.,0.));
#1028=DIRECTION('',(0.,0.,1.));
#1029=DIRECTION('',(1.,0.,0.));
#1030=DIRECTION('',(0.,0.,-1.));
#1031=DIRECTION('',(-1.,0.,0.));
#1032=DIRECTION('',(0.,0.,-1.));
#1033=DIRECTION('',(1.,0.,0.));
#1034=DIRECTION('',(0.,0.,-1.));
#1035=DIRECTION('',(1.,0.,0.));
#1036=DIRECTION('',(0.,0.,1.));
#1037=DIRECTION('',(1.,0.,0.));
#1038=DIRECTION('',(0.,0.,1.));
#1039=DIRECTION('',(0.,0.,1.));
#1040=DIRECTION('',(-1.,0.,0.));
#1041=DIRECTION('',(0.,0.,1.));
#1042=DIRECTION('',(0.,0.,1.));
#1043=DIRECTION('',(0.,0.,1.));
#1044=DIRECTION('',(1.,0.,0.));
#1045=DIRECTION('',(0.,0.,1.));
#1046=DIRECTION('',(0.,1.,0.));
#1047=DIRECTION('',(0.,0.,1.));
#1048=DIRECTION('',(0.,0.,1.));
#1049=DIRECTION('',(0.,0.,1.));
#1050=DIRECTION('',(1.,0.,0.));
#1051=DIRECTION('',(0.,0.,1.));
#1052=DIRECTION('',(1.,0.,0.));
#1053=DIRECTION('',(0.,0.,-1.));
#1054=DIRECTION('',(0.,0.,1.));
#1055=DIRECTION('',(0.,0.,1.));
#1056=DIRECTION('',(1.,0.,0.));
#1057=DIRECTION('',(0.,0.,1.));
#1058=DIRECTION('',(0.,-1.,0.));
#1059=DIRECTION('',(0.,0.,-1.));
#1060=DIRECTION('',(0.,-1.,0.));
#1061=DIRECTION('',(0.,0.,-1.));
#1062=DIRECTION('',(0.,-1.,0.));
#1063=DIRECTION('',(0.,0.,-1.));
#1064=DIRECTION('',(-1.,0.,-6.47905024486483E-30));
#1065=DIRECTION('',(-6.47905024486483E-30,3.006609133585E-15,1.));
#1066=DIRECTION('',(0.,-1.,3.006609133585E-15));
#1067=DIRECTION('',(1.346145417358E-15,-1.,3.006609133585E-15));
#1068=DIRECTION('',(1.346145417358E-15,-1.,3.006609133585E-15));
#1069=DIRECTION('',(1.346145417358E-15,-1.,3.006609133585E-15));
#1070=DIRECTION('',(0.,-3.006609133585E-15,-1.));
#1071=DIRECTION('',(1.346145417358E-15,-1.,3.006609133585E-15));
#1072=DIRECTION('',(0.,-3.006609133585E-15,-1.));
#1073=DIRECTION('',(0.,0.,-1.));
#1074=DIRECTION('',(-1.,0.,0.));
#1075=DIRECTION('',(0.,0.,-1.));
#1076=DIRECTION('',(-1.,0.,0.));
#1077=DIRECTION('',(0.,0.,-1.));
#1078=DIRECTION('',(-1.,0.,0.));
#1079=DIRECTION('',(0.,0.,-1.));
#1080=DIRECTION('',(-1.,0.,0.));
#1081=DIRECTION('',(0.,0.,-1.));
#1082=DIRECTION('',(-1.,0.,0.));
#1083=DIRECTION('',(0.,0.,-1.));
#1084=DIRECTION('',(-1.,0.,0.));
#1085=DIRECTION('',(0.,0.,-1.));
#1086=DIRECTION('',(-1.,0.,0.));
#1087=DIRECTION('',(0.,0.,-1.));
#1088=DIRECTION('',(-1.,0.,0.));
#1089=DIRECTION('',(0.,0.,-1.));
#1090=DIRECTION('',(-1.,0.,0.));
#1091=DIRECTION('',(0.,0.,-1.));
#1092=DIRECTION('',(-1.,0.,0.));
#1093=DIRECTION('',(0.,0.,-1.));
#1094=DIRECTION('',(-1.,0.,0.));
#1095=DIRECTION('',(0.,0.,-1.));
#1096=DIRECTION('',(-1.,0.,0.));
#1097=CARTESIAN_POINT('',(0.,0.,0.));
#1098=CARTESIAN_POINT('',(1.32532873564628E-15,1.32532873564628E-15,0.0027));
#1099=CARTESIAN_POINT('',(-0.0335000003735337,-0.0422500003735325,0.0027));
#1100=CARTESIAN_POINT('',(-0.0350000003735337,-0.0422500003735325,0.0027));
#1101=CARTESIAN_POINT('',(-0.0335000003735337,0.0422500003735375,0.0027));
#1102=CARTESIAN_POINT('',(-0.0350000003735337,0.0422500003735375,0.0027));
#1103=CARTESIAN_POINT('',(-0.012777586546394,0.06575,0.0027));
#1104=CARTESIAN_POINT('',(-0.012777586546394,0.04175,0.00270000000000007));
#1105=CARTESIAN_POINT('',(-0.012777586546394,0.04575,0.0027));
#1106=CARTESIAN_POINT('',(2.4980018054066E-15,0.04175,0.0027));
#1107=CARTESIAN_POINT('',(0.030000000747075,0.04175,0.0027));
#1108=CARTESIAN_POINT('',(0.030000000747075,0.038750000747075,0.0027));
#1109=CARTESIAN_POINT('',(0.033,0.038750000747075,0.0027));
#1110=CARTESIAN_POINT('',(0.033,2.4980018054066E-15,0.0027));
#1111=CARTESIAN_POINT('',(0.033,-0.03875000074707,0.0027));
#1112=CARTESIAN_POINT('',(0.030000000747075,-0.03875000074707,0.0027));
#1113=CARTESIAN_POINT('',(0.030000000747075,-0.0417499999999974,0.0027));
#1114=CARTESIAN_POINT('',(2.50147125235856E-15,-0.0417499999999974,0.0027));
#1115=CARTESIAN_POINT('',(-0.03000000074707,-0.041749999999995,0.0027));
#1116=CARTESIAN_POINT('',(-0.03000000074707,-0.03875000074707,0.0027));
#1117=CARTESIAN_POINT('',(-0.0329999999999974,-0.03875000074707,0.0027));
#1118=CARTESIAN_POINT('',(-0.0329999999999974,2.4980018054066E-15,0.0027));
#1119=CARTESIAN_POINT('',(-0.0329999999999974,0.038750000747075,0.0027));
#1120=CARTESIAN_POINT('',(-0.03000000074707,0.038750000747075,0.0027));
#1121=CARTESIAN_POINT('',(-0.03000000074707,0.04175,0.0027));
#1122=CARTESIAN_POINT('',(2.4980018054066E-15,0.04175,0.0027));
#1123=CARTESIAN_POINT('',(-0.026222413453606,0.04175,0.00270000000000007));
#1124=CARTESIAN_POINT('',(-0.026222413453606,0.06575,0.0027));
#1125=CARTESIAN_POINT('',(-0.0262224134536059,0.04575,0.0027));
#1126=CARTESIAN_POINT('',(2.4980018054066E-15,0.04575,0.0027));
#1127=CARTESIAN_POINT('',(-0.03000000074707,0.04575,0.0027));
#1128=CARTESIAN_POINT('',(-0.03000000074707,0.038750000747075,0.0027));
#1129=CARTESIAN_POINT('',(-0.036999999999995,0.038750000747075,0.0027));
#1130=CARTESIAN_POINT('',(-0.0369999999999973,2.4980018054066E-15,0.0027));
#1131=CARTESIAN_POINT('',(-0.0369999999999973,-0.03875000074707,0.0027));
#1132=CARTESIAN_POINT('',(-0.03000000074707,-0.03875000074707,0.0027));
#1133=CARTESIAN_POINT('',(-0.03000000074707,-0.045749999999995,0.0027));
#1134=CARTESIAN_POINT('',(2.50147125235856E-15,-0.0457499999999974,0.0027));
#1135=CARTESIAN_POINT('',(0.030000000747075,-0.0457499999999974,0.0027));
#1136=CARTESIAN_POINT('',(0.030000000747075,-0.03875000074707,0.0027));
#1137=CARTESIAN_POINT('',(0.037,-0.03875000074707,0.0027));
#1138=CARTESIAN_POINT('',(0.037,2.4980018054066E-15,0.0027));
#1139=CARTESIAN_POINT('',(0.037,0.038750000747075,0.0027));
#1140=CARTESIAN_POINT('',(0.030000000747075,0.038750000747075,0.0027));
#1141=CARTESIAN_POINT('',(0.030000000747075,0.04575,0.0027));
#1142=CARTESIAN_POINT('',(2.4980018054066E-15,0.04575,0.0027));
#1143=CARTESIAN_POINT('',(0.0335000003735387,-0.0422500003735325,0.0027));
#1144=CARTESIAN_POINT('',(0.0320000003735387,-0.0422500003735325,0.0027));
#1145=CARTESIAN_POINT('',(0.0335000003735387,0.0422500003735375,0.0027));
#1146=CARTESIAN_POINT('',(0.0320000003735387,0.0422500003735375,0.0027));
#1147=CARTESIAN_POINT('',(1.32532873564628E-15,1.32532873564628E-15,-0.007));
#1148=CARTESIAN_POINT('',(-0.03000000074707,0.038750000747075,-0.007));
#1149=CARTESIAN_POINT('',(-0.036999999999995,0.038750000747075,-0.007));
#1150=CARTESIAN_POINT('',(-0.0359975992649256,0.0423595438704587,-0.007));
#1151=CARTESIAN_POINT('',(-0.0335000003735337,0.0422500003735375,-0.007));
#1152=CARTESIAN_POINT('',(-0.0336095438704557,0.0447475992649294,-0.007));
#1153=CARTESIAN_POINT('',(-0.03000000074707,0.038750000747075,-0.007));
#1154=CARTESIAN_POINT('',(-0.03000000074707,0.04575,-0.007));
#1155=CARTESIAN_POINT('',(2.4980018054066E-15,0.04575,-0.007));
#1156=CARTESIAN_POINT('',(0.030000000747075,0.04575,-0.007));
#1157=CARTESIAN_POINT('',(0.030000000747075,0.038750000747075,-0.007));
#1158=CARTESIAN_POINT('',(0.0336095438704607,0.0447475992649294,-0.007));
#1159=CARTESIAN_POINT('',(0.0335000003735387,0.0422500003735375,-0.007));
#1160=CARTESIAN_POINT('',(0.0359975992649306,0.0423595438704587,-0.007));
#1161=CARTESIAN_POINT('',(0.030000000747075,0.038750000747075,-0.007));
#1162=CARTESIAN_POINT('',(0.037,0.038750000747075,-0.007));
#1163=CARTESIAN_POINT('',(0.037,2.4980018054066E-15,-0.007));
#1164=CARTESIAN_POINT('',(0.037,-0.03875000074707,-0.007));
#1165=CARTESIAN_POINT('',(0.030000000747075,-0.03875000074707,-0.007));
#1166=CARTESIAN_POINT('',(0.0359975992649307,-0.0423595438704537,-0.007));
#1167=CARTESIAN_POINT('',(0.0335000003735387,-0.0422500003735325,-0.007));
#1168=CARTESIAN_POINT('',(0.0336095438704607,-0.0447475992649244,-0.007));
#1169=CARTESIAN_POINT('',(0.030000000747075,-0.03875000074707,-0.007));
#1170=CARTESIAN_POINT('',(0.030000000747075,-0.0457499999999974,-0.007));
#1171=CARTESIAN_POINT('',(2.50147125235856E-15,-0.0457499999999974,-0.007));
#1172=CARTESIAN_POINT('',(-0.03000000074707,-0.045749999999995,-0.007));
#1173=CARTESIAN_POINT('',(-0.03000000074707,-0.03875000074707,-0.007));
#1174=CARTESIAN_POINT('',(-0.0336095438704557,-0.0447475992649244,-0.007));
#1175=CARTESIAN_POINT('',(-0.0335000003735337,-0.0422500003735325,-0.007));
#1176=CARTESIAN_POINT('',(-0.0359975992649256,-0.0423595438704537,-0.007));
#1177=CARTESIAN_POINT('',(-0.03000000074707,-0.03875000074707,-0.007));
#1178=CARTESIAN_POINT('',(-0.0369999999999973,-0.03875000074707,-0.007));
#1179=CARTESIAN_POINT('',(-0.0369999999999973,2.4980018054066E-15,-0.007));
#1180=CARTESIAN_POINT('',(-0.03000000074707,0.038750000747075,-0.005));
#1181=CARTESIAN_POINT('',(-0.03000000074707,0.04175,-0.005));
#1182=CARTESIAN_POINT('',(-0.03000000074707,0.04175,-0.005));
#1183=CARTESIAN_POINT('',(-0.0329999999999974,0.038750000747075,-0.005));
#1184=CARTESIAN_POINT('',(-0.0329999999999974,0.038750000747075,-0.005));
#1185=CARTESIAN_POINT('',(-0.03000000074707,0.038750000747075,-0.005));
#1186=CARTESIAN_POINT('',(-0.0329999999999974,2.4980018054066E-15,-0.005));
#1187=CARTESIAN_POINT('',(-0.0329999999999974,-0.03875000074707,-0.005));
#1188=CARTESIAN_POINT('',(-0.0329999999999974,-0.03875000074707,-0.005));
#1189=CARTESIAN_POINT('',(-0.0329999999999974,2.4980018054066E-15,-0.005));
#1190=CARTESIAN_POINT('',(-0.03000000074707,-0.03875000074707,-0.005));
#1191=CARTESIAN_POINT('',(-0.03000000074707,-0.041749999999995,-0.005));
#1192=CARTESIAN_POINT('',(-0.03000000074707,-0.041749999999995,-0.005));
#1193=CARTESIAN_POINT('',(-0.03000000074707,-0.03875000074707,-0.005));
#1194=CARTESIAN_POINT('',(2.50147125235856E-15,-0.0417499999999974,-0.005));
#1195=CARTESIAN_POINT('',(0.030000000747075,-0.0417499999999974,-0.005));
#1196=CARTESIAN_POINT('',(0.030000000747075,-0.0417499999999974,-0.005));
#1197=CARTESIAN_POINT('',(2.50147125235856E-15,-0.0417499999999974,-0.005));
#1198=CARTESIAN_POINT('',(0.030000000747075,-0.03875000074707,-0.005));
#1199=CARTESIAN_POINT('',(0.033,-0.03875000074707,-0.005));
#1200=CARTESIAN_POINT('',(0.033,-0.03875000074707,-0.005));
#1201=CARTESIAN_POINT('',(0.030000000747075,-0.03875000074707,-0.005));
#1202=CARTESIAN_POINT('',(0.033,2.4980018054066E-15,-0.005));
#1203=CARTESIAN_POINT('',(0.033,0.038750000747075,-0.005));
#1204=CARTESIAN_POINT('',(0.033,0.038750000747075,-0.005));
#1205=CARTESIAN_POINT('',(0.033,2.4980018054066E-15,-0.005));
#1206=CARTESIAN_POINT('',(0.030000000747075,0.038750000747075,-0.005));
#1207=CARTESIAN_POINT('',(0.030000000747075,0.04175,-0.005));
#1208=CARTESIAN_POINT('',(0.030000000747075,0.04175,-0.005));
#1209=CARTESIAN_POINT('',(0.030000000747075,0.038750000747075,-0.005));
#1210=CARTESIAN_POINT('',(2.4980018054066E-15,0.04175,-0.005));
#1211=CARTESIAN_POINT('',(-0.01628,0.04175,0.00404));
#1212=CARTESIAN_POINT('',(-0.01628,0.04175,0.000289999999999975));
#1213=CARTESIAN_POINT('',(2.4980018054066E-15,0.04175,0.000289999999999975));
#1214=CARTESIAN_POINT('',(-0.02272,0.04175,0.000289999999999975));
#1215=CARTESIAN_POINT('',(-0.02272,0.04175,0.00404));
#1216=CARTESIAN_POINT('',(2.4980018054066E-15,0.04175,-0.005));
#1217=CARTESIAN_POINT('',(1.32532873564628E-15,1.32532873564628E-15,-0.005));
#1218=CARTESIAN_POINT('',(0.0215,0.02,-0.005));
#1219=CARTESIAN_POINT('',(0.01805,0.02,-0.005));
#1220=CARTESIAN_POINT('',(0.011,-0.01975,-0.005));
#1221=CARTESIAN_POINT('',(0.00755,-0.01975,-0.005));
#1222=CARTESIAN_POINT('',(-0.009,-0.01925,-0.005));
#1223=CARTESIAN_POINT('',(-0.01245,-0.01925,-0.005));
#1224=CARTESIAN_POINT('',(-0.0085,-0.00025,-0.005));
#1225=CARTESIAN_POINT('',(-0.01195,-0.00025,-0.005));
#1226=CARTESIAN_POINT('',(-0.0085,-0.00025,-0.005002));
#1227=CARTESIAN_POINT('',(-0.0085,-0.00025,-0.0003));
#1228=CARTESIAN_POINT('',(-0.0101,-0.00025,-0.0003));
#1229=CARTESIAN_POINT('',(-0.0085,-0.00025,-0.005));
#1230=CARTESIAN_POINT('',(-0.0101,-0.00025,-0.005));
#1231=CARTESIAN_POINT('',(-0.0085,-0.00025,-0.005002));
#1232=CARTESIAN_POINT('',(-0.0085,-0.00025,-0.0003));
#1233=CARTESIAN_POINT('',(-0.01195,-0.00025,-0.0003));
#1234=CARTESIAN_POINT('',(1.32532873564628E-15,1.32532873564628E-15,-0.0003));
#1235=CARTESIAN_POINT('',(1.32532873564628E-15,1.32532873564628E-15,-0.005));
#1236=CARTESIAN_POINT('',(-0.009,-0.01925,-0.005002));
#1237=CARTESIAN_POINT('',(-0.009,-0.01925,-0.0003));
#1238=CARTESIAN_POINT('',(-0.0106,-0.01925,-0.0003));
#1239=CARTESIAN_POINT('',(-0.009,-0.01925,-0.005));
#1240=CARTESIAN_POINT('',(-0.0106,-0.01925,-0.005));
#1241=CARTESIAN_POINT('',(-0.009,-0.01925,-0.005002));
#1242=CARTESIAN_POINT('',(-0.009,-0.01925,-0.0003));
#1243=CARTESIAN_POINT('',(-0.01245,-0.01925,-0.0003));
#1244=CARTESIAN_POINT('',(1.32532873564628E-15,1.32532873564628E-15,-0.0003));
#1245=CARTESIAN_POINT('',(1.32532873564628E-15,1.32532873564628E-15,-0.005));
#1246=CARTESIAN_POINT('',(0.011,-0.01975,-0.005002));
#1247=CARTESIAN_POINT('',(0.011,-0.01975,-0.0003));
#1248=CARTESIAN_POINT('',(0.0094,-0.01975,-0.0003));
#1249=CARTESIAN_POINT('',(0.011,-0.01975,-0.005));
#1250=CARTESIAN_POINT('',(0.0094,-0.01975,-0.005));
#1251=CARTESIAN_POINT('',(0.011,-0.01975,-0.005002));
#1252=CARTESIAN_POINT('',(0.011,-0.01975,-0.0003));
#1253=CARTESIAN_POINT('',(0.00755,-0.01975,-0.0003));
#1254=CARTESIAN_POINT('',(1.32532873564628E-15,1.32532873564628E-15,-0.0003));
#1255=CARTESIAN_POINT('',(1.32532873564628E-15,1.32532873564628E-15,-0.005));
#1256=CARTESIAN_POINT('',(0.0215,0.02,-0.005002));
#1257=CARTESIAN_POINT('',(0.0215,0.02,-0.0003));
#1258=CARTESIAN_POINT('',(0.0199,0.02,-0.0003));
#1259=CARTESIAN_POINT('',(0.0215,0.02,-0.005));
#1260=CARTESIAN_POINT('',(0.0199,0.02,-0.005));
#1261=CARTESIAN_POINT('',(0.0215,0.02,-0.005002));
#1262=CARTESIAN_POINT('',(0.0215,0.02,-0.0003));
#1263=CARTESIAN_POINT('',(0.01805,0.02,-0.0003));
#1264=CARTESIAN_POINT('',(1.32532873564628E-15,1.32532873564628E-15,-0.0003));
#1265=CARTESIAN_POINT('',(1.32532873564628E-15,1.32532873564628E-15,-0.005));
#1266=CARTESIAN_POINT('',(0.030000000747075,0.038750000747075,-0.005));
#1267=CARTESIAN_POINT('',(0.0359975992649306,0.0423595438704587,-0.007));
#1268=CARTESIAN_POINT('',(0.0357203289066073,0.0428202548893552,-0.00674318310260642));
#1269=CARTESIAN_POINT('',(0.0350053791932641,0.0437529628165561,-0.00635741249849025));
#1270=CARTESIAN_POINT('',(0.0340705801873743,0.0444701331320443,-0.00674300176978802));
#1271=CARTESIAN_POINT('',(0.0336095438704607,0.0447475992649294,-0.007));
#1272=CARTESIAN_POINT('',(0.030000000747075,0.04575,-0.005));
#1273=CARTESIAN_POINT('',(0.037,0.038750000747075,-0.005));
#1274=CARTESIAN_POINT('',(0.037,2.4980018054066E-15,-0.005));
#1275=CARTESIAN_POINT('',(0.037,-0.03875000074707,-0.005));
#1276=CARTESIAN_POINT('',(0.030000000747075,-0.03875000074707,-0.005));
#1277=CARTESIAN_POINT('',(0.0336095438704607,-0.0447475992649244,-0.007));
#1278=CARTESIAN_POINT('',(0.0340702548893571,-0.044470328906601,-0.00674318310260641));
#1279=CARTESIAN_POINT('',(0.0350029628165578,-0.0437553791932574,-0.00635741249849026));
#1280=CARTESIAN_POINT('',(0.0357201331320457,-0.0428205801873674,-0.00674300176978803));
#1281=CARTESIAN_POINT('',(0.0359975992649307,-0.0423595438704537,-0.007));
#1282=CARTESIAN_POINT('',(0.030000000747075,-0.0457499999999974,-0.005));
#1283=CARTESIAN_POINT('',(2.50147125235856E-15,-0.0457499999999974,-0.005));
#1284=CARTESIAN_POINT('',(-0.03000000074707,-0.045749999999995,-0.005));
#1285=CARTESIAN_POINT('',(-0.03000000074707,-0.03875000074707,-0.005));
#1286=CARTESIAN_POINT('',(-0.0359975992649256,-0.0423595438704537,-0.007));
#1287=CARTESIAN_POINT('',(-0.0357203289066024,-0.0428202548893502,-0.00674318310260642));
#1288=CARTESIAN_POINT('',(-0.0350053791932591,-0.0437529628165511,-0.00635741249849026));
#1289=CARTESIAN_POINT('',(-0.0340705801873693,-0.0444701331320393,-0.00674300176978802));
#1290=CARTESIAN_POINT('',(-0.0336095438704557,-0.0447475992649244,-0.007));
#1291=CARTESIAN_POINT('',(-0.0369999999999973,-0.03875000074707,-0.005));
#1292=CARTESIAN_POINT('',(-0.0369999999999973,2.4980018054066E-15,-0.005));
#1293=CARTESIAN_POINT('',(-0.036999999999995,0.038750000747075,-0.005));
#1294=CARTESIAN_POINT('',(-0.03000000074707,0.038750000747075,-0.005));
#1295=CARTESIAN_POINT('',(-0.0336095438704557,0.0447475992649294,-0.007));
#1296=CARTESIAN_POINT('',(-0.0340702548893521,0.044470328906606,-0.00674318310260641));
#1297=CARTESIAN_POINT('',(-0.0350029628165527,0.0437553791932624,-0.00635741249849027));
#1298=CARTESIAN_POINT('',(-0.0357201331320407,0.0428205801873724,-0.00674300176978803));
#1299=CARTESIAN_POINT('',(-0.0359975992649257,0.0423595438704587,-0.007));
#1300=CARTESIAN_POINT('',(-0.03000000074707,0.04575,-0.005));
#1301=CARTESIAN_POINT('',(2.4980018054066E-15,0.04575,-0.005));
#1302=CARTESIAN_POINT('',(-0.01628,0.04575,0.00404));
#1303=CARTESIAN_POINT('',(-0.01628,0.04575,0.000289999999999963));
#1304=CARTESIAN_POINT('',(-0.02272,0.04575,0.00404));
#1305=CARTESIAN_POINT('',(-0.02272,0.04575,0.000289999999999962));
#1306=CARTESIAN_POINT('',(2.4980018054066E-15,0.04575,0.000289999999999963));
#1307=CARTESIAN_POINT('',(-0.0195,0.06575,0.000289999999999903));
#1308=CARTESIAN_POINT('',(-0.01628,0.06575,0.000289999999999903));
#1309=CARTESIAN_POINT('',(-0.02272,0.06575,0.000289999999999903));
#1310=CARTESIAN_POINT('',(-0.01628,0.06575,0.0040399999999999));
#1311=CARTESIAN_POINT('',(-0.02272,0.06575,0.0040399999999999));
#1312=CARTESIAN_POINT('',(-0.0335000003735337,0.0422500003735375,0.002702));
#1313=CARTESIAN_POINT('',(-0.0335000003735337,0.0422500003735375,-0.006));
#1314=CARTESIAN_POINT('',(-0.0350000003735337,0.0422500003735375,-0.006));
#1315=CARTESIAN_POINT('',(-0.0335000003735337,-0.0422500003735325,0.002702));
#1316=CARTESIAN_POINT('',(-0.0335000003735337,-0.0422500003735325,-0.006));
#1317=CARTESIAN_POINT('',(-0.0350000003735337,-0.0422500003735325,-0.006));
#1318=CARTESIAN_POINT('',(0.0335000003735387,-0.0422500003735325,0.002702));
#1319=CARTESIAN_POINT('',(0.0335000003735387,-0.0422500003735325,-0.006));
#1320=CARTESIAN_POINT('',(0.0320000003735387,-0.0422500003735325,-0.006));
#1321=CARTESIAN_POINT('',(0.0335000003735387,0.0422500003735375,0.002702));
#1322=CARTESIAN_POINT('',(0.0335000003735387,0.0422500003735375,-0.006));
#1323=CARTESIAN_POINT('',(0.0320000003735387,0.0422500003735375,-0.006));
#1324=CARTESIAN_POINT('',(-0.0335000003735337,0.0422500003735375,-0.007));
#1325=CARTESIAN_POINT('',(0.0335000003735387,0.0422500003735375,-0.006));
#1326=CARTESIAN_POINT('',(0.0335000003735387,-0.0422500003735325,-0.007));
#1327=CARTESIAN_POINT('',(-0.0335000003735337,-0.0422500003735325,-0.006));
#1328=MECHANICAL_DESIGN_GEOMETRIC_PRESENTATION_REPRESENTATION('',(#749),
#1329);
#1329=(
GEOMETRIC_REPRESENTATION_CONTEXT(3)
GLOBAL_UNCERTAINTY_ASSIGNED_CONTEXT((#1330))
GLOBAL_UNIT_ASSIGNED_CONTEXT((#1333,#1332,#1331))
REPRESENTATION_CONTEXT('Bottom','TOP_LEVEL_ASSEMBLY_PART')
);
#1330=UNCERTAINTY_MEASURE_WITH_UNIT(LENGTH_MEASURE(2.E-5),#1333,
'DISTANCE_ACCURACY_VALUE','Maximum Tolerance applied to model');
#1331=(
NAMED_UNIT(*)
SI_UNIT($,.STERADIAN.)
SOLID_ANGLE_UNIT()
);
#1332=(
NAMED_UNIT(*)
PLANE_ANGLE_UNIT()
SI_UNIT($,.RADIAN.)
);
#1333=(
LENGTH_UNIT()
NAMED_UNIT(*)
SI_UNIT($,.METRE.)
);
#1334=PRODUCT_DEFINITION_SHAPE('','',#1335);
#1335=PRODUCT_DEFINITION('','',#1337,#1336);
#1336=PRODUCT_DEFINITION_CONTEXT('',#1343,'design');
#1337=PRODUCT_DEFINITION_FORMATION_WITH_SPECIFIED_SOURCE('','',#1339,
 .NOT_KNOWN.);
#1338=PRODUCT_RELATED_PRODUCT_CATEGORY('','',(#1339));
#1339=PRODUCT('Bottom','Bottom','Bottom',(#1341));
#1340=PRODUCT_CATEGORY('','');
#1341=PRODUCT_CONTEXT('',#1343,'mechanical');
#1342=APPLICATION_PROTOCOL_DEFINITION('international standard',
'ap242_managed_model_based_3d_engineering',2020,#1343);
#1343=APPLICATION_CONTEXT('managed model based 3d engineering');
ENDSEC;
END-ISO-10303-21;
