ISO-10303-21;
HEADER;
/* Generated by software containing ST-Developer
 * from STEP Tools, Inc. (www.steptools.com) 
 */
/* OPTION: using custom renumber hook */

FILE_DESCRIPTION(
/* description */ ('STEP AP242 Edition 2',
'CAx-IF Rec.Pracs.---Representation and Presentation of Product Manufa
cturing Information (PMI)---4.0---2014-10-13',
'CAx-IF Rec.Pracs.---3D Tessellated Geometry---0.4---2014-09-14','2;1',
'CAx-IF Rec.Pracs.---User Defined Attributes---1.5---2016-08-15'),
/* implementation_level */ '2;1');

FILE_NAME(
/* name */ 'Part Studio 2 - Knob',
/* time_stamp */ '2026-08-15T16:05:21Z',
/* author */ (''),
/* organization */ (''),
/* preprocessor_version */ 'ST-DEVELOPER v20',
/* originating_system */ 'ONSHAPE BY PTC INC, 1.219',
/* authorisation */ '  ');

FILE_SCHEMA (('AP242_MANAGED_MODEL_BASED_3D_ENGINEERING_MIM_LF { 1 0 10303 442 3 1 4 }'));
ENDSEC;

DATA;
#10=SHAPE_REPRESENTATION_RELATIONSHIP('','',#646,#11);
#11=ADVANCED_BREP_SHAPE_REPRESENTATION('',(#644),#1167);
#12=B_SPLINE_SURFACE_WITH_KNOTS('',3,1,((#988,#989),(#990,#991),(#992,#993),
(#994,#995),(#996,#997),(#998,#999),(#1000,#1001),(#1002,#1003),(#1004,
#1005),(#1006,#1007)),.SURF_OF_LINEAR_EXTRUSION.,.F.,.F.,.F.,(4,1,1,1,1,
1,1,4),(2,2),(-0.0103256160228939,0.115965085979968,0.24225578798283,0.368546489985691,
0.494837191988553,0.621127893991415,0.747418595994277,1.),(0.,1.),
 .UNSPECIFIED.);
#13=B_SPLINE_SURFACE_WITH_KNOTS('',1,3,((#1073,#1074,#1075,#1076,#1077,
#1078,#1079,#1080,#1081,#1082,#1083,#1084,#1085,#1086),(#1087,#1088,#1089,
#1090,#1091,#1092,#1093,#1094,#1095,#1096,#1097,#1098,#1099,#1100)),
 .RULED_SURF.,.F.,.F.,.F.,(2,2),(4,2,2,2,2,2,4),(0.,1.),(0.,0.000754483949736336,
0.00150896789947267,0.00188620987434084,0.00207483086177493,0.00226345184920901,
0.00289152037278553),.UNSPECIFIED.);
#14=B_SPLINE_SURFACE_WITH_KNOTS('',1,3,((#1114,#1115,#1116,#1117,#1118,
#1119,#1120,#1121,#1122,#1123,#1124,#1125,#1126,#1127,#1128,#1129,#1130,
#1131,#1132,#1133,#1134,#1135,#1136,#1137,#1138,#1139),(#1140,#1141,#1142,
#1143,#1144,#1145,#1146,#1147,#1148,#1149,#1150,#1151,#1152,#1153,#1154,
#1155,#1156,#1157,#1158,#1159,#1160,#1161,#1162,#1163,#1164,#1165)),
 .RULED_SURF.,.F.,.F.,.F.,(2,2),(4,2,2,2,2,2,2,2,2,2,2,2,4),(0.,1.),(0.000694547091933876,
0.00103588997080623,0.00129486246350779,0.00155383495620934,0.00207177994161245,
0.00310766991241868,0.00414355988322491,0.00621533982483737,0.00828711976644983,
0.0103588997080623,0.0124306796496747,0.0145024595912872,0.0165742395328996),
 .UNSPECIFIED.);
#15=CIRCLE('',#662,0.00334382583678838);
#16=CYLINDRICAL_SURFACE('',#661,0.00334382583678838);
#17=B_SPLINE_CURVE_WITH_KNOTS('',3,(#859,#860,#861,#862,#863),
 .UNSPECIFIED.,.F.,.F.,(4,1,4),(0.,0.5,1.),.UNSPECIFIED.);
#18=B_SPLINE_CURVE_WITH_KNOTS('',3,(#866,#867,#868,#869,#870,#871,#872,
#873,#874,#875,#876,#877,#878,#879,#880,#881,#882,#883,#884,#885,#886),
 .UNSPECIFIED.,.F.,.F.,(4,1,1,1,1,1,1,1,1,1,1,1,1,1,1,1,1,1,4),(0.,0.125,
0.25,0.375,0.5,0.5625,0.625,0.6875,0.75,0.8125,0.875,0.90625,0.921875,0.9296875,
0.9375,0.9453125,0.953125,0.96875,1.),.UNSPECIFIED.);
#19=B_SPLINE_CURVE_WITH_KNOTS('',3,(#983,#984,#985,#986),.UNSPECIFIED.,
 .F.,.F.,(4,4),(0.,0.999999023127913),.UNSPECIFIED.);
#20=B_SPLINE_CURVE_WITH_KNOTS('',3,(#1008,#1009,#1010,#1011,#1012,#1013,
#1014,#1015,#1016,#1017),.UNSPECIFIED.,.F.,.F.,(4,1,1,1,1,1,1,4),(0.,0.125,
0.25,0.375,0.5,0.625,0.75,1.),.UNSPECIFIED.);
#21=B_SPLINE_CURVE_WITH_KNOTS('',3,(#1018,#1019,#1020,#1021,#1022,#1023,
#1024,#1025,#1026,#1027,#1028,#1029,#1030,#1031),.UNSPECIFIED.,.F.,.F.,
(4,3,1,1,1,1,1,1,1,4),(-0.0103256160228939,0.,0.125,0.25,0.375,0.5,0.625,
0.75,0.875,1.),.UNSPECIFIED.);
#22=B_SPLINE_CURVE_WITH_KNOTS('',3,(#1101,#1102,#1103,#1104),
 .UNSPECIFIED.,.F.,.F.,(4,4),(0.,1.),.UNSPECIFIED.);
#23=B_SPLINE_CURVE_WITH_KNOTS('',3,(#1105,#1106,#1107,#1108),
 .UNSPECIFIED.,.F.,.F.,(4,4),(0.,1.),.UNSPECIFIED.);
#24=B_SPLINE_CURVE_WITH_KNOTS('',3,(#1110,#1111,#1112,#1113),
 .UNSPECIFIED.,.F.,.F.,(4,4),(0.,1.),.UNSPECIFIED.);
#25=ORIENTED_EDGE('',*,*,#195,.T.);
#26=ORIENTED_EDGE('',*,*,#196,.T.);
#27=ORIENTED_EDGE('',*,*,#197,.T.);
#28=ORIENTED_EDGE('',*,*,#198,.T.);
#29=ORIENTED_EDGE('',*,*,#199,.T.);
#30=ORIENTED_EDGE('',*,*,#200,.T.);
#31=ORIENTED_EDGE('',*,*,#201,.T.);
#32=ORIENTED_EDGE('',*,*,#202,.T.);
#33=ORIENTED_EDGE('',*,*,#203,.T.);
#34=ORIENTED_EDGE('',*,*,#204,.T.);
#35=ORIENTED_EDGE('',*,*,#205,.T.);
#36=ORIENTED_EDGE('',*,*,#206,.T.);
#37=ORIENTED_EDGE('',*,*,#207,.T.);
#38=ORIENTED_EDGE('',*,*,#208,.T.);
#39=ORIENTED_EDGE('',*,*,#209,.T.);
#40=ORIENTED_EDGE('',*,*,#210,.T.);
#41=ORIENTED_EDGE('',*,*,#211,.T.);
#42=ORIENTED_EDGE('',*,*,#212,.T.);
#43=ORIENTED_EDGE('',*,*,#213,.T.);
#44=ORIENTED_EDGE('',*,*,#214,.T.);
#45=ORIENTED_EDGE('',*,*,#215,.T.);
#46=ORIENTED_EDGE('',*,*,#216,.T.);
#47=ORIENTED_EDGE('',*,*,#217,.T.);
#48=ORIENTED_EDGE('',*,*,#218,.F.);
#49=ORIENTED_EDGE('',*,*,#219,.T.);
#50=ORIENTED_EDGE('',*,*,#220,.T.);
#51=ORIENTED_EDGE('',*,*,#221,.F.);
#52=ORIENTED_EDGE('',*,*,#222,.F.);
#53=ORIENTED_EDGE('',*,*,#223,.T.);
#54=ORIENTED_EDGE('',*,*,#224,.T.);
#55=ORIENTED_EDGE('',*,*,#225,.T.);
#56=ORIENTED_EDGE('',*,*,#226,.F.);
#57=ORIENTED_EDGE('',*,*,#227,.T.);
#58=ORIENTED_EDGE('',*,*,#222,.T.);
#59=ORIENTED_EDGE('',*,*,#228,.T.);
#60=ORIENTED_EDGE('',*,*,#229,.F.);
#61=ORIENTED_EDGE('',*,*,#230,.T.);
#62=ORIENTED_EDGE('',*,*,#226,.T.);
#63=ORIENTED_EDGE('',*,*,#231,.T.);
#64=ORIENTED_EDGE('',*,*,#232,.F.);
#65=ORIENTED_EDGE('',*,*,#233,.T.);
#66=ORIENTED_EDGE('',*,*,#229,.T.);
#67=ORIENTED_EDGE('',*,*,#234,.T.);
#68=ORIENTED_EDGE('',*,*,#235,.F.);
#69=ORIENTED_EDGE('',*,*,#236,.T.);
#70=ORIENTED_EDGE('',*,*,#232,.T.);
#71=ORIENTED_EDGE('',*,*,#237,.T.);
#72=ORIENTED_EDGE('',*,*,#238,.F.);
#73=ORIENTED_EDGE('',*,*,#239,.T.);
#74=ORIENTED_EDGE('',*,*,#235,.T.);
#75=ORIENTED_EDGE('',*,*,#240,.T.);
#76=ORIENTED_EDGE('',*,*,#241,.F.);
#77=ORIENTED_EDGE('',*,*,#242,.T.);
#78=ORIENTED_EDGE('',*,*,#238,.T.);
#79=ORIENTED_EDGE('',*,*,#243,.T.);
#80=ORIENTED_EDGE('',*,*,#244,.F.);
#81=ORIENTED_EDGE('',*,*,#245,.T.);
#82=ORIENTED_EDGE('',*,*,#241,.T.);
#83=ORIENTED_EDGE('',*,*,#246,.T.);
#84=ORIENTED_EDGE('',*,*,#247,.F.);
#85=ORIENTED_EDGE('',*,*,#248,.T.);
#86=ORIENTED_EDGE('',*,*,#244,.T.);
#87=ORIENTED_EDGE('',*,*,#249,.T.);
#88=ORIENTED_EDGE('',*,*,#224,.F.);
#89=ORIENTED_EDGE('',*,*,#250,.T.);
#90=ORIENTED_EDGE('',*,*,#247,.T.);
#91=ORIENTED_EDGE('',*,*,#251,.T.);
#92=ORIENTED_EDGE('',*,*,#252,.F.);
#93=ORIENTED_EDGE('',*,*,#253,.T.);
#94=ORIENTED_EDGE('',*,*,#218,.T.);
#95=ORIENTED_EDGE('',*,*,#254,.F.);
#96=ORIENTED_EDGE('',*,*,#220,.F.);
#97=ORIENTED_EDGE('',*,*,#255,.T.);
#98=ORIENTED_EDGE('',*,*,#252,.T.);
#99=ORIENTED_EDGE('',*,*,#256,.F.);
#100=ORIENTED_EDGE('',*,*,#254,.T.);
#101=ORIENTED_EDGE('',*,*,#221,.T.);
#102=ORIENTED_EDGE('',*,*,#256,.T.);
#103=ORIENTED_EDGE('',*,*,#257,.F.);
#104=ORIENTED_EDGE('',*,*,#236,.F.);
#105=ORIENTED_EDGE('',*,*,#258,.F.);
#106=ORIENTED_EDGE('',*,*,#201,.F.);
#107=ORIENTED_EDGE('',*,*,#258,.T.);
#108=ORIENTED_EDGE('',*,*,#239,.F.);
#109=ORIENTED_EDGE('',*,*,#259,.F.);
#110=ORIENTED_EDGE('',*,*,#202,.F.);
#111=ORIENTED_EDGE('',*,*,#257,.T.);
#112=ORIENTED_EDGE('',*,*,#200,.F.);
#113=ORIENTED_EDGE('',*,*,#260,.F.);
#114=ORIENTED_EDGE('',*,*,#233,.F.);
#115=ORIENTED_EDGE('',*,*,#259,.T.);
#116=ORIENTED_EDGE('',*,*,#242,.F.);
#117=ORIENTED_EDGE('',*,*,#261,.F.);
#118=ORIENTED_EDGE('',*,*,#203,.F.);
#119=ORIENTED_EDGE('',*,*,#260,.T.);
#120=ORIENTED_EDGE('',*,*,#199,.F.);
#121=ORIENTED_EDGE('',*,*,#262,.F.);
#122=ORIENTED_EDGE('',*,*,#230,.F.);
#123=ORIENTED_EDGE('',*,*,#261,.T.);
#124=ORIENTED_EDGE('',*,*,#245,.F.);
#125=ORIENTED_EDGE('',*,*,#263,.F.);
#126=ORIENTED_EDGE('',*,*,#204,.F.);
#127=ORIENTED_EDGE('',*,*,#262,.T.);
#128=ORIENTED_EDGE('',*,*,#198,.F.);
#129=ORIENTED_EDGE('',*,*,#264,.F.);
#130=ORIENTED_EDGE('',*,*,#227,.F.);
#131=ORIENTED_EDGE('',*,*,#263,.T.);
#132=ORIENTED_EDGE('',*,*,#248,.F.);
#133=ORIENTED_EDGE('',*,*,#265,.F.);
#134=ORIENTED_EDGE('',*,*,#195,.F.);
#135=ORIENTED_EDGE('',*,*,#264,.T.);
#136=ORIENTED_EDGE('',*,*,#197,.F.);
#137=ORIENTED_EDGE('',*,*,#266,.F.);
#138=ORIENTED_EDGE('',*,*,#223,.F.);
#139=ORIENTED_EDGE('',*,*,#265,.T.);
#140=ORIENTED_EDGE('',*,*,#250,.F.);
#141=ORIENTED_EDGE('',*,*,#266,.T.);
#142=ORIENTED_EDGE('',*,*,#196,.F.);
#143=ORIENTED_EDGE('',*,*,#267,.F.);
#144=ORIENTED_EDGE('',*,*,#237,.F.);
#145=ORIENTED_EDGE('',*,*,#268,.F.);
#146=ORIENTED_EDGE('',*,*,#214,.F.);
#147=ORIENTED_EDGE('',*,*,#268,.T.);
#148=ORIENTED_EDGE('',*,*,#234,.F.);
#149=ORIENTED_EDGE('',*,*,#269,.F.);
#150=ORIENTED_EDGE('',*,*,#215,.F.);
#151=ORIENTED_EDGE('',*,*,#267,.T.);
#152=ORIENTED_EDGE('',*,*,#213,.F.);
#153=ORIENTED_EDGE('',*,*,#270,.F.);
#154=ORIENTED_EDGE('',*,*,#240,.F.);
#155=ORIENTED_EDGE('',*,*,#269,.T.);
#156=ORIENTED_EDGE('',*,*,#231,.F.);
#157=ORIENTED_EDGE('',*,*,#271,.F.);
#158=ORIENTED_EDGE('',*,*,#216,.F.);
#159=ORIENTED_EDGE('',*,*,#270,.T.);
#160=ORIENTED_EDGE('',*,*,#212,.F.);
#161=ORIENTED_EDGE('',*,*,#272,.F.);
#162=ORIENTED_EDGE('',*,*,#243,.F.);
#163=ORIENTED_EDGE('',*,*,#271,.T.);
#164=ORIENTED_EDGE('',*,*,#228,.F.);
#165=ORIENTED_EDGE('',*,*,#273,.F.);
#166=ORIENTED_EDGE('',*,*,#217,.F.);
#167=ORIENTED_EDGE('',*,*,#272,.T.);
#168=ORIENTED_EDGE('',*,*,#211,.F.);
#169=ORIENTED_EDGE('',*,*,#274,.F.);
#170=ORIENTED_EDGE('',*,*,#246,.F.);
#171=ORIENTED_EDGE('',*,*,#273,.T.);
#172=ORIENTED_EDGE('',*,*,#225,.F.);
#173=ORIENTED_EDGE('',*,*,#275,.F.);
#174=ORIENTED_EDGE('',*,*,#208,.F.);
#175=ORIENTED_EDGE('',*,*,#274,.T.);
#176=ORIENTED_EDGE('',*,*,#210,.F.);
#177=ORIENTED_EDGE('',*,*,#276,.F.);
#178=ORIENTED_EDGE('',*,*,#249,.F.);
#179=ORIENTED_EDGE('',*,*,#275,.T.);
#180=ORIENTED_EDGE('',*,*,#251,.F.);
#181=ORIENTED_EDGE('',*,*,#276,.T.);
#182=ORIENTED_EDGE('',*,*,#209,.F.);
#183=ORIENTED_EDGE('',*,*,#277,.F.);
#184=ORIENTED_EDGE('',*,*,#205,.F.);
#185=ORIENTED_EDGE('',*,*,#278,.F.);
#186=ORIENTED_EDGE('',*,*,#253,.F.);
#187=ORIENTED_EDGE('',*,*,#278,.T.);
#188=ORIENTED_EDGE('',*,*,#207,.F.);
#189=ORIENTED_EDGE('',*,*,#279,.F.);
#190=ORIENTED_EDGE('',*,*,#219,.F.);
#191=ORIENTED_EDGE('',*,*,#277,.T.);
#192=ORIENTED_EDGE('',*,*,#255,.F.);
#193=ORIENTED_EDGE('',*,*,#279,.T.);
#194=ORIENTED_EDGE('',*,*,#206,.F.);
#195=EDGE_CURVE('',#280,#281,#329,.T.);
#196=EDGE_CURVE('',#281,#282,#330,.T.);
#197=EDGE_CURVE('',#282,#283,#331,.T.);
#198=EDGE_CURVE('',#283,#284,#332,.T.);
#199=EDGE_CURVE('',#284,#285,#333,.T.);
#200=EDGE_CURVE('',#285,#286,#334,.T.);
#201=EDGE_CURVE('',#286,#287,#335,.T.);
#202=EDGE_CURVE('',#287,#288,#336,.T.);
#203=EDGE_CURVE('',#288,#289,#337,.T.);
#204=EDGE_CURVE('',#289,#280,#338,.T.);
#205=EDGE_CURVE('',#290,#291,#17,.T.);
#206=EDGE_CURVE('',#291,#292,#18,.T.);
#207=EDGE_CURVE('',#292,#290,#339,.T.);
#208=EDGE_CURVE('',#293,#294,#340,.T.);
#209=EDGE_CURVE('',#294,#295,#341,.T.);
#210=EDGE_CURVE('',#295,#296,#342,.T.);
#211=EDGE_CURVE('',#296,#297,#343,.T.);
#212=EDGE_CURVE('',#297,#298,#344,.T.);
#213=EDGE_CURVE('',#298,#299,#345,.T.);
#214=EDGE_CURVE('',#299,#300,#346,.T.);
#215=EDGE_CURVE('',#300,#301,#347,.T.);
#216=EDGE_CURVE('',#301,#302,#348,.T.);
#217=EDGE_CURVE('',#302,#293,#349,.T.);
#218=EDGE_CURVE('',#303,#304,#350,.T.);
#219=EDGE_CURVE('',#303,#305,#351,.T.);
#220=EDGE_CURVE('',#305,#306,#352,.T.);
#221=EDGE_CURVE('',#304,#306,#353,.T.);
#222=EDGE_CURVE('',#307,#308,#354,.T.);
#223=EDGE_CURVE('',#307,#309,#355,.T.);
#224=EDGE_CURVE('',#309,#310,#356,.T.);
#225=EDGE_CURVE('',#310,#308,#357,.T.);
#226=EDGE_CURVE('',#311,#312,#358,.T.);
#227=EDGE_CURVE('',#311,#307,#359,.T.);
#228=EDGE_CURVE('',#308,#312,#360,.T.);
#229=EDGE_CURVE('',#313,#314,#361,.T.);
#230=EDGE_CURVE('',#313,#311,#362,.T.);
#231=EDGE_CURVE('',#312,#314,#363,.T.);
#232=EDGE_CURVE('',#315,#316,#364,.T.);
#233=EDGE_CURVE('',#315,#313,#365,.T.);
#234=EDGE_CURVE('',#314,#316,#366,.T.);
#235=EDGE_CURVE('',#317,#318,#367,.T.);
#236=EDGE_CURVE('',#317,#315,#368,.T.);
#237=EDGE_CURVE('',#316,#318,#369,.T.);
#238=EDGE_CURVE('',#319,#320,#370,.T.);
#239=EDGE_CURVE('',#319,#317,#371,.T.);
#240=EDGE_CURVE('',#318,#320,#372,.T.);
#241=EDGE_CURVE('',#321,#322,#373,.T.);
#242=EDGE_CURVE('',#321,#319,#374,.T.);
#243=EDGE_CURVE('',#320,#322,#375,.T.);
#244=EDGE_CURVE('',#323,#324,#376,.T.);
#245=EDGE_CURVE('',#323,#321,#377,.T.);
#246=EDGE_CURVE('',#322,#324,#378,.T.);
#247=EDGE_CURVE('',#325,#326,#379,.T.);
#248=EDGE_CURVE('',#325,#323,#380,.T.);
#249=EDGE_CURVE('',#324,#326,#381,.T.);
#250=EDGE_CURVE('',#309,#325,#382,.T.);
#251=EDGE_CURVE('',#326,#310,#383,.T.);
#252=EDGE_CURVE('',#327,#328,#384,.T.);
#253=EDGE_CURVE('',#327,#303,#19,.T.);
#254=EDGE_CURVE('',#328,#304,#15,.F.);
#255=EDGE_CURVE('',#305,#327,#20,.T.);
#256=EDGE_CURVE('',#306,#328,#21,.T.);
#257=EDGE_CURVE('',#315,#286,#385,.T.);
#258=EDGE_CURVE('',#287,#317,#386,.F.);
#259=EDGE_CURVE('',#288,#319,#387,.F.);
#260=EDGE_CURVE('',#313,#285,#388,.T.);
#261=EDGE_CURVE('',#289,#321,#389,.F.);
#262=EDGE_CURVE('',#311,#284,#390,.T.);
#263=EDGE_CURVE('',#280,#323,#391,.F.);
#264=EDGE_CURVE('',#307,#283,#392,.T.);
#265=EDGE_CURVE('',#281,#325,#393,.F.);
#266=EDGE_CURVE('',#309,#282,#394,.F.);
#267=EDGE_CURVE('',#318,#299,#395,.T.);
#268=EDGE_CURVE('',#300,#316,#396,.F.);
#269=EDGE_CURVE('',#301,#314,#397,.F.);
#270=EDGE_CURVE('',#320,#298,#398,.T.);
#271=EDGE_CURVE('',#302,#312,#399,.F.);
#272=EDGE_CURVE('',#322,#297,#400,.T.);
#273=EDGE_CURVE('',#293,#308,#401,.F.);
#274=EDGE_CURVE('',#324,#296,#402,.T.);
#275=EDGE_CURVE('',#294,#310,#403,.F.);
#276=EDGE_CURVE('',#326,#295,#404,.F.);
#277=EDGE_CURVE('',#291,#327,#22,.F.);
#278=EDGE_CURVE('',#303,#290,#23,.T.);
#279=EDGE_CURVE('',#305,#292,#24,.F.);
#280=VERTEX_POINT('',#840);
#281=VERTEX_POINT('',#841);
#282=VERTEX_POINT('',#843);
#283=VERTEX_POINT('',#845);
#284=VERTEX_POINT('',#847);
#285=VERTEX_POINT('',#849);
#286=VERTEX_POINT('',#851);
#287=VERTEX_POINT('',#853);
#288=VERTEX_POINT('',#855);
#289=VERTEX_POINT('',#857);
#290=VERTEX_POINT('',#864);
#291=VERTEX_POINT('',#865);
#292=VERTEX_POINT('',#887);
#293=VERTEX_POINT('',#891);
#294=VERTEX_POINT('',#892);
#295=VERTEX_POINT('',#894);
#296=VERTEX_POINT('',#896);
#297=VERTEX_POINT('',#898);
#298=VERTEX_POINT('',#900);
#299=VERTEX_POINT('',#902);
#300=VERTEX_POINT('',#904);
#301=VERTEX_POINT('',#906);
#302=VERTEX_POINT('',#908);
#303=VERTEX_POINT('',#912);
#304=VERTEX_POINT('',#913);
#305=VERTEX_POINT('',#915);
#306=VERTEX_POINT('',#917);
#307=VERTEX_POINT('',#921);
#308=VERTEX_POINT('',#922);
#309=VERTEX_POINT('',#924);
#310=VERTEX_POINT('',#926);
#311=VERTEX_POINT('',#930);
#312=VERTEX_POINT('',#931);
#313=VERTEX_POINT('',#936);
#314=VERTEX_POINT('',#937);
#315=VERTEX_POINT('',#942);
#316=VERTEX_POINT('',#943);
#317=VERTEX_POINT('',#948);
#318=VERTEX_POINT('',#949);
#319=VERTEX_POINT('',#954);
#320=VERTEX_POINT('',#955);
#321=VERTEX_POINT('',#960);
#322=VERTEX_POINT('',#961);
#323=VERTEX_POINT('',#966);
#324=VERTEX_POINT('',#967);
#325=VERTEX_POINT('',#972);
#326=VERTEX_POINT('',#973);
#327=VERTEX_POINT('',#981);
#328=VERTEX_POINT('',#982);
#329=LINE('',#839,#405);
#330=LINE('',#842,#406);
#331=LINE('',#844,#407);
#332=LINE('',#846,#408);
#333=LINE('',#848,#409);
#334=LINE('',#850,#410);
#335=LINE('',#852,#411);
#336=LINE('',#854,#412);
#337=LINE('',#856,#413);
#338=LINE('',#858,#414);
#339=LINE('',#888,#415);
#340=LINE('',#890,#416);
#341=LINE('',#893,#417);
#342=LINE('',#895,#418);
#343=LINE('',#897,#419);
#344=LINE('',#899,#420);
#345=LINE('',#901,#421);
#346=LINE('',#903,#422);
#347=LINE('',#905,#423);
#348=LINE('',#907,#424);
#349=LINE('',#909,#425);
#350=LINE('',#911,#426);
#351=LINE('',#914,#427);
#352=LINE('',#916,#428);
#353=LINE('',#918,#429);
#354=LINE('',#920,#430);
#355=LINE('',#923,#431);
#356=LINE('',#925,#432);
#357=LINE('',#927,#433);
#358=LINE('',#929,#434);
#359=LINE('',#932,#435);
#360=LINE('',#933,#436);
#361=LINE('',#935,#437);
#362=LINE('',#938,#438);
#363=LINE('',#939,#439);
#364=LINE('',#941,#440);
#365=LINE('',#944,#441);
#366=LINE('',#945,#442);
#367=LINE('',#947,#443);
#368=LINE('',#950,#444);
#369=LINE('',#951,#445);
#370=LINE('',#953,#446);
#371=LINE('',#956,#447);
#372=LINE('',#957,#448);
#373=LINE('',#959,#449);
#374=LINE('',#962,#450);
#375=LINE('',#963,#451);
#376=LINE('',#965,#452);
#377=LINE('',#968,#453);
#378=LINE('',#969,#454);
#379=LINE('',#971,#455);
#380=LINE('',#974,#456);
#381=LINE('',#975,#457);
#382=LINE('',#977,#458);
#383=LINE('',#978,#459);
#384=LINE('',#980,#460);
#385=LINE('',#1034,#461);
#386=LINE('',#1035,#462);
#387=LINE('',#1037,#463);
#388=LINE('',#1039,#464);
#389=LINE('',#1041,#465);
#390=LINE('',#1043,#466);
#391=LINE('',#1045,#467);
#392=LINE('',#1047,#468);
#393=LINE('',#1049,#469);
#394=LINE('',#1051,#470);
#395=LINE('',#1054,#471);
#396=LINE('',#1055,#472);
#397=LINE('',#1057,#473);
#398=LINE('',#1059,#474);
#399=LINE('',#1061,#475);
#400=LINE('',#1063,#476);
#401=LINE('',#1065,#477);
#402=LINE('',#1067,#478);
#403=LINE('',#1069,#479);
#404=LINE('',#1071,#480);
#405=VECTOR('',#689,1.);
#406=VECTOR('',#690,1.);
#407=VECTOR('',#691,1.);
#408=VECTOR('',#692,1.);
#409=VECTOR('',#693,1.);
#410=VECTOR('',#694,1.);
#411=VECTOR('',#695,1.);
#412=VECTOR('',#696,1.);
#413=VECTOR('',#697,1.);
#414=VECTOR('',#698,1.);
#415=VECTOR('',#699,1.);
#416=VECTOR('',#702,1.);
#417=VECTOR('',#703,1.);
#418=VECTOR('',#704,1.);
#419=VECTOR('',#705,1.);
#420=VECTOR('',#706,1.);
#421=VECTOR('',#707,1.);
#422=VECTOR('',#708,1.);
#423=VECTOR('',#709,1.);
#424=VECTOR('',#710,1.);
#425=VECTOR('',#711,1.);
#426=VECTOR('',#714,1.);
#427=VECTOR('',#715,1.);
#428=VECTOR('',#716,1.);
#429=VECTOR('',#717,1.);
#430=VECTOR('',#720,1.);
#431=VECTOR('',#721,1.);
#432=VECTOR('',#722,1.);
#433=VECTOR('',#723,1.);
#434=VECTOR('',#726,1.);
#435=VECTOR('',#727,1.);
#436=VECTOR('',#728,1.);
#437=VECTOR('',#731,1.);
#438=VECTOR('',#732,1.);
#439=VECTOR('',#733,1.);
#440=VECTOR('',#736,1.);
#441=VECTOR('',#737,1.);
#442=VECTOR('',#738,1.);
#443=VECTOR('',#741,1.);
#444=VECTOR('',#742,1.);
#445=VECTOR('',#743,1.);
#446=VECTOR('',#746,1.);
#447=VECTOR('',#747,1.);
#448=VECTOR('',#748,1.);
#449=VECTOR('',#751,1.);
#450=VECTOR('',#752,1.);
#451=VECTOR('',#753,1.);
#452=VECTOR('',#756,1.);
#453=VECTOR('',#757,1.);
#454=VECTOR('',#758,1.);
#455=VECTOR('',#761,1.);
#456=VECTOR('',#762,1.);
#457=VECTOR('',#763,1.);
#458=VECTOR('',#766,1.);
#459=VECTOR('',#767,1.);
#460=VECTOR('',#770,1.);
#461=VECTOR('',#777,1.);
#462=VECTOR('',#778,1.);
#463=VECTOR('',#781,1.);
#464=VECTOR('',#784,1.);
#465=VECTOR('',#787,1.);
#466=VECTOR('',#790,1.);
#467=VECTOR('',#793,1.);
#468=VECTOR('',#796,1.);
#469=VECTOR('',#799,1.);
#470=VECTOR('',#802,1.);
#471=VECTOR('',#807,1.);
#472=VECTOR('',#808,1.);
#473=VECTOR('',#811,1.);
#474=VECTOR('',#814,1.);
#475=VECTOR('',#817,1.);
#476=VECTOR('',#820,1.);
#477=VECTOR('',#823,1.);
#478=VECTOR('',#826,1.);
#479=VECTOR('',#829,1.);
#480=VECTOR('',#832,1.);
#481=EDGE_LOOP('',(#25,#26,#27,#28,#29,#30,#31,#32,#33,#34));
#482=EDGE_LOOP('',(#35,#36,#37));
#483=EDGE_LOOP('',(#38,#39,#40,#41,#42,#43,#44,#45,#46,#47));
#484=EDGE_LOOP('',(#48,#49,#50,#51));
#485=EDGE_LOOP('',(#52,#53,#54,#55));
#486=EDGE_LOOP('',(#56,#57,#58,#59));
#487=EDGE_LOOP('',(#60,#61,#62,#63));
#488=EDGE_LOOP('',(#64,#65,#66,#67));
#489=EDGE_LOOP('',(#68,#69,#70,#71));
#490=EDGE_LOOP('',(#72,#73,#74,#75));
#491=EDGE_LOOP('',(#76,#77,#78,#79));
#492=EDGE_LOOP('',(#80,#81,#82,#83));
#493=EDGE_LOOP('',(#84,#85,#86,#87));
#494=EDGE_LOOP('',(#88,#89,#90,#91));
#495=EDGE_LOOP('',(#92,#93,#94,#95));
#496=EDGE_LOOP('',(#96,#97,#98,#99));
#497=EDGE_LOOP('',(#100,#101,#102));
#498=EDGE_LOOP('',(#103,#104,#105,#106));
#499=EDGE_LOOP('',(#107,#108,#109,#110));
#500=EDGE_LOOP('',(#111,#112,#113,#114));
#501=EDGE_LOOP('',(#115,#116,#117,#118));
#502=EDGE_LOOP('',(#119,#120,#121,#122));
#503=EDGE_LOOP('',(#123,#124,#125,#126));
#504=EDGE_LOOP('',(#127,#128,#129,#130));
#505=EDGE_LOOP('',(#131,#132,#133,#134));
#506=EDGE_LOOP('',(#135,#136,#137,#138));
#507=EDGE_LOOP('',(#139,#140,#141,#142));
#508=EDGE_LOOP('',(#143,#144,#145,#146));
#509=EDGE_LOOP('',(#147,#148,#149,#150));
#510=EDGE_LOOP('',(#151,#152,#153,#154));
#511=EDGE_LOOP('',(#155,#156,#157,#158));
#512=EDGE_LOOP('',(#159,#160,#161,#162));
#513=EDGE_LOOP('',(#163,#164,#165,#166));
#514=EDGE_LOOP('',(#167,#168,#169,#170));
#515=EDGE_LOOP('',(#171,#172,#173,#174));
#516=EDGE_LOOP('',(#175,#176,#177,#178));
#517=EDGE_LOOP('',(#179,#180,#181,#182));
#518=EDGE_LOOP('',(#183,#184,#185,#186));
#519=EDGE_LOOP('',(#187,#188,#189,#190));
#520=EDGE_LOOP('',(#191,#192,#193,#194));
#521=FACE_BOUND('',#481,.T.);
#522=FACE_BOUND('',#482,.T.);
#523=FACE_BOUND('',#483,.T.);
#524=FACE_BOUND('',#484,.T.);
#525=FACE_BOUND('',#485,.T.);
#526=FACE_BOUND('',#486,.T.);
#527=FACE_BOUND('',#487,.T.);
#528=FACE_BOUND('',#488,.T.);
#529=FACE_BOUND('',#489,.T.);
#530=FACE_BOUND('',#490,.T.);
#531=FACE_BOUND('',#491,.T.);
#532=FACE_BOUND('',#492,.T.);
#533=FACE_BOUND('',#493,.T.);
#534=FACE_BOUND('',#494,.T.);
#535=FACE_BOUND('',#495,.T.);
#536=FACE_BOUND('',#496,.T.);
#537=FACE_BOUND('',#497,.T.);
#538=FACE_BOUND('',#498,.T.);
#539=FACE_BOUND('',#499,.T.);
#540=FACE_BOUND('',#500,.T.);
#541=FACE_BOUND('',#501,.T.);
#542=FACE_BOUND('',#502,.T.);
#543=FACE_BOUND('',#503,.T.);
#544=FACE_BOUND('',#504,.T.);
#545=FACE_BOUND('',#505,.T.);
#546=FACE_BOUND('',#506,.T.);
#547=FACE_BOUND('',#507,.T.);
#548=FACE_BOUND('',#508,.T.);
#549=FACE_BOUND('',#509,.T.);
#550=FACE_BOUND('',#510,.T.);
#551=FACE_BOUND('',#511,.T.);
#552=FACE_BOUND('',#512,.T.);
#553=FACE_BOUND('',#513,.T.);
#554=FACE_BOUND('',#514,.T.);
#555=FACE_BOUND('',#515,.T.);
#556=FACE_BOUND('',#516,.T.);
#557=FACE_BOUND('',#517,.T.);
#558=FACE_BOUND('',#518,.T.);
#559=FACE_BOUND('',#519,.T.);
#560=FACE_BOUND('',#520,.T.);
#561=PLANE('',#648);
#562=PLANE('',#649);
#563=PLANE('',#650);
#564=PLANE('',#651);
#565=PLANE('',#652);
#566=PLANE('',#653);
#567=PLANE('',#654);
#568=PLANE('',#655);
#569=PLANE('',#656);
#570=PLANE('',#657);
#571=PLANE('',#658);
#572=PLANE('',#659);
#573=PLANE('',#660);
#574=PLANE('',#663);
#575=PLANE('',#664);
#576=PLANE('',#665);
#577=PLANE('',#666);
#578=PLANE('',#667);
#579=PLANE('',#668);
#580=PLANE('',#669);
#581=PLANE('',#670);
#582=PLANE('',#671);
#583=PLANE('',#672);
#584=PLANE('',#673);
#585=PLANE('',#674);
#586=PLANE('',#675);
#587=PLANE('',#676);
#588=PLANE('',#677);
#589=PLANE('',#678);
#590=PLANE('',#679);
#591=PLANE('',#680);
#592=PLANE('',#681);
#593=PLANE('',#682);
#594=PLANE('',#683);
#595=PLANE('',#684);
#596=ADVANCED_FACE('',(#521,#522),#561,.F.);
#597=ADVANCED_FACE('',(#523),#562,.T.);
#598=ADVANCED_FACE('',(#524),#563,.T.);
#599=ADVANCED_FACE('',(#525),#564,.T.);
#600=ADVANCED_FACE('',(#526),#565,.T.);
#601=ADVANCED_FACE('',(#527),#566,.T.);
#602=ADVANCED_FACE('',(#528),#567,.T.);
#603=ADVANCED_FACE('',(#529),#568,.T.);
#604=ADVANCED_FACE('',(#530),#569,.T.);
#605=ADVANCED_FACE('',(#531),#570,.T.);
#606=ADVANCED_FACE('',(#532),#571,.T.);
#607=ADVANCED_FACE('',(#533),#572,.T.);
#608=ADVANCED_FACE('',(#534),#573,.T.);
#609=ADVANCED_FACE('',(#535),#16,.F.);
#610=ADVANCED_FACE('',(#536),#12,.T.);
#611=ADVANCED_FACE('',(#537),#574,.F.);
#612=ADVANCED_FACE('',(#538),#575,.T.);
#613=ADVANCED_FACE('',(#539),#576,.T.);
#614=ADVANCED_FACE('',(#540),#577,.T.);
#615=ADVANCED_FACE('',(#541),#578,.T.);
#616=ADVANCED_FACE('',(#542),#579,.T.);
#617=ADVANCED_FACE('',(#543),#580,.T.);
#618=ADVANCED_FACE('',(#544),#581,.T.);
#619=ADVANCED_FACE('',(#545),#582,.T.);
#620=ADVANCED_FACE('',(#546),#583,.T.);
#621=ADVANCED_FACE('',(#547),#584,.T.);
#622=ADVANCED_FACE('',(#548),#585,.F.);
#623=ADVANCED_FACE('',(#549),#586,.F.);
#624=ADVANCED_FACE('',(#550),#587,.F.);
#625=ADVANCED_FACE('',(#551),#588,.F.);
#626=ADVANCED_FACE('',(#552),#589,.F.);
#627=ADVANCED_FACE('',(#553),#590,.F.);
#628=ADVANCED_FACE('',(#554),#591,.F.);
#629=ADVANCED_FACE('',(#555),#592,.F.);
#630=ADVANCED_FACE('',(#556),#593,.F.);
#631=ADVANCED_FACE('',(#557),#594,.F.);
#632=ADVANCED_FACE('',(#558),#13,.T.);
#633=ADVANCED_FACE('',(#559),#595,.T.);
#634=ADVANCED_FACE('',(#560),#14,.T.);
#635=CLOSED_SHELL('',(#596,#597,#598,#599,#600,#601,#602,#603,#604,#605,
#606,#607,#608,#609,#610,#611,#612,#613,#614,#615,#616,#617,#618,#619,#620,
#621,#622,#623,#624,#625,#626,#627,#628,#629,#630,#631,#632,#633,#634));
#636=STYLED_ITEM('',(#637),#644);
#637=PRESENTATION_STYLE_ASSIGNMENT((#638));
#638=SURFACE_STYLE_USAGE(.BOTH.,#639);
#639=SURFACE_SIDE_STYLE('',(#640));
#640=SURFACE_STYLE_FILL_AREA(#641);
#641=FILL_AREA_STYLE('',(#642));
#642=FILL_AREA_STYLE_COLOUR('',#643);
#643=COLOUR_RGB('',0.615686274509804,0.811764705882353,0.929411764705882);
#644=MANIFOLD_SOLID_BREP('Knob',#635);
#645=SHAPE_DEFINITION_REPRESENTATION(#1172,#646);
#646=SHAPE_REPRESENTATION('Knob',(#647),#1167);
#647=AXIS2_PLACEMENT_3D('',#837,#685,#686);
#648=AXIS2_PLACEMENT_3D('',#838,#687,#688);
#649=AXIS2_PLACEMENT_3D('',#889,#700,#701);
#650=AXIS2_PLACEMENT_3D('',#910,#712,#713);
#651=AXIS2_PLACEMENT_3D('',#919,#718,#719);
#652=AXIS2_PLACEMENT_3D('',#928,#724,#725);
#653=AXIS2_PLACEMENT_3D('',#934,#729,#730);
#654=AXIS2_PLACEMENT_3D('',#940,#734,#735);
#655=AXIS2_PLACEMENT_3D('',#946,#739,#740);
#656=AXIS2_PLACEMENT_3D('',#952,#744,#745);
#657=AXIS2_PLACEMENT_3D('',#958,#749,#750);
#658=AXIS2_PLACEMENT_3D('',#964,#754,#755);
#659=AXIS2_PLACEMENT_3D('',#970,#759,#760);
#660=AXIS2_PLACEMENT_3D('',#976,#764,#765);
#661=AXIS2_PLACEMENT_3D('',#979,#768,#769);
#662=AXIS2_PLACEMENT_3D('',#987,#771,#772);
#663=AXIS2_PLACEMENT_3D('',#1032,#773,#774);
#664=AXIS2_PLACEMENT_3D('',#1033,#775,#776);
#665=AXIS2_PLACEMENT_3D('',#1036,#779,#780);
#666=AXIS2_PLACEMENT_3D('',#1038,#782,#783);
#667=AXIS2_PLACEMENT_3D('',#1040,#785,#786);
#668=AXIS2_PLACEMENT_3D('',#1042,#788,#789);
#669=AXIS2_PLACEMENT_3D('',#1044,#791,#792);
#670=AXIS2_PLACEMENT_3D('',#1046,#794,#795);
#671=AXIS2_PLACEMENT_3D('',#1048,#797,#798);
#672=AXIS2_PLACEMENT_3D('',#1050,#800,#801);
#673=AXIS2_PLACEMENT_3D('',#1052,#803,#804);
#674=AXIS2_PLACEMENT_3D('',#1053,#805,#806);
#675=AXIS2_PLACEMENT_3D('',#1056,#809,#810);
#676=AXIS2_PLACEMENT_3D('',#1058,#812,#813);
#677=AXIS2_PLACEMENT_3D('',#1060,#815,#816);
#678=AXIS2_PLACEMENT_3D('',#1062,#818,#819);
#679=AXIS2_PLACEMENT_3D('',#1064,#821,#822);
#680=AXIS2_PLACEMENT_3D('',#1066,#824,#825);
#681=AXIS2_PLACEMENT_3D('',#1068,#827,#828);
#682=AXIS2_PLACEMENT_3D('',#1070,#830,#831);
#683=AXIS2_PLACEMENT_3D('',#1072,#833,#834);
#684=AXIS2_PLACEMENT_3D('',#1109,#835,#836);
#685=DIRECTION('',(0.,0.,1.));
#686=DIRECTION('',(1.,0.,0.));
#687=DIRECTION('',(0.,0.,1.));
#688=DIRECTION('',(0.956801518727055,0.290741902314752,0.));
#689=DIRECTION('',(0.951056516295154,-0.309016994374948,0.));
#690=DIRECTION('',(0.587785252292473,-0.809016994374948,0.));
#691=DIRECTION('',(-3.11871282801426E-16,-1.,0.));
#692=DIRECTION('',(-0.587785252292473,-0.809016994374947,0.));
#693=DIRECTION('',(-0.951056516295154,-0.309016994374947,0.));
#694=DIRECTION('',(-0.951056516295154,0.309016994374948,0.));
#695=DIRECTION('',(-0.587785252292473,0.809016994374948,0.));
#696=DIRECTION('',(6.23742565602852E-16,1.,0.));
#697=DIRECTION('',(0.587785252292473,0.809016994374947,0.));
#698=DIRECTION('',(0.951056516295154,0.309016994374947,0.));
#699=DIRECTION('',(1.,0.,0.));
#700=DIRECTION('',(0.,0.,1.));
#701=DIRECTION('',(1.,0.,0.));
#702=DIRECTION('',(3.11871282801426E-16,1.,0.));
#703=DIRECTION('',(-0.587785252292473,0.809016994374948,0.));
#704=DIRECTION('',(-0.951056516295154,0.309016994374948,0.));
#705=DIRECTION('',(-0.951056516295154,-0.309016994374947,0.));
#706=DIRECTION('',(-0.587785252292473,-0.809016994374947,0.));
#707=DIRECTION('',(-6.23742565602852E-16,-1.,0.));
#708=DIRECTION('',(0.587785252292473,-0.809016994374948,0.));
#709=DIRECTION('',(0.951056516295154,-0.309016994374948,0.));
#710=DIRECTION('',(0.951056516295154,0.309016994374947,0.));
#711=DIRECTION('',(0.587785252292473,0.809016994374947,0.));
#712=DIRECTION('',(0.,1.,0.));
#713=DIRECTION('',(0.,0.,1.));
#714=DIRECTION('',(0.,0.,1.));
#715=DIRECTION('',(-1.,0.,0.));
#716=DIRECTION('',(0.,0.,1.));
#717=DIRECTION('',(-1.,0.,0.));
#718=DIRECTION('',(1.,-3.11871282801426E-16,0.));
#719=DIRECTION('',(3.11871282801426E-16,1.,0.));
#720=DIRECTION('',(0.,0.,1.));
#721=DIRECTION('',(3.11871282801426E-16,1.,0.));
#722=DIRECTION('',(0.,0.,1.));
#723=DIRECTION('',(-3.11871282801426E-16,-1.,0.));
#724=DIRECTION('',(0.809016994374947,-0.587785252292473,0.));
#725=DIRECTION('',(0.587785252292473,0.809016994374947,0.));
#726=DIRECTION('',(0.,0.,1.));
#727=DIRECTION('',(0.587785252292473,0.809016994374947,0.));
#728=DIRECTION('',(-0.587785252292473,-0.809016994374947,0.));
#729=DIRECTION('',(0.309016994374947,-0.951056516295154,0.));
#730=DIRECTION('',(0.951056516295154,0.309016994374947,0.));
#731=DIRECTION('',(0.,0.,1.));
#732=DIRECTION('',(0.951056516295154,0.309016994374947,0.));
#733=DIRECTION('',(-0.951056516295154,-0.309016994374947,0.));
#734=DIRECTION('',(-0.309016994374948,-0.951056516295153,0.));
#735=DIRECTION('',(0.951056516295154,-0.309016994374948,0.));
#736=DIRECTION('',(0.,0.,1.));
#737=DIRECTION('',(0.951056516295154,-0.309016994374948,0.));
#738=DIRECTION('',(-0.951056516295154,0.309016994374948,0.));
#739=DIRECTION('',(-0.809016994374948,-0.587785252292473,0.));
#740=DIRECTION('',(0.587785252292473,-0.809016994374948,0.));
#741=DIRECTION('',(0.,0.,1.));
#742=DIRECTION('',(0.587785252292473,-0.809016994374948,0.));
#743=DIRECTION('',(-0.587785252292473,0.809016994374948,0.));
#744=DIRECTION('',(-1.,6.23742565602852E-16,0.));
#745=DIRECTION('',(-6.23742565602852E-16,-1.,0.));
#746=DIRECTION('',(0.,0.,1.));
#747=DIRECTION('',(-6.23742565602852E-16,-1.,0.));
#748=DIRECTION('',(6.23742565602852E-16,1.,0.));
#749=DIRECTION('',(-0.809016994374947,0.587785252292473,0.));
#750=DIRECTION('',(-0.587785252292473,-0.809016994374948,0.));
#751=DIRECTION('',(0.,0.,1.));
#752=DIRECTION('',(-0.587785252292473,-0.809016994374948,0.));
#753=DIRECTION('',(0.587785252292473,0.809016994374948,0.));
#754=DIRECTION('',(-0.309016994374947,0.951056516295154,0.));
#755=DIRECTION('',(-0.951056516295154,-0.309016994374947,0.));
#756=DIRECTION('',(0.,0.,1.));
#757=DIRECTION('',(-0.951056516295154,-0.309016994374947,0.));
#758=DIRECTION('',(0.951056516295154,0.309016994374947,0.));
#759=DIRECTION('',(0.309016994374948,0.951056516295153,0.));
#760=DIRECTION('',(-0.951056516295154,0.309016994374948,0.));
#761=DIRECTION('',(0.,0.,1.));
#762=DIRECTION('',(-0.951056516295154,0.309016994374948,0.));
#763=DIRECTION('',(0.951056516295154,-0.309016994374948,0.));
#764=DIRECTION('',(0.809016994374947,0.587785252292473,0.));
#765=DIRECTION('',(-0.587785252292473,0.809016994374948,0.));
#766=DIRECTION('',(-0.587785252292473,0.809016994374948,0.));
#767=DIRECTION('',(0.587785252292473,-0.809016994374948,0.));
#768=DIRECTION('',(0.,0.,1.));
#769=DIRECTION('',(0.964696952100477,-0.263362470006736,0.));
#770=DIRECTION('',(0.,0.,1.));
#771=DIRECTION('',(0.,0.,1.));
#772=DIRECTION('',(1.,0.,0.));
#773=DIRECTION('',(0.,0.,1.));
#774=DIRECTION('',(1.,0.,0.));
#775=DIRECTION('',(-0.572061402817684,-0.415626937777452,-0.707106781186548));
#776=DIRECTION('',(0.587785252292473,-0.809016994374948,0.));
#777=DIRECTION('',(0.425919209711472,0.586227499828236,-0.689151757774651));
#778=DIRECTION('',(0.689151757774652,0.223918979794514,-0.689151757774651));
#779=DIRECTION('',(-0.707106781186547,4.41052597852471E-16,-0.707106781186548));
#780=DIRECTION('',(-6.23742565602852E-16,-1.,0.));
#781=DIRECTION('',(0.689151757774652,-0.223918979794514,-0.689151757774651));
#782=DIRECTION('',(-0.218508012224411,-0.672498511963957,-0.707106781186548));
#783=DIRECTION('',(0.951056516295154,-0.309016994374948,0.));
#784=DIRECTION('',(-1.18573932923549E-15,0.724617040067447,-0.689151757774651));
#785=DIRECTION('',(-0.572061402817684,0.415626937777453,-0.707106781186548));
#786=DIRECTION('',(-0.587785252292473,-0.809016994374948,0.));
#787=DIRECTION('',(0.425919209711474,-0.586227499828233,-0.689151757774652));
#788=DIRECTION('',(0.21850801222441,-0.672498511963957,-0.707106781186548));
#789=DIRECTION('',(0.951056516295154,0.309016994374947,0.));
#790=DIRECTION('',(-0.425919209711469,0.586227499828238,-0.689151757774651));
#791=DIRECTION('',(-0.21850801222441,0.672498511963959,-0.707106781186546));
#792=DIRECTION('',(-0.951056516295154,-0.309016994374947,0.));
#793=DIRECTION('',(-1.8223611503377E-15,-0.724617040067446,-0.689151757774653));
#794=DIRECTION('',(0.572061402817684,-0.415626937777453,-0.707106781186548));
#795=DIRECTION('',(0.587785252292473,0.809016994374947,0.));
#796=DIRECTION('',(-0.689151757774651,0.223918979794514,-0.689151757774652));
#797=DIRECTION('',(0.218508012224411,0.672498511963958,-0.707106781186547));
#798=DIRECTION('',(-0.951056516295154,0.309016994374948,0.));
#799=DIRECTION('',(-0.425919209711472,-0.586227499828235,-0.689151757774652));
#800=DIRECTION('',(0.707106781186548,-2.20526298926236E-16,-0.707106781186547));
#801=DIRECTION('',(3.11871282801426E-16,1.,0.));
#802=DIRECTION('',(0.689151757774651,0.223918979794514,0.689151757774652));
#803=DIRECTION('',(0.572061402817684,0.415626937777453,-0.707106781186548));
#804=DIRECTION('',(-0.587785252292473,0.809016994374948,0.));
#805=DIRECTION('',(0.572061402817684,0.415626937777452,-0.707106781186549));
#806=DIRECTION('',(0.587785252292473,-0.809016994374948,0.));
#807=DIRECTION('',(0.689151757774651,0.223918979794517,0.689151757774651));
#808=DIRECTION('',(0.425919209711473,0.586227499828235,0.689151757774651));
#809=DIRECTION('',(0.21850801222441,0.672498511963957,-0.707106781186548));
#810=DIRECTION('',(0.951056516295154,-0.309016994374948,0.));
#811=DIRECTION('',(-2.86371037910209E-15,0.724617040067447,0.689151757774651));
#812=DIRECTION('',(0.707106781186548,-4.41052597852472E-16,-0.707106781186548));
#813=DIRECTION('',(-6.23742565602852E-16,-1.,0.));
#814=DIRECTION('',(0.689151757774651,-0.223918979794516,0.689151757774651));
#815=DIRECTION('',(-0.21850801222441,0.672498511963956,-0.707106781186549));
#816=DIRECTION('',(0.951056516295154,0.309016994374947,0.));
#817=DIRECTION('',(-0.425919209711468,0.586227499828239,0.689151757774651));
#818=DIRECTION('',(0.572061402817684,-0.415626937777453,-0.707106781186549));
#819=DIRECTION('',(-0.587785252292473,-0.809016994374948,0.));
#820=DIRECTION('',(0.425919209711473,-0.586227499828235,0.689151757774651));
#821=DIRECTION('',(-0.572061402817684,0.415626937777453,-0.707106781186548));
#822=DIRECTION('',(0.587785252292473,0.809016994374947,0.));
#823=DIRECTION('',(-0.689151757774651,0.223918979794514,0.689151757774652));
#824=DIRECTION('',(0.21850801222441,-0.672498511963958,-0.707106781186547));
#825=DIRECTION('',(-0.951056516295154,-0.309016994374947,0.));
#826=DIRECTION('',(-1.66374960299106E-15,-0.724617040067447,0.689151757774652));
#827=DIRECTION('',(-0.707106781186548,2.20526298926236E-16,-0.707106781186548));
#828=DIRECTION('',(3.11871282801426E-16,1.,0.));
#829=DIRECTION('',(-0.689151757774652,-0.223918979794513,0.689151757774652));
#830=DIRECTION('',(-0.218508012224411,-0.672498511963957,-0.707106781186548));
#831=DIRECTION('',(-0.951056516295154,0.309016994374948,0.));
#832=DIRECTION('',(0.425919209711469,0.586227499828237,-0.689151757774652));
#833=DIRECTION('',(-0.572061402817685,-0.415626937777453,-0.707106781186548));
#834=DIRECTION('',(-0.587785252292473,0.809016994374948,0.));
#835=DIRECTION('',(0.,0.707106781186551,-0.707106781186545));
#836=DIRECTION('',(-1.,0.,0.));
#837=CARTESIAN_POINT('',(0.,0.,0.));
#838=CARTESIAN_POINT('',(-0.0187525,0.00755,0.018195));
#839=CARTESIAN_POINT('',(-0.0137714497237427,0.016130096433085,0.018195));
#840=CARTESIAN_POINT('',(-0.0187525,0.0177485377757673,0.018195));
#841=CARTESIAN_POINT('',(-0.0140804667181176,0.0162305021410281,0.018195));
#842=CARTESIAN_POINT('',(-0.0110020083477186,0.0119933676970876,0.018195));
#843=CARTESIAN_POINT('',(-0.0111929913533436,0.0122562332531472,0.018195));
#844=CARTESIAN_POINT('',(-0.0111929913533436,0.00701884705063106,0.018195));
#845=CARTESIAN_POINT('',(-0.0111929913533436,0.00734376674686399,0.018195));
#846=CARTESIAN_POINT('',(-0.0142714497237427,0.00310663230292354,0.018195));
#847=CARTESIAN_POINT('',(-0.0140804667181176,0.00336949785898311,0.018195));
#848=CARTESIAN_POINT('',(-0.0190615169943749,0.00175105651630075,0.018195));
#849=CARTESIAN_POINT('',(-0.0187525,0.00185146222424387,0.018195));
#850=CARTESIAN_POINT('',(-0.0237335502762573,0.00346990356692623,0.018195));
#851=CARTESIAN_POINT('',(-0.0234245332818824,0.00336949785898312,0.018195));
#852=CARTESIAN_POINT('',(-0.0265029916522815,0.00760663230292355,0.018195));
#853=CARTESIAN_POINT('',(-0.0263120086466564,0.00734376674686399,0.018195));
#854=CARTESIAN_POINT('',(-0.0263120086466564,0.0125811529493801,0.018195));
#855=CARTESIAN_POINT('',(-0.0263120086466564,0.0122562332531472,0.018195));
#856=CARTESIAN_POINT('',(-0.0232335502762573,0.0164933676970876,0.018195));
#857=CARTESIAN_POINT('',(-0.0234245332818824,0.0162305021410281,0.018195));
#858=CARTESIAN_POINT('',(-0.018443483005625,0.0178489434837104,0.018195));
#859=CARTESIAN_POINT('',(-0.0155739450532068,0.00710004764366739,0.018195));
#860=CARTESIAN_POINT('',(-0.0153438825912432,0.00752071466904652,0.018195));
#861=CARTESIAN_POINT('',(-0.0148536729964381,0.00835704834565849,0.018195));
#862=CARTESIAN_POINT('',(-0.0147025103037786,0.00931679400122464,0.018195));
#863=CARTESIAN_POINT('',(-0.0147024999999999,0.00980000000001023,0.018195));
#864=CARTESIAN_POINT('',(-0.015573962139991,0.00710003066776831,0.0181950068459346));
#865=CARTESIAN_POINT('',(-0.0147025,0.00980000000001023,0.018195));
#866=CARTESIAN_POINT('',(-0.0147024999999999,0.00980000000000751,0.018195));
#867=CARTESIAN_POINT('',(-0.0147020064118955,0.0104731526578613,0.018195));
#868=CARTESIAN_POINT('',(-0.01500854725935,0.0117781492533231,0.018195));
#869=CARTESIAN_POINT('',(-0.0163028797176373,0.0133534330116384,0.018195));
#870=CARTESIAN_POINT('',(-0.0181967593780783,0.0141348950625166,0.018195));
#871=CARTESIAN_POINT('',(-0.0198963222255037,0.0139265571562685,0.018195));
#872=CARTESIAN_POINT('',(-0.0210561023042548,0.0133081006283691,0.018195));
#873=CARTESIAN_POINT('',(-0.0218052938663021,0.012618442777704,0.018195));
#874=CARTESIAN_POINT('',(-0.0223571066253298,0.0118070396235632,0.018195));
#875=CARTESIAN_POINT('',(-0.0227095800047722,0.0108580063660342,0.018195));
#876=CARTESIAN_POINT('',(-0.0228430777447251,0.00987059219755572,0.018195));
#877=CARTESIAN_POINT('',(-0.0227575418035578,0.00904426068919589,0.018195));
#878=CARTESIAN_POINT('',(-0.0226046597899947,0.00848483650393631,0.018195));
#879=CARTESIAN_POINT('',(-0.0225035126201245,0.00821230299360246,0.018195));
#880=CARTESIAN_POINT('',(-0.0224451574772653,0.00807164024328608,0.018195));
#881=CARTESIAN_POINT('',(-0.0223820218660648,0.00793392622221709,0.018195));
#882=CARTESIAN_POINT('',(-0.0223779093591103,0.00792757543750266,0.018195));
#883=CARTESIAN_POINT('',(-0.022333213910692,0.00784017348450945,0.018195));
#884=CARTESIAN_POINT('',(-0.0222277237441756,0.0076430557040163,0.018195));
#885=CARTESIAN_POINT('',(-0.0220669677456178,0.00734757022592989,0.018195));
#886=CARTESIAN_POINT('',(-0.0219311569123915,0.00709999185412629,0.018195));
#887=CARTESIAN_POINT('',(-0.0219311569123956,0.0071,0.018195));
#888=CARTESIAN_POINT('',(-0.0161659159888807,0.0071,0.018195));
#889=CARTESIAN_POINT('',(-0.0187525,0.0098000000000056,0.029195));
#890=CARTESIAN_POINT('',(-0.0111929913533436,0.0098000000000056,0.029195));
#891=CARTESIAN_POINT('',(-0.0111929913533436,0.00734376674686399,0.029195));
#892=CARTESIAN_POINT('',(-0.0111929913533436,0.0122562332531472,0.029195));
#893=CARTESIAN_POINT('',(-0.0126367290357306,0.0142433676970877,0.029195));
#894=CARTESIAN_POINT('',(-0.0140804667181176,0.0162305021410281,0.029195));
#895=CARTESIAN_POINT('',(-0.0164164833590588,0.0169895199583977,0.029195));
#896=CARTESIAN_POINT('',(-0.0187525,0.0177485377757673,0.029195));
#897=CARTESIAN_POINT('',(-0.0210885166409412,0.0169895199583977,0.029195));
#898=CARTESIAN_POINT('',(-0.0234245332818824,0.0162305021410281,0.029195));
#899=CARTESIAN_POINT('',(-0.0248682709642694,0.0142433676970876,0.029195));
#900=CARTESIAN_POINT('',(-0.0263120086466564,0.0122562332531472,0.029195));
#901=CARTESIAN_POINT('',(-0.0263120086466564,0.0098000000000056,0.029195));
#902=CARTESIAN_POINT('',(-0.0263120086466564,0.00734376674686399,0.029195));
#903=CARTESIAN_POINT('',(-0.0248682709642694,0.00535663230292355,0.029195));
#904=CARTESIAN_POINT('',(-0.0234245332818824,0.00336949785898312,0.029195));
#905=CARTESIAN_POINT('',(-0.0210885166409412,0.00261048004161349,0.029195));
#906=CARTESIAN_POINT('',(-0.0187525,0.00185146222424387,0.029195));
#907=CARTESIAN_POINT('',(-0.0164164833590589,0.00261048004161348,0.029195));
#908=CARTESIAN_POINT('',(-0.0140804667181176,0.00336949785898311,0.029195));
#909=CARTESIAN_POINT('',(-0.0126367290357306,0.00535663230292354,0.029195));
#910=CARTESIAN_POINT('',(-0.0163928356392099,0.0081,0.018193));
#911=CARTESIAN_POINT('',(-0.0161659159888807,0.0081,0.018193));
#912=CARTESIAN_POINT('',(-0.0161663259858423,0.00810024201105019,0.01919500025));
#913=CARTESIAN_POINT('',(-0.0161663259858423,0.00810024201105019,0.02869499975));
#914=CARTESIAN_POINT('',(-0.0213390840111192,0.0081,0.019195));
#915=CARTESIAN_POINT('',(-0.0213390980315657,0.00809999229756168,0.019195));
#916=CARTESIAN_POINT('',(-0.0213390840111192,0.0081,0.018193));
#917=CARTESIAN_POINT('',(-0.0213390840111192,0.0081,0.028695));
#918=CARTESIAN_POINT('',(-0.0211121643607902,0.0081,0.028695));
#919=CARTESIAN_POINT('',(-0.0101929913533436,0.00980000000000559,0.018193));
#920=CARTESIAN_POINT('',(-0.0101929913533436,0.00701884705063106,0.018193));
#921=CARTESIAN_POINT('',(-0.0101929913533436,0.00701884705063106,0.019195));
#922=CARTESIAN_POINT('',(-0.0101929913533436,0.00701884705063106,0.028195));
#923=CARTESIAN_POINT('',(-0.0101929913533436,0.0125811529493801,0.019195));
#924=CARTESIAN_POINT('',(-0.0101929913533436,0.0125811529493801,0.019195));
#925=CARTESIAN_POINT('',(-0.0101929913533436,0.0125811529493801,0.018193));
#926=CARTESIAN_POINT('',(-0.0101929913533436,0.0125811529493801,0.028195));
#927=CARTESIAN_POINT('',(-0.0101929913533436,0.00980000000000559,0.028195));
#928=CARTESIAN_POINT('',(-0.0118277120413557,0.00476884705063107,0.018193));
#929=CARTESIAN_POINT('',(-0.0134624327293677,0.00251884705063107,0.018193));
#930=CARTESIAN_POINT('',(-0.0134624327293677,0.00251884705063107,0.019195));
#931=CARTESIAN_POINT('',(-0.0134624327293677,0.00251884705063107,0.028195));
#932=CARTESIAN_POINT('',(-0.0101929913533436,0.00701884705063107,0.019195));
#933=CARTESIAN_POINT('',(-0.0118277120413557,0.00476884705063107,0.028195));
#934=CARTESIAN_POINT('',(-0.0161074663646839,0.00165942352531833,0.018193));
#935=CARTESIAN_POINT('',(-0.0187525,0.000800000000005591,0.018193));
#936=CARTESIAN_POINT('',(-0.0187525,0.000800000000005591,0.019195));
#937=CARTESIAN_POINT('',(-0.0187525,0.000800000000005591,0.028195));
#938=CARTESIAN_POINT('',(-0.0134624327293677,0.00251884705063107,0.019195));
#939=CARTESIAN_POINT('',(-0.0161074663646839,0.00165942352531833,0.028195));
#940=CARTESIAN_POINT('',(-0.0213975336353162,0.00165942352531833,0.018193));
#941=CARTESIAN_POINT('',(-0.0240425672706323,0.00251884705063108,0.018193));
#942=CARTESIAN_POINT('',(-0.0240425672706323,0.00251884705063108,0.019195));
#943=CARTESIAN_POINT('',(-0.0240425672706323,0.00251884705063108,0.028195));
#944=CARTESIAN_POINT('',(-0.0187525,0.000800000000005599,0.019195));
#945=CARTESIAN_POINT('',(-0.0213975336353162,0.00165942352531833,0.028195));
#946=CARTESIAN_POINT('',(-0.0256772879586444,0.00476884705063108,0.018193));
#947=CARTESIAN_POINT('',(-0.0273120086466564,0.00701884705063108,0.018193));
#948=CARTESIAN_POINT('',(-0.0273120086466564,0.00701884705063108,0.019195));
#949=CARTESIAN_POINT('',(-0.0273120086466564,0.00701884705063108,0.028195));
#950=CARTESIAN_POINT('',(-0.0240425672706323,0.00251884705063107,0.019195));
#951=CARTESIAN_POINT('',(-0.0256772879586444,0.00476884705063108,0.028195));
#952=CARTESIAN_POINT('',(-0.0273120086466564,0.0098000000000056,0.018193));
#953=CARTESIAN_POINT('',(-0.0273120086466564,0.0125811529493801,0.018193));
#954=CARTESIAN_POINT('',(-0.0273120086466564,0.0125811529493801,0.019195));
#955=CARTESIAN_POINT('',(-0.0273120086466564,0.0125811529493801,0.028195));
#956=CARTESIAN_POINT('',(-0.0273120086466564,0.00701884705063108,0.019195));
#957=CARTESIAN_POINT('',(-0.0273120086466564,0.0098000000000056,0.028195));
#958=CARTESIAN_POINT('',(-0.0256772879586444,0.0148311529493801,0.018193));
#959=CARTESIAN_POINT('',(-0.0240425672706323,0.0170811529493801,0.018193));
#960=CARTESIAN_POINT('',(-0.0240425672706323,0.0170811529493801,0.019195));
#961=CARTESIAN_POINT('',(-0.0240425672706323,0.0170811529493801,0.028195));
#962=CARTESIAN_POINT('',(-0.0273120086466564,0.0125811529493801,0.019195));
#963=CARTESIAN_POINT('',(-0.0256772879586444,0.0148311529493801,0.028195));
#964=CARTESIAN_POINT('',(-0.0213975336353162,0.0179405764746929,0.018193));
#965=CARTESIAN_POINT('',(-0.0187525,0.0188000000000056,0.018193));
#966=CARTESIAN_POINT('',(-0.0187525,0.0188000000000056,0.019195));
#967=CARTESIAN_POINT('',(-0.0187525,0.0188000000000056,0.028195));
#968=CARTESIAN_POINT('',(-0.0240425672706323,0.0170811529493801,0.019195));
#969=CARTESIAN_POINT('',(-0.0213975336353162,0.0179405764746929,0.028195));
#970=CARTESIAN_POINT('',(-0.0161074663646838,0.0179405764746929,0.018193));
#971=CARTESIAN_POINT('',(-0.0134624327293677,0.0170811529493801,0.018193));
#972=CARTESIAN_POINT('',(-0.0134624327293677,0.0170811529493801,0.019195));
#973=CARTESIAN_POINT('',(-0.0134624327293677,0.0170811529493801,0.028195));
#974=CARTESIAN_POINT('',(-0.0187525,0.0188000000000056,0.019195));
#975=CARTESIAN_POINT('',(-0.0161074663646838,0.0179405764746929,0.028195));
#976=CARTESIAN_POINT('',(-0.0118277120413557,0.0148311529493801,0.018193));
#977=CARTESIAN_POINT('',(-0.0134624327293677,0.0170811529493801,0.019195));
#978=CARTESIAN_POINT('',(-0.0118277120413557,0.0148311529493801,0.028195));
#979=CARTESIAN_POINT('',(-0.0190463234594158,0.00980023317750952,0.018193));
#980=CARTESIAN_POINT('',(-0.0157025,0.00980000000000592,0.018193));
#981=CARTESIAN_POINT('',(-0.0157025,0.00980000000000592,0.019195));
#982=CARTESIAN_POINT('',(-0.0157024988153788,0.00979999999992331,0.028695));
#983=CARTESIAN_POINT('',(-0.0157024976307576,0.00979999999984115,0.019195));
#984=CARTESIAN_POINT('',(-0.0157025390717544,0.00920572578601975,0.019195));
#985=CARTESIAN_POINT('',(-0.0158646517401478,0.00861225247879662,0.019195));
#986=CARTESIAN_POINT('',(-0.016166735982804,0.00810048402210038,0.019195));
#987=CARTESIAN_POINT('',(-0.0190463234594158,0.00980023317750952,0.028695));
#988=CARTESIAN_POINT('',(-0.0213390840111192,0.0081,0.019195));
#989=CARTESIAN_POINT('',(-0.0213390840111192,0.0081,0.028695));
#990=CARTESIAN_POINT('',(-0.0215712403725103,0.0085232701191914,0.019195));
#991=CARTESIAN_POINT('',(-0.0215712403725103,0.0085232701191914,0.028695));
#992=CARTESIAN_POINT('',(-0.0218960278050784,0.00944965906851956,0.019195));
#993=CARTESIAN_POINT('',(-0.0218960278050784,0.00944965906851956,0.028695));
#994=CARTESIAN_POINT('',(-0.0217204618415661,0.0109219828131148,0.019195));
#995=CARTESIAN_POINT('',(-0.0217204618415661,0.0109219828131148,0.028695));
#996=CARTESIAN_POINT('',(-0.0209482044651819,0.0121873051016138,0.019195));
#997=CARTESIAN_POINT('',(-0.0209482044651819,0.0121873051016138,0.028695));
#998=CARTESIAN_POINT('',(-0.0196757171560209,0.0129796022522824,0.019195));
#999=CARTESIAN_POINT('',(-0.0196757171560209,0.0129796022522824,0.028695));
#1000=CARTESIAN_POINT('',(-0.0181731187413523,0.0130686219574775,0.019195));
#1001=CARTESIAN_POINT('',(-0.0181731187413523,0.0130686219574775,0.028695));
#1002=CARTESIAN_POINT('',(-0.016360566543913,0.0122099698022657,0.019195));
#1003=CARTESIAN_POINT('',(-0.016360566543913,0.0122099698022657,0.028695));
#1004=CARTESIAN_POINT('',(-0.0157025000000013,0.0107632871316956,0.019195));
#1005=CARTESIAN_POINT('',(-0.0157025000000013,0.0107632871316956,0.028695));
#1006=CARTESIAN_POINT('',(-0.0157025,0.00980000000000592,0.019195));
#1007=CARTESIAN_POINT('',(-0.0157025,0.00980000000000592,0.028695));
#1008=CARTESIAN_POINT('',(-0.0213390840111192,0.0081,0.019195));
#1009=CARTESIAN_POINT('',(-0.0215712403725103,0.0085232701191914,0.019195));
#1010=CARTESIAN_POINT('',(-0.0218960278050784,0.00944965906851957,0.019195));
#1011=CARTESIAN_POINT('',(-0.0217204618415661,0.0109219828131148,0.019195));
#1012=CARTESIAN_POINT('',(-0.0209482044651819,0.0121873051016138,0.019195));
#1013=CARTESIAN_POINT('',(-0.0196757171560209,0.0129796022522824,0.019195));
#1014=CARTESIAN_POINT('',(-0.0181731187413523,0.0130686219574775,0.019195));
#1015=CARTESIAN_POINT('',(-0.016360566543913,0.0122099698022657,0.019195));
#1016=CARTESIAN_POINT('',(-0.0157025000000013,0.0107632871316956,0.019195));
#1017=CARTESIAN_POINT('',(-0.0157025,0.00980000000000592,0.019195));
#1018=CARTESIAN_POINT('',(-0.0213390840111192,0.0081,0.028695));
#1019=CARTESIAN_POINT('',(-0.0213580652774118,0.00813460686064312,0.028695));
#1020=CARTESIAN_POINT('',(-0.0213770465437045,0.00816921372128623,0.028695));
#1021=CARTESIAN_POINT('',(-0.0213960278099971,0.00820382058192935,0.028695));
#1022=CARTESIAN_POINT('',(-0.0216258115131017,0.0086227648435403,0.028695));
#1023=CARTESIAN_POINT('',(-0.021896560435734,0.00955934416697421,0.028695));
#1024=CARTESIAN_POINT('',(-0.0216894975503399,0.011006514364345,0.028695));
#1025=CARTESIAN_POINT('',(-0.0208915450048503,0.0122401490982294,0.028695));
#1026=CARTESIAN_POINT('',(-0.0196160021051187,0.0129955531650991,0.028695));
#1027=CARTESIAN_POINT('',(-0.0181272290998495,0.0130566872535098,0.028695));
#1028=CARTESIAN_POINT('',(-0.016794320047195,0.0124034523460614,0.028695));
#1029=CARTESIAN_POINT('',(-0.0159071750182017,0.0112296472246171,0.028695));
#1030=CARTESIAN_POINT('',(-0.0157025000000006,0.0102767211265481,0.028695));
#1031=CARTESIAN_POINT('',(-0.0157025,0.00980000000000592,0.028695));
#1032=CARTESIAN_POINT('',(-0.0187525,0.0098000000000056,0.028695));
#1033=CARTESIAN_POINT('',(-0.0237983323834347,0.00388398818424806,0.018195));
#1034=CARTESIAN_POINT('',(-0.0231239682812348,0.00378319009180081,0.0177086756131236));
#1035=CARTESIAN_POINT('',(-0.0256520808314395,0.0075581902921199,0.0175350721847831));
#1036=CARTESIAN_POINT('',(-0.0263120086466564,0.00755,0.018195));
#1037=CARTESIAN_POINT('',(-0.025585770222377,0.0120202640849377,0.0174687615757206));
#1038=CARTESIAN_POINT('',(-0.0204272582321105,0.00239562416028477,0.018195));
#1039=CARTESIAN_POINT('',(-0.0187525,0.00213718525296467,0.0179232612516795));
#1040=CARTESIAN_POINT('',(-0.0259382095451041,0.0127707235784122,0.018195));
#1041=CARTESIAN_POINT('',(-0.0230166754619569,0.0156691340115599,0.0175350721847831));
#1042=CARTESIAN_POINT('',(-0.0170777417678895,0.00239562416028476,0.018195));
#1043=CARTESIAN_POINT('',(-0.0141411176813621,0.003452976748252,0.01809686468002));
#1044=CARTESIAN_POINT('',(-0.0217497750497718,0.016774664077069,0.018195));
#1045=CARTESIAN_POINT('',(-0.0187525,0.017237186054241,0.0177086756131236));
#1046=CARTESIAN_POINT('',(-0.0137066676165653,0.00388398818424806,0.018195));
#1047=CARTESIAN_POINT('',(-0.0112248160642611,0.00735410722226799,0.0181631752890825));
#1048=CARTESIAN_POINT('',(-0.0157552249502282,0.016774664077069,0.018195));
#1049=CARTESIAN_POINT('',(-0.0142484105006401,0.0159993473551087,0.0179232612516795));
#1050=CARTESIAN_POINT('',(-0.0111929913533436,0.00755,0.018195));
#1051=CARTESIAN_POINT('',(-0.011919229777623,0.0120202640849377,0.0174687615757206));
#1052=CARTESIAN_POINT('',(-0.0115667904548959,0.0127707235784122,0.018195));
#1053=CARTESIAN_POINT('',(-0.0248682709642694,0.00535663230292355,0.029195));
#1054=CARTESIAN_POINT('',(-0.025932977079058,0.00746692156867076,0.0295740315675985));
#1055=CARTESIAN_POINT('',(-0.0231902788902974,0.00369192136835166,0.0295740315675985));
#1056=CARTESIAN_POINT('',(-0.0210885166409412,0.00261048004161349,0.029195));
#1057=CARTESIAN_POINT('',(-0.0187525,0.00224999959936744,0.0295740315675985));
#1058=CARTESIAN_POINT('',(-0.0263120086466564,0.0098000000000056,0.029195));
#1059=CARTESIAN_POINT('',(-0.025932977079058,0.0121330784313404,0.0295740315675985));
#1060=CARTESIAN_POINT('',(-0.0164164833590589,0.00261048004161348,0.029195));
#1061=CARTESIAN_POINT('',(-0.0143147211097026,0.00369192136835166,0.0295740315675985));
#1062=CARTESIAN_POINT('',(-0.0248682709642694,0.0142433676970876,0.029195));
#1063=CARTESIAN_POINT('',(-0.0231902788902974,0.0159080786316596,0.0295740315675985));
#1064=CARTESIAN_POINT('',(-0.0126367290357306,0.00535663230292354,0.029195));
#1065=CARTESIAN_POINT('',(-0.011572022920942,0.00746692156867075,0.0295740315675985));
#1066=CARTESIAN_POINT('',(-0.0210885166409412,0.0169895199583977,0.029195));
#1067=CARTESIAN_POINT('',(-0.0187525,0.0173500004006437,0.0295740315675985));
#1068=CARTESIAN_POINT('',(-0.0111929913533436,0.0098000000000056,0.029195));
#1069=CARTESIAN_POINT('',(-0.011572022920942,0.0121330784313404,0.0295740315675985));
#1070=CARTESIAN_POINT('',(-0.0164164833590588,0.0169895199583977,0.029195));
#1071=CARTESIAN_POINT('',(-0.0143147211097026,0.0159080786316596,0.0295740315675985));
#1072=CARTESIAN_POINT('',(-0.0126367290357306,0.0142433676970877,0.029195));
#1073=CARTESIAN_POINT('',(-0.0157025,0.00980000000000637,0.019195));
#1074=CARTESIAN_POINT('',(-0.0157024988646043,0.00960641817049115,0.019195));
#1075=CARTESIAN_POINT('',(-0.0157194696026964,0.0094125221273583,0.019195));
#1076=CARTESIAN_POINT('',(-0.0157864734677805,0.00903058159296064,0.019195));
#1077=CARTESIAN_POINT('',(-0.0158346488761996,0.00884644488771131,0.019195));
#1078=CARTESIAN_POINT('',(-0.0159363375414223,0.00856818654434434,0.019195));
#1079=CARTESIAN_POINT('',(-0.0159713924827211,0.00848263014054079,0.019195));
#1080=CARTESIAN_POINT('',(-0.01603370377563,0.00834889881422363,0.019195));
#1081=CARTESIAN_POINT('',(-0.0160557371692381,0.00830458149422774,0.019195));
#1082=CARTESIAN_POINT('',(-0.0160977108016406,0.00822367236689094,0.019195));
#1083=CARTESIAN_POINT('',(-0.0161254331345151,0.00817336243234483,0.019195));
#1084=CARTESIAN_POINT('',(-0.0162605955101515,0.0079288655329357,0.019195));
#1085=CARTESIAN_POINT('',(-0.0163592541361248,0.0077480017604783,0.019195));
#1086=CARTESIAN_POINT('',(-0.0164592274686508,0.00756535635232806,0.019195));
#1087=CARTESIAN_POINT('',(-0.0147025,0.00980000000001023,0.018195));
#1088=CARTESIAN_POINT('',(-0.0147025053706771,0.00954813672455817,0.018195));
#1089=CARTESIAN_POINT('',(-0.0147245472194876,0.0092965286959725,0.018195));
#1090=CARTESIAN_POINT('',(-0.014811513530791,0.00880079526124573,0.018195));
#1091=CARTESIAN_POINT('',(-0.0148768140801511,0.00855663186516039,0.018195));
#1092=CARTESIAN_POINT('',(-0.0150050590592524,0.00820187140165407,0.018195));
#1093=CARTESIAN_POINT('',(-0.0150534598747042,0.00808537842402258,0.018195));
#1094=CARTESIAN_POINT('',(-0.0151329709285482,0.00791410678630938,0.018195));
#1095=CARTESIAN_POINT('',(-0.0151609017662913,0.00785775667963811,0.018195));
#1096=CARTESIAN_POINT('',(-0.015218964461476,0.00774615536131776,0.018195));
#1097=CARTESIAN_POINT('',(-0.0152493680392541,0.00769102781114233,0.018195));
#1098=CARTESIAN_POINT('',(-0.0153814478165781,0.00745275512021874,0.018195));
#1099=CARTESIAN_POINT('',(-0.0154816826757848,0.00726870870660228,0.018195));
#1100=CARTESIAN_POINT('',(-0.0155822507638424,0.00708486240165915,0.018195));
#1101=CARTESIAN_POINT('',(-0.0157025,0.00980000000000637,0.019195));
#1102=CARTESIAN_POINT('',(-0.0153691666666667,0.00980000000000766,0.0188616666666667));
#1103=CARTESIAN_POINT('',(-0.0150358333333333,0.00980000000000894,0.0185283333333333));
#1104=CARTESIAN_POINT('',(-0.0147025,0.00980000000001023,0.018195));
#1105=CARTESIAN_POINT('',(-0.0161659753673929,0.00809998248333731,0.0191949824833373));
#1106=CARTESIAN_POINT('',(-0.0159686433205203,0.00776665955284795,0.018861659552848));
#1107=CARTESIAN_POINT('',(-0.0157713112736478,0.00743333662235859,0.0185283366223586));
#1108=CARTESIAN_POINT('',(-0.0155739792267753,0.00710001369186923,0.0181950136918692));
#1109=CARTESIAN_POINT('',(-0.0187525,0.0071,0.018195));
#1110=CARTESIAN_POINT('',(-0.0219311627662717,0.00709999765988493,0.0181949976598849));
#1111=CARTESIAN_POINT('',(-0.0217338162217537,0.00743333029834988,0.0185283302983499));
#1112=CARTESIAN_POINT('',(-0.0215364696772356,0.00776666293681483,0.0188616629368148));
#1113=CARTESIAN_POINT('',(-0.0213391231327175,0.00809999557527978,0.0191949955752798));
#1114=CARTESIAN_POINT('',(-0.0210097217405764,0.00749948720167883,0.019195));
#1115=CARTESIAN_POINT('',(-0.0210638538066098,0.00759816634624598,0.019195));
#1116=CARTESIAN_POINT('',(-0.0211179759398114,0.0076968280631224,0.019195));
#1117=CARTESIAN_POINT('',(-0.0212116342419567,0.00786766641287692,0.019195));
#1118=CARTESIAN_POINT('',(-0.0212541654277456,0.00794507926074433,0.019195));
#1119=CARTESIAN_POINT('',(-0.0213337135200835,0.00809030467162806,0.019195));
#1120=CARTESIAN_POINT('',(-0.0213794039948971,0.00817301840032403,0.019195));
#1121=CARTESIAN_POINT('',(-0.021476030148542,0.00835170585566386,0.019195));
#1122=CARTESIAN_POINT('',(-0.0215290601606895,0.00846757169597077,0.019195));
#1123=CARTESIAN_POINT('',(-0.0216667953822805,0.00882733987614203,0.019195));
#1124=CARTESIAN_POINT('',(-0.0217385921252232,0.00909584679224476,0.019195));
#1125=CARTESIAN_POINT('',(-0.0218083374542839,0.00962388518131299,0.019195));
#1126=CARTESIAN_POINT('',(-0.0218119306269558,0.00989147305008141,0.019195));
#1127=CARTESIAN_POINT('',(-0.0217256286068084,0.010692499067985,0.019195));
#1128=CARTESIAN_POINT('',(-0.0215397521021225,0.011205477046543,0.019195));
#1129=CARTESIAN_POINT('',(-0.0209477611111173,0.0120863161920095,0.019195));
#1130=CARTESIAN_POINT('',(-0.0205436548181739,0.0124442872037911,0.019195));
#1131=CARTESIAN_POINT('',(-0.0196140110188944,0.0129180279924933,0.019195));
#1132=CARTESIAN_POINT('',(-0.0190940815782192,0.0130245099507793,0.019195));
#1133=CARTESIAN_POINT('',(-0.0180587096055695,0.0129636281882991,0.019195));
#1134=CARTESIAN_POINT('',(-0.0175542423047815,0.0127897094321551,0.019195));
#1135=CARTESIAN_POINT('',(-0.0166825115160424,0.0122134868536014,0.019195));
#1136=CARTESIAN_POINT('',(-0.0163237425115411,0.0118079517313297,0.019195));
#1137=CARTESIAN_POINT('',(-0.015832993150659,0.0108697994262391,0.019195));
#1138=CARTESIAN_POINT('',(-0.0157019095240986,0.0103345256417349,0.019195));
#1139=CARTESIAN_POINT('',(-0.0157025,0.00980000000000592,0.019195));
#1140=CARTESIAN_POINT('',(-0.0218862781023411,0.0070181828634861,0.018195));
#1141=CARTESIAN_POINT('',(-0.0219401993654793,0.00711647299520864,0.018195));
#1142=CARTESIAN_POINT('',(-0.0219941202453328,0.0072147633218469,0.018195));
#1143=CARTESIAN_POINT('',(-0.0220888913401737,0.0073876552043648,0.018195));
#1144=CARTESIAN_POINT('',(-0.0221298676341938,0.00746219263700486,0.018195));
#1145=CARTESIAN_POINT('',(-0.0222115654057244,0.00761139711462123,0.018195));
#1146=CARTESIAN_POINT('',(-0.0222527997377764,0.00768580297414232,0.018195));
#1147=CARTESIAN_POINT('',(-0.0223740936718925,0.0079102475948588,0.018195));
#1148=CARTESIAN_POINT('',(-0.0224452856834096,0.00806513803582676,0.018195));
#1149=CARTESIAN_POINT('',(-0.0226294949843111,0.00854265092989634,0.018195));
#1150=CARTESIAN_POINT('',(-0.0227194383512089,0.0088851470482745,0.018195));
#1151=CARTESIAN_POINT('',(-0.0228101057712397,0.00957145078816517,0.018195));
#1152=CARTESIAN_POINT('',(-0.0228146871518597,0.00991928163824854,0.018195));
#1153=CARTESIAN_POINT('',(-0.022702913339062,0.010957689297004,0.018195));
#1154=CARTESIAN_POINT('',(-0.0224610679902448,0.0116273232172711,0.018195));
#1155=CARTESIAN_POINT('',(-0.0216859491238295,0.012780734686634,0.018195));
#1156=CARTESIAN_POINT('',(-0.0211504849167117,0.0132576386097601,0.018195));
#1157=CARTESIAN_POINT('',(-0.019912757964274,0.0138879124703966,0.018195));
#1158=CARTESIAN_POINT('',(-0.0192112271551531,0.0140336569029665,0.018195));
#1159=CARTESIAN_POINT('',(-0.0178233566583764,0.0139509849344847,0.018195));
#1160=CARTESIAN_POINT('',(-0.0171438241039949,0.0137178372972812,0.018195));
#1161=CARTESIAN_POINT('',(-0.0159866098841978,0.0129515091701597,0.018195));
#1162=CARTESIAN_POINT('',(-0.0155131989720766,0.0124165113481719,0.018195));
#1163=CARTESIAN_POINT('',(-0.0148716579833168,0.0111888420131271,0.018195));
#1164=CARTESIAN_POINT('',(-0.0147019907232182,0.0104945487869997,0.018195));
#1165=CARTESIAN_POINT('',(-0.0147025,0.00980000000000751,0.018195));
#1166=MECHANICAL_DESIGN_GEOMETRIC_PRESENTATION_REPRESENTATION('',(#636),
#1167);
#1167=(
GEOMETRIC_REPRESENTATION_CONTEXT(3)
GLOBAL_UNCERTAINTY_ASSIGNED_CONTEXT((#1168))
GLOBAL_UNIT_ASSIGNED_CONTEXT((#1171,#1170,#1169))
REPRESENTATION_CONTEXT('Knob','TOP_LEVEL_ASSEMBLY_PART')
);
#1168=UNCERTAINTY_MEASURE_WITH_UNIT(LENGTH_MEASURE(2.02E-5),#1171,
'DISTANCE_ACCURACY_VALUE','Maximum Tolerance applied to model');
#1169=(
NAMED_UNIT(*)
SI_UNIT($,.STERADIAN.)
SOLID_ANGLE_UNIT()
);
#1170=(
NAMED_UNIT(*)
PLANE_ANGLE_UNIT()
SI_UNIT($,.RADIAN.)
);
#1171=(
LENGTH_UNIT()
NAMED_UNIT(*)
SI_UNIT($,.METRE.)
);
#1172=PRODUCT_DEFINITION_SHAPE('','',#1173);
#1173=PRODUCT_DEFINITION('','',#1175,#1174);
#1174=PRODUCT_DEFINITION_CONTEXT('',#1181,'design');
#1175=PRODUCT_DEFINITION_FORMATION_WITH_SPECIFIED_SOURCE('','',#1177,
 .NOT_KNOWN.);
#1176=PRODUCT_RELATED_PRODUCT_CATEGORY('','',(#1177));
#1177=PRODUCT('Knob','Knob','Knob',(#1179));
#1178=PRODUCT_CATEGORY('','');
#1179=PRODUCT_CONTEXT('',#1181,'mechanical');
#1180=APPLICATION_PROTOCOL_DEFINITION('international standard',
'ap242_managed_model_based_3d_engineering',2020,#1181);
#1181=APPLICATION_CONTEXT('managed model based 3d engineering');
ENDSEC;
END-ISO-10303-21;
