ISO-10303-21;
HEADER;
/* Generated by software containing ST-Developer
 * from STEP Tools, Inc. (www.steptools.com) 
 */
/* OPTION: using custom renumber hook */

FILE_DESCRIPTION(
/* description */ ('STEP AP242 Edition 2',
'CAx-IF Rec.Pracs.---Representation and Presentation of Product Manufa
cturing Information (PMI)---4.0---2014-10-13',
'CAx-IF Rec.Pracs.---3D Tessellated Geometry---0.4---2014-09-14','2;1',
'CAx-IF Rec.Pracs.---User Defined Attributes---1.5---2016-08-15'),
/* implementation_level */ '2;1');

FILE_NAME(
/* name */ 'Part Studio 1 - Top',
/* time_stamp */ '2026-08-15T16:05:43Z',
/* author */ (''),
/* organization */ (''),
/* preprocessor_version */ 'ST-DEVELOPER v20',
/* originating_system */ 'ONSHAPE BY PTC INC, 1.219',
/* authorisation */ '  ');

FILE_SCHEMA (('AP242_MANAGED_MODEL_BASED_3D_ENGINEERING_MIM_LF { 1 0 10303 442 3 1 4 }'));
ENDSEC;

DATA;
#10=SHAPE_REPRESENTATION_RELATIONSHIP('','',#1011,#11);
#11=ADVANCED_BREP_SHAPE_REPRESENTATION('',(#1009),#1797);
#12=B_SPLINE_SURFACE_WITH_KNOTS('',3,1,((#1601,#1602),(#1603,#1604),(#1605,
#1606),(#1607,#1608),(#1609,#1610)),.SURF_OF_LINEAR_EXTRUSION.,.F.,.F.,
 .F.,(4,1,4),(2,2),(0.,0.000318658320046702,0.000637316640093404),(0.,1.),
 .UNSPECIFIED.);
#13=B_SPLINE_SURFACE_WITH_KNOTS('',3,1,((#1632,#1633),(#1634,#1635),(#1636,
#1637),(#1638,#1639),(#1640,#1641)),.SURF_OF_LINEAR_EXTRUSION.,.F.,.F.,
 .F.,(4,1,4),(2,2),(0.,0.000318658320046702,0.000637316640093404),(0.,1.),
 .UNSPECIFIED.);
#14=B_SPLINE_SURFACE_WITH_KNOTS('',3,1,((#1655,#1656),(#1657,#1658),(#1659,
#1660),(#1661,#1662),(#1663,#1664)),.SURF_OF_LINEAR_EXTRUSION.,.F.,.F.,
 .F.,(4,1,4),(2,2),(0.,0.000318611021145334,0.000637222042290669),(0.,1.),
 .UNSPECIFIED.);
#15=B_SPLINE_SURFACE_WITH_KNOTS('',3,1,((#1686,#1687),(#1688,#1689),(#1690,
#1691),(#1692,#1693),(#1694,#1695),(#1696,#1697),(#1698,#1699)),
 .SURF_OF_LINEAR_EXTRUSION.,.F.,.F.,.F.,(4,1,1,1,4),(2,2),(4.990978682776,
5.63708199497775,6.2831853071795,6.92928861938125,7.575391931583),(0.,1.),
 .UNSPECIFIED.);
#16=B_SPLINE_SURFACE_WITH_KNOTS('',3,1,((#1719,#1720),(#1721,#1722),(#1723,
#1724),(#1725,#1726),(#1727,#1728),(#1729,#1730),(#1731,#1732)),
 .SURF_OF_LINEAR_EXTRUSION.,.F.,.F.,.F.,(4,1,1,1,4),(2,2),(1.849386029187,
2.4954893413885,3.14159265359,3.7876959657915,4.433799277993),(0.,1.),
 .UNSPECIFIED.);
#17=B_SPLINE_CURVE_WITH_KNOTS('',3,(#1525,#1526,#1527,#1528,#1529,#1530,
#1531,#1532,#1533,#1534,#1535),.UNSPECIFIED.,.F.,.F.,(4,1,1,1,1,1,1,1,4),
(4.990978682776,5.31403033887687,5.63708199497775,5.96013365107863,6.2831853071795,
6.60623696328037,6.92928861938125,7.25234027548212,7.575391931583),
 .QUASI_UNIFORM_KNOTS.);
#18=B_SPLINE_CURVE_WITH_KNOTS('',3,(#1540,#1541,#1542,#1543,#1544,#1545,
#1546,#1547,#1548,#1549,#1550),.UNSPECIFIED.,.F.,.F.,(4,1,1,1,1,1,1,1,4),
(1.849386029187,2.17243768528775,2.4954893413885,2.81854099748925,3.14159265359,
3.46464430969075,3.7876959657915,4.11074762189225,4.433799277993),
 .QUASI_UNIFORM_KNOTS.);
#19=B_SPLINE_CURVE_WITH_KNOTS('',3,(#1556,#1557,#1558,#1559,#1560,#1561,
#1562),.UNSPECIFIED.,.F.,.F.,(4,1,1,1,4),(0.,0.000159329160023351,0.000318658320046702,
0.000477987480070053,0.000637316640093404),.QUASI_UNIFORM_KNOTS.);
#20=B_SPLINE_CURVE_WITH_KNOTS('',3,(#1570,#1571,#1572,#1573,#1574,#1575,
#1576),.UNSPECIFIED.,.F.,.F.,(4,1,1,1,4),(0.,0.000159329160023351,0.000318658320046702,
0.000477987480070053,0.000637316640093404),.QUASI_UNIFORM_KNOTS.);
#21=B_SPLINE_CURVE_WITH_KNOTS('',3,(#1580,#1581,#1582,#1583,#1584,#1585,
#1586),.UNSPECIFIED.,.F.,.F.,(4,1,1,1,4),(0.,0.000159305510572667,0.000318611021145334,
0.000477916531718002,0.000637222042290669),.QUASI_UNIFORM_KNOTS.);
#22=B_SPLINE_CURVE_WITH_KNOTS('',3,(#1611,#1612,#1613,#1614,#1615,#1616,
#1617),.UNSPECIFIED.,.F.,.F.,(4,1,1,1,4),(0.,0.000159329160023351,0.000318658320046702,
0.000477987480070053,0.000637316640093404),.QUASI_UNIFORM_KNOTS.);
#23=B_SPLINE_CURVE_WITH_KNOTS('',3,(#1642,#1643,#1644,#1645,#1646,#1647,
#1648),.UNSPECIFIED.,.F.,.F.,(4,1,1,1,4),(0.,0.000159329160023351,0.000318658320046702,
0.000477987480070053,0.000637316640093404),.QUASI_UNIFORM_KNOTS.);
#24=B_SPLINE_CURVE_WITH_KNOTS('',3,(#1665,#1666,#1667,#1668,#1669,#1670,
#1671),.UNSPECIFIED.,.F.,.F.,(4,1,1,1,4),(0.,0.000159305510572667,0.000318611021145334,
0.000477916531718002,0.000637222042290669),.QUASI_UNIFORM_KNOTS.);
#25=B_SPLINE_CURVE_WITH_KNOTS('',3,(#1702,#1703,#1704,#1705,#1706,#1707,
#1708,#1709,#1710,#1711,#1712),.UNSPECIFIED.,.F.,.F.,(4,1,1,1,1,1,1,1,4),
(4.990978682776,5.31403033887687,5.63708199497775,5.96013365107863,6.2831853071795,
6.60623696328037,6.92928861938125,7.25234027548212,7.575391931583),
 .QUASI_UNIFORM_KNOTS.);
#26=B_SPLINE_CURVE_WITH_KNOTS('',3,(#1733,#1734,#1735,#1736,#1737,#1738,
#1739,#1740,#1741,#1742,#1743),.UNSPECIFIED.,.F.,.F.,(4,1,1,1,1,1,1,1,4),
(1.849386029187,2.17243768528775,2.4954893413885,2.81854099748925,3.14159265359,
3.46464430969075,3.7876959657915,4.11074762189225,4.433799277993),
 .QUASI_UNIFORM_KNOTS.);
#27=CYLINDRICAL_SURFACE('',#1034,0.002999999252925);
#28=CYLINDRICAL_SURFACE('',#1036,0.00299999925292501);
#29=CYLINDRICAL_SURFACE('',#1038,0.00299999925292499);
#30=CYLINDRICAL_SURFACE('',#1040,0.00299999925292501);
#31=CYLINDRICAL_SURFACE('',#1047,0.00699999925292501);
#32=CYLINDRICAL_SURFACE('',#1050,0.006999999252925);
#33=CYLINDRICAL_SURFACE('',#1053,0.006999999252925);
#34=CYLINDRICAL_SURFACE('',#1056,0.006999999252925);
#35=CYLINDRICAL_SURFACE('',#1066,0.00131851114951114);
#36=CYLINDRICAL_SURFACE('',#1071,0.00087283696419934);
#37=CYLINDRICAL_SURFACE('',#1074,0.00362471687687465);
#38=CYLINDRICAL_SURFACE('',#1076,0.0036247165281882);
#39=CYLINDRICAL_SURFACE('',#1078,0.000872795044312623);
#40=CYLINDRICAL_SURFACE('',#1082,0.00375);
#41=CYLINDRICAL_SURFACE('',#1085,0.00375);
#42=CYLINDRICAL_SURFACE('',#1086,0.00375);
#43=CYLINDRICAL_SURFACE('',#1087,0.00375);
#44=CYLINDRICAL_SURFACE('',#1092,0.00135);
#45=CYLINDRICAL_SURFACE('',#1095,0.00135);
#46=CYLINDRICAL_SURFACE('',#1098,0.00135);
#47=CYLINDRICAL_SURFACE('',#1101,0.00135);
#48=LINE('',#1382,#136);
#49=LINE('',#1385,#137);
#50=LINE('',#1387,#138);
#51=LINE('',#1391,#139);
#52=LINE('',#1395,#140);
#53=LINE('',#1399,#141);
#54=LINE('',#1403,#142);
#55=LINE('',#1405,#143);
#56=LINE('',#1407,#144);
#57=LINE('',#1411,#145);
#58=LINE('',#1415,#146);
#59=LINE('',#1419,#147);
#60=LINE('',#1429,#148);
#61=LINE('',#1431,#149);
#62=LINE('',#1433,#150);
#63=LINE('',#1436,#151);
#64=LINE('',#1440,#152);
#65=LINE('',#1444,#153);
#66=LINE('',#1446,#154);
#67=LINE('',#1449,#155);
#68=LINE('',#1450,#156);
#69=LINE('',#1452,#157);
#70=LINE('',#1455,#158);
#71=LINE('',#1456,#159);
#72=LINE('',#1458,#160);
#73=LINE('',#1461,#161);
#74=LINE('',#1462,#162);
#75=LINE('',#1474,#163);
#76=LINE('',#1478,#164);
#77=LINE('',#1482,#165);
#78=LINE('',#1485,#166);
#79=LINE('',#1487,#167);
#80=LINE('',#1489,#168);
#81=LINE('',#1491,#169);
#82=LINE('',#1495,#170);
#83=LINE('',#1497,#171);
#84=LINE('',#1499,#172);
#85=LINE('',#1503,#173);
#86=LINE('',#1505,#174);
#87=LINE('',#1507,#175);
#88=LINE('',#1511,#176);
#89=LINE('',#1513,#177);
#90=LINE('',#1517,#178);
#91=LINE('',#1520,#179);
#92=LINE('',#1522,#180);
#93=LINE('',#1524,#181);
#94=LINE('',#1553,#182);
#95=LINE('',#1564,#183);
#96=LINE('',#1568,#184);
#97=LINE('',#1578,#185);
#98=LINE('',#1588,#186);
#99=LINE('',#1592,#187);
#100=LINE('',#1596,#188);
#101=LINE('',#1598,#189);
#102=LINE('',#1600,#190);
#103=LINE('',#1619,#191);
#104=LINE('',#1621,#192);
#105=LINE('',#1623,#193);
#106=LINE('',#1627,#194);
#107=LINE('',#1629,#195);
#108=LINE('',#1631,#196);
#109=LINE('',#1650,#197);
#110=LINE('',#1652,#198);
#111=LINE('',#1654,#199);
#112=LINE('',#1673,#200);
#113=LINE('',#1675,#201);
#114=LINE('',#1677,#202);
#115=LINE('',#1681,#203);
#116=LINE('',#1683,#204);
#117=LINE('',#1685,#205);
#118=LINE('',#1700,#206);
#119=LINE('',#1714,#207);
#120=LINE('',#1718,#208);
#121=LINE('',#1745,#209);
#122=LINE('',#1751,#210);
#123=LINE('',#1754,#211);
#124=LINE('',#1756,#212);
#125=LINE('',#1758,#213);
#126=LINE('',#1760,#214);
#127=LINE('',#1761,#215);
#128=LINE('',#1763,#216);
#129=LINE('',#1765,#217);
#130=LINE('',#1767,#218);
#131=LINE('',#1768,#219);
#132=LINE('',#1773,#220);
#133=LINE('',#1774,#221);
#134=LINE('',#1776,#222);
#135=LINE('',#1778,#223);
#136=VECTOR('',#1112,1.);
#137=VECTOR('',#1113,1.);
#138=VECTOR('',#1114,1.);
#139=VECTOR('',#1117,1.);
#140=VECTOR('',#1120,1.);
#141=VECTOR('',#1123,1.);
#142=VECTOR('',#1126,1.);
#143=VECTOR('',#1127,1.);
#144=VECTOR('',#1128,1.);
#145=VECTOR('',#1131,1.);
#146=VECTOR('',#1134,1.);
#147=VECTOR('',#1137,1.);
#148=VECTOR('',#1148,1.);
#149=VECTOR('',#1149,1.);
#150=VECTOR('',#1150,1.);
#151=VECTOR('',#1153,1.);
#152=VECTOR('',#1156,1.);
#153=VECTOR('',#1159,1.);
#154=VECTOR('',#1162,1.);
#155=VECTOR('',#1163,1.);
#156=VECTOR('',#1164,1.);
#157=VECTOR('',#1167,1.);
#158=VECTOR('',#1168,1.);
#159=VECTOR('',#1169,1.);
#160=VECTOR('',#1172,1.);
#161=VECTOR('',#1173,1.);
#162=VECTOR('',#1174,1.);
#163=VECTOR('',#1195,1.);
#164=VECTOR('',#1198,1.);
#165=VECTOR('',#1201,1.);
#166=VECTOR('',#1204,1.);
#167=VECTOR('',#1205,1.);
#168=VECTOR('',#1206,1.);
#169=VECTOR('',#1209,1.);
#170=VECTOR('',#1214,1.);
#171=VECTOR('',#1215,1.);
#172=VECTOR('',#1218,1.);
#173=VECTOR('',#1223,1.);
#174=VECTOR('',#1224,1.);
#175=VECTOR('',#1227,1.);
#176=VECTOR('',#1232,1.);
#177=VECTOR('',#1233,1.);
#178=VECTOR('',#1240,1.);
#179=VECTOR('',#1241,1.);
#180=VECTOR('',#1242,1.);
#181=VECTOR('',#1243,1.);
#182=VECTOR('',#1248,1.);
#183=VECTOR('',#1249,1.);
#184=VECTOR('',#1252,1.);
#185=VECTOR('',#1253,1.);
#186=VECTOR('',#1254,1.);
#187=VECTOR('',#1257,1.);
#188=VECTOR('',#1262,1.);
#189=VECTOR('',#1263,1.);
#190=VECTOR('',#1264,1.);
#191=VECTOR('',#1265,1.);
#192=VECTOR('',#1268,1.);
#193=VECTOR('',#1269,1.);
#194=VECTOR('',#1274,1.);
#195=VECTOR('',#1277,1.);
#196=VECTOR('',#1278,1.);
#197=VECTOR('',#1279,1.);
#198=VECTOR('',#1282,1.);
#199=VECTOR('',#1283,1.);
#200=VECTOR('',#1284,1.);
#201=VECTOR('',#1287,1.);
#202=VECTOR('',#1288,1.);
#203=VECTOR('',#1293,1.);
#204=VECTOR('',#1296,1.);
#205=VECTOR('',#1297,1.);
#206=VECTOR('',#1298,1.);
#207=VECTOR('',#1299,1.);
#208=VECTOR('',#1304,1.);
#209=VECTOR('',#1305,1.);
#210=VECTOR('',#1316,1.);
#211=VECTOR('',#1317,1.);
#212=VECTOR('',#1318,1.);
#213=VECTOR('',#1319,1.);
#214=VECTOR('',#1322,1.);
#215=VECTOR('',#1323,1.);
#216=VECTOR('',#1326,1.);
#217=VECTOR('',#1329,1.);
#218=VECTOR('',#1332,1.);
#219=VECTOR('',#1333,1.);
#220=VECTOR('',#1342,1.);
#221=VECTOR('',#1343,1.);
#222=VECTOR('',#1346,1.);
#223=VECTOR('',#1349,1.);
#224=ORIENTED_EDGE('',*,*,#504,.T.);
#225=ORIENTED_EDGE('',*,*,#505,.F.);
#226=ORIENTED_EDGE('',*,*,#506,.F.);
#227=ORIENTED_EDGE('',*,*,#507,.T.);
#228=ORIENTED_EDGE('',*,*,#508,.T.);
#229=ORIENTED_EDGE('',*,*,#509,.T.);
#230=ORIENTED_EDGE('',*,*,#510,.T.);
#231=ORIENTED_EDGE('',*,*,#511,.T.);
#232=ORIENTED_EDGE('',*,*,#512,.T.);
#233=ORIENTED_EDGE('',*,*,#513,.T.);
#234=ORIENTED_EDGE('',*,*,#514,.T.);
#235=ORIENTED_EDGE('',*,*,#515,.T.);
#236=ORIENTED_EDGE('',*,*,#516,.T.);
#237=ORIENTED_EDGE('',*,*,#517,.T.);
#238=ORIENTED_EDGE('',*,*,#518,.F.);
#239=ORIENTED_EDGE('',*,*,#519,.F.);
#240=ORIENTED_EDGE('',*,*,#520,.F.);
#241=ORIENTED_EDGE('',*,*,#521,.F.);
#242=ORIENTED_EDGE('',*,*,#522,.F.);
#243=ORIENTED_EDGE('',*,*,#523,.F.);
#244=ORIENTED_EDGE('',*,*,#524,.F.);
#245=ORIENTED_EDGE('',*,*,#525,.F.);
#246=ORIENTED_EDGE('',*,*,#526,.F.);
#247=ORIENTED_EDGE('',*,*,#527,.T.);
#248=ORIENTED_EDGE('',*,*,#528,.F.);
#249=ORIENTED_EDGE('',*,*,#506,.T.);
#250=ORIENTED_EDGE('',*,*,#529,.F.);
#251=ORIENTED_EDGE('',*,*,#530,.F.);
#252=ORIENTED_EDGE('',*,*,#531,.T.);
#253=ORIENTED_EDGE('',*,*,#518,.T.);
#254=ORIENTED_EDGE('',*,*,#532,.F.);
#255=ORIENTED_EDGE('',*,*,#533,.F.);
#256=ORIENTED_EDGE('',*,*,#534,.F.);
#257=ORIENTED_EDGE('',*,*,#535,.F.);
#258=ORIENTED_EDGE('',*,*,#536,.F.);
#259=ORIENTED_EDGE('',*,*,#537,.F.);
#260=ORIENTED_EDGE('',*,*,#538,.F.);
#261=ORIENTED_EDGE('',*,*,#539,.T.);
#262=ORIENTED_EDGE('',*,*,#524,.T.);
#263=ORIENTED_EDGE('',*,*,#540,.F.);
#264=ORIENTED_EDGE('',*,*,#541,.F.);
#265=ORIENTED_EDGE('',*,*,#542,.T.);
#266=ORIENTED_EDGE('',*,*,#522,.T.);
#267=ORIENTED_EDGE('',*,*,#543,.F.);
#268=ORIENTED_EDGE('',*,*,#544,.F.);
#269=ORIENTED_EDGE('',*,*,#545,.T.);
#270=ORIENTED_EDGE('',*,*,#520,.T.);
#271=ORIENTED_EDGE('',*,*,#546,.F.);
#272=ORIENTED_EDGE('',*,*,#547,.F.);
#273=ORIENTED_EDGE('',*,*,#546,.T.);
#274=ORIENTED_EDGE('',*,*,#519,.T.);
#275=ORIENTED_EDGE('',*,*,#531,.F.);
#276=ORIENTED_EDGE('',*,*,#548,.F.);
#277=ORIENTED_EDGE('',*,*,#529,.T.);
#278=ORIENTED_EDGE('',*,*,#525,.T.);
#279=ORIENTED_EDGE('',*,*,#539,.F.);
#280=ORIENTED_EDGE('',*,*,#549,.F.);
#281=ORIENTED_EDGE('',*,*,#540,.T.);
#282=ORIENTED_EDGE('',*,*,#523,.T.);
#283=ORIENTED_EDGE('',*,*,#542,.F.);
#284=ORIENTED_EDGE('',*,*,#550,.F.);
#285=ORIENTED_EDGE('',*,*,#543,.T.);
#286=ORIENTED_EDGE('',*,*,#521,.T.);
#287=ORIENTED_EDGE('',*,*,#545,.F.);
#288=ORIENTED_EDGE('',*,*,#508,.F.);
#289=ORIENTED_EDGE('',*,*,#551,.T.);
#290=ORIENTED_EDGE('',*,*,#552,.T.);
#291=ORIENTED_EDGE('',*,*,#553,.T.);
#292=ORIENTED_EDGE('',*,*,#554,.T.);
#293=ORIENTED_EDGE('',*,*,#555,.T.);
#294=ORIENTED_EDGE('',*,*,#556,.T.);
#295=ORIENTED_EDGE('',*,*,#557,.T.);
#296=ORIENTED_EDGE('',*,*,#516,.F.);
#297=ORIENTED_EDGE('',*,*,#558,.F.);
#298=ORIENTED_EDGE('',*,*,#559,.T.);
#299=ORIENTED_EDGE('',*,*,#560,.T.);
#300=ORIENTED_EDGE('',*,*,#515,.F.);
#301=ORIENTED_EDGE('',*,*,#561,.F.);
#302=ORIENTED_EDGE('',*,*,#562,.T.);
#303=ORIENTED_EDGE('',*,*,#558,.T.);
#304=ORIENTED_EDGE('',*,*,#514,.F.);
#305=ORIENTED_EDGE('',*,*,#563,.F.);
#306=ORIENTED_EDGE('',*,*,#564,.T.);
#307=ORIENTED_EDGE('',*,*,#561,.T.);
#308=ORIENTED_EDGE('',*,*,#513,.F.);
#309=ORIENTED_EDGE('',*,*,#565,.F.);
#310=ORIENTED_EDGE('',*,*,#566,.T.);
#311=ORIENTED_EDGE('',*,*,#563,.T.);
#312=ORIENTED_EDGE('',*,*,#512,.F.);
#313=ORIENTED_EDGE('',*,*,#567,.F.);
#314=ORIENTED_EDGE('',*,*,#568,.T.);
#315=ORIENTED_EDGE('',*,*,#565,.T.);
#316=ORIENTED_EDGE('',*,*,#511,.F.);
#317=ORIENTED_EDGE('',*,*,#569,.F.);
#318=ORIENTED_EDGE('',*,*,#570,.T.);
#319=ORIENTED_EDGE('',*,*,#567,.T.);
#320=ORIENTED_EDGE('',*,*,#510,.F.);
#321=ORIENTED_EDGE('',*,*,#571,.F.);
#322=ORIENTED_EDGE('',*,*,#572,.T.);
#323=ORIENTED_EDGE('',*,*,#569,.T.);
#324=ORIENTED_EDGE('',*,*,#509,.F.);
#325=ORIENTED_EDGE('',*,*,#560,.F.);
#326=ORIENTED_EDGE('',*,*,#573,.T.);
#327=ORIENTED_EDGE('',*,*,#571,.T.);
#328=ORIENTED_EDGE('',*,*,#574,.T.);
#329=ORIENTED_EDGE('',*,*,#575,.T.);
#330=ORIENTED_EDGE('',*,*,#576,.T.);
#331=ORIENTED_EDGE('',*,*,#577,.T.);
#332=ORIENTED_EDGE('',*,*,#559,.F.);
#333=ORIENTED_EDGE('',*,*,#562,.F.);
#334=ORIENTED_EDGE('',*,*,#564,.F.);
#335=ORIENTED_EDGE('',*,*,#566,.F.);
#336=ORIENTED_EDGE('',*,*,#568,.F.);
#337=ORIENTED_EDGE('',*,*,#570,.F.);
#338=ORIENTED_EDGE('',*,*,#572,.F.);
#339=ORIENTED_EDGE('',*,*,#573,.F.);
#340=ORIENTED_EDGE('',*,*,#578,.F.);
#341=ORIENTED_EDGE('',*,*,#579,.F.);
#342=ORIENTED_EDGE('',*,*,#580,.F.);
#343=ORIENTED_EDGE('',*,*,#581,.F.);
#344=ORIENTED_EDGE('',*,*,#582,.F.);
#345=ORIENTED_EDGE('',*,*,#583,.T.);
#346=ORIENTED_EDGE('',*,*,#584,.F.);
#347=ORIENTED_EDGE('',*,*,#585,.T.);
#348=ORIENTED_EDGE('',*,*,#586,.F.);
#349=ORIENTED_EDGE('',*,*,#587,.T.);
#350=ORIENTED_EDGE('',*,*,#588,.F.);
#351=ORIENTED_EDGE('',*,*,#589,.T.);
#352=ORIENTED_EDGE('',*,*,#590,.F.);
#353=ORIENTED_EDGE('',*,*,#591,.T.);
#354=ORIENTED_EDGE('',*,*,#592,.F.);
#355=ORIENTED_EDGE('',*,*,#593,.T.);
#356=ORIENTED_EDGE('',*,*,#582,.T.);
#357=ORIENTED_EDGE('',*,*,#594,.F.);
#358=ORIENTED_EDGE('',*,*,#595,.F.);
#359=ORIENTED_EDGE('',*,*,#596,.T.);
#360=ORIENTED_EDGE('',*,*,#583,.F.);
#361=ORIENTED_EDGE('',*,*,#596,.F.);
#362=ORIENTED_EDGE('',*,*,#597,.T.);
#363=ORIENTED_EDGE('',*,*,#598,.T.);
#364=ORIENTED_EDGE('',*,*,#584,.T.);
#365=ORIENTED_EDGE('',*,*,#598,.F.);
#366=ORIENTED_EDGE('',*,*,#599,.F.);
#367=ORIENTED_EDGE('',*,*,#600,.T.);
#368=ORIENTED_EDGE('',*,*,#585,.F.);
#369=ORIENTED_EDGE('',*,*,#600,.F.);
#370=ORIENTED_EDGE('',*,*,#601,.T.);
#371=ORIENTED_EDGE('',*,*,#602,.T.);
#372=ORIENTED_EDGE('',*,*,#586,.T.);
#373=ORIENTED_EDGE('',*,*,#602,.F.);
#374=ORIENTED_EDGE('',*,*,#603,.F.);
#375=ORIENTED_EDGE('',*,*,#604,.T.);
#376=ORIENTED_EDGE('',*,*,#587,.F.);
#377=ORIENTED_EDGE('',*,*,#604,.F.);
#378=ORIENTED_EDGE('',*,*,#605,.T.);
#379=ORIENTED_EDGE('',*,*,#606,.T.);
#380=ORIENTED_EDGE('',*,*,#588,.T.);
#381=ORIENTED_EDGE('',*,*,#606,.F.);
#382=ORIENTED_EDGE('',*,*,#607,.F.);
#383=ORIENTED_EDGE('',*,*,#608,.T.);
#384=ORIENTED_EDGE('',*,*,#589,.F.);
#385=ORIENTED_EDGE('',*,*,#608,.F.);
#386=ORIENTED_EDGE('',*,*,#609,.T.);
#387=ORIENTED_EDGE('',*,*,#610,.T.);
#388=ORIENTED_EDGE('',*,*,#590,.T.);
#389=ORIENTED_EDGE('',*,*,#610,.F.);
#390=ORIENTED_EDGE('',*,*,#611,.F.);
#391=ORIENTED_EDGE('',*,*,#612,.T.);
#392=ORIENTED_EDGE('',*,*,#591,.F.);
#393=ORIENTED_EDGE('',*,*,#612,.F.);
#394=ORIENTED_EDGE('',*,*,#613,.T.);
#395=ORIENTED_EDGE('',*,*,#614,.T.);
#396=ORIENTED_EDGE('',*,*,#592,.T.);
#397=ORIENTED_EDGE('',*,*,#614,.F.);
#398=ORIENTED_EDGE('',*,*,#615,.F.);
#399=ORIENTED_EDGE('',*,*,#616,.T.);
#400=ORIENTED_EDGE('',*,*,#578,.T.);
#401=ORIENTED_EDGE('',*,*,#617,.F.);
#402=ORIENTED_EDGE('',*,*,#618,.F.);
#403=ORIENTED_EDGE('',*,*,#619,.T.);
#404=ORIENTED_EDGE('',*,*,#579,.T.);
#405=ORIENTED_EDGE('',*,*,#619,.F.);
#406=ORIENTED_EDGE('',*,*,#620,.F.);
#407=ORIENTED_EDGE('',*,*,#621,.T.);
#408=ORIENTED_EDGE('',*,*,#580,.T.);
#409=ORIENTED_EDGE('',*,*,#621,.F.);
#410=ORIENTED_EDGE('',*,*,#622,.F.);
#411=ORIENTED_EDGE('',*,*,#623,.T.);
#412=ORIENTED_EDGE('',*,*,#581,.T.);
#413=ORIENTED_EDGE('',*,*,#623,.F.);
#414=ORIENTED_EDGE('',*,*,#624,.F.);
#415=ORIENTED_EDGE('',*,*,#617,.T.);
#416=ORIENTED_EDGE('',*,*,#593,.F.);
#417=ORIENTED_EDGE('',*,*,#616,.F.);
#418=ORIENTED_EDGE('',*,*,#625,.T.);
#419=ORIENTED_EDGE('',*,*,#594,.T.);
#420=ORIENTED_EDGE('',*,*,#618,.T.);
#421=ORIENTED_EDGE('',*,*,#624,.T.);
#422=ORIENTED_EDGE('',*,*,#622,.T.);
#423=ORIENTED_EDGE('',*,*,#620,.T.);
#424=ORIENTED_EDGE('',*,*,#626,.T.);
#425=ORIENTED_EDGE('',*,*,#627,.T.);
#426=ORIENTED_EDGE('',*,*,#628,.T.);
#427=ORIENTED_EDGE('',*,*,#629,.T.);
#428=ORIENTED_EDGE('',*,*,#547,.T.);
#429=ORIENTED_EDGE('',*,*,#530,.T.);
#430=ORIENTED_EDGE('',*,*,#548,.T.);
#431=ORIENTED_EDGE('',*,*,#538,.T.);
#432=ORIENTED_EDGE('',*,*,#549,.T.);
#433=ORIENTED_EDGE('',*,*,#541,.T.);
#434=ORIENTED_EDGE('',*,*,#550,.T.);
#435=ORIENTED_EDGE('',*,*,#544,.T.);
#436=ORIENTED_EDGE('',*,*,#595,.T.);
#437=ORIENTED_EDGE('',*,*,#625,.F.);
#438=ORIENTED_EDGE('',*,*,#615,.T.);
#439=ORIENTED_EDGE('',*,*,#613,.F.);
#440=ORIENTED_EDGE('',*,*,#611,.T.);
#441=ORIENTED_EDGE('',*,*,#609,.F.);
#442=ORIENTED_EDGE('',*,*,#607,.T.);
#443=ORIENTED_EDGE('',*,*,#605,.F.);
#444=ORIENTED_EDGE('',*,*,#603,.T.);
#445=ORIENTED_EDGE('',*,*,#601,.F.);
#446=ORIENTED_EDGE('',*,*,#599,.T.);
#447=ORIENTED_EDGE('',*,*,#597,.F.);
#448=ORIENTED_EDGE('',*,*,#535,.T.);
#449=ORIENTED_EDGE('',*,*,#630,.F.);
#450=ORIENTED_EDGE('',*,*,#554,.F.);
#451=ORIENTED_EDGE('',*,*,#631,.T.);
#452=ORIENTED_EDGE('',*,*,#536,.T.);
#453=ORIENTED_EDGE('',*,*,#631,.F.);
#454=ORIENTED_EDGE('',*,*,#553,.F.);
#455=ORIENTED_EDGE('',*,*,#632,.T.);
#456=ORIENTED_EDGE('',*,*,#537,.T.);
#457=ORIENTED_EDGE('',*,*,#632,.F.);
#458=ORIENTED_EDGE('',*,*,#552,.F.);
#459=ORIENTED_EDGE('',*,*,#633,.T.);
#460=ORIENTED_EDGE('',*,*,#533,.T.);
#461=ORIENTED_EDGE('',*,*,#634,.F.);
#462=ORIENTED_EDGE('',*,*,#556,.F.);
#463=ORIENTED_EDGE('',*,*,#635,.T.);
#464=ORIENTED_EDGE('',*,*,#534,.T.);
#465=ORIENTED_EDGE('',*,*,#635,.F.);
#466=ORIENTED_EDGE('',*,*,#555,.F.);
#467=ORIENTED_EDGE('',*,*,#630,.T.);
#468=ORIENTED_EDGE('',*,*,#528,.T.);
#469=ORIENTED_EDGE('',*,*,#633,.F.);
#470=ORIENTED_EDGE('',*,*,#551,.F.);
#471=ORIENTED_EDGE('',*,*,#507,.F.);
#472=ORIENTED_EDGE('',*,*,#532,.T.);
#473=ORIENTED_EDGE('',*,*,#517,.F.);
#474=ORIENTED_EDGE('',*,*,#557,.F.);
#475=ORIENTED_EDGE('',*,*,#634,.T.);
#476=ORIENTED_EDGE('',*,*,#636,.F.);
#477=ORIENTED_EDGE('',*,*,#577,.F.);
#478=ORIENTED_EDGE('',*,*,#637,.F.);
#479=ORIENTED_EDGE('',*,*,#627,.F.);
#480=ORIENTED_EDGE('',*,*,#637,.T.);
#481=ORIENTED_EDGE('',*,*,#576,.F.);
#482=ORIENTED_EDGE('',*,*,#638,.F.);
#483=ORIENTED_EDGE('',*,*,#628,.F.);
#484=ORIENTED_EDGE('',*,*,#636,.T.);
#485=ORIENTED_EDGE('',*,*,#626,.F.);
#486=ORIENTED_EDGE('',*,*,#639,.F.);
#487=ORIENTED_EDGE('',*,*,#574,.F.);
#488=ORIENTED_EDGE('',*,*,#638,.T.);
#489=ORIENTED_EDGE('',*,*,#575,.F.);
#490=ORIENTED_EDGE('',*,*,#639,.T.);
#491=ORIENTED_EDGE('',*,*,#629,.F.);
#492=ORIENTED_EDGE('',*,*,#640,.F.);
#493=ORIENTED_EDGE('',*,*,#505,.T.);
#494=ORIENTED_EDGE('',*,*,#640,.T.);
#495=ORIENTED_EDGE('',*,*,#641,.T.);
#496=ORIENTED_EDGE('',*,*,#504,.F.);
#497=ORIENTED_EDGE('',*,*,#641,.F.);
#498=ORIENTED_EDGE('',*,*,#642,.F.);
#499=ORIENTED_EDGE('',*,*,#526,.T.);
#500=ORIENTED_EDGE('',*,*,#642,.T.);
#501=ORIENTED_EDGE('',*,*,#643,.T.);
#502=ORIENTED_EDGE('',*,*,#527,.F.);
#503=ORIENTED_EDGE('',*,*,#643,.F.);
#504=EDGE_CURVE('',#644,#644,#740,.T.);
#505=EDGE_CURVE('',#645,#645,#741,.T.);
#506=EDGE_CURVE('',#646,#647,#48,.T.);
#507=EDGE_CURVE('',#646,#648,#49,.F.);
#508=EDGE_CURVE('',#648,#649,#50,.T.);
#509=EDGE_CURVE('',#649,#650,#742,.T.);
#510=EDGE_CURVE('',#650,#651,#51,.T.);
#511=EDGE_CURVE('',#651,#652,#743,.T.);
#512=EDGE_CURVE('',#652,#653,#52,.T.);
#513=EDGE_CURVE('',#653,#654,#744,.T.);
#514=EDGE_CURVE('',#654,#655,#53,.T.);
#515=EDGE_CURVE('',#655,#656,#745,.T.);
#516=EDGE_CURVE('',#656,#657,#54,.T.);
#517=EDGE_CURVE('',#657,#658,#55,.T.);
#518=EDGE_CURVE('',#659,#658,#56,.T.);
#519=EDGE_CURVE('',#660,#659,#746,.T.);
#520=EDGE_CURVE('',#661,#660,#57,.T.);
#521=EDGE_CURVE('',#662,#661,#747,.T.);
#522=EDGE_CURVE('',#663,#662,#58,.T.);
#523=EDGE_CURVE('',#664,#663,#748,.T.);
#524=EDGE_CURVE('',#665,#664,#59,.T.);
#525=EDGE_CURVE('',#647,#665,#749,.T.);
#526=EDGE_CURVE('',#666,#666,#750,.T.);
#527=EDGE_CURVE('',#667,#667,#751,.T.);
#528=EDGE_CURVE('',#646,#668,#752,.F.);
#529=EDGE_CURVE('',#669,#647,#60,.T.);
#530=EDGE_CURVE('',#670,#669,#61,.T.);
#531=EDGE_CURVE('',#670,#659,#62,.T.);
#532=EDGE_CURVE('',#671,#658,#753,.F.);
#533=EDGE_CURVE('',#672,#671,#63,.T.);
#534=EDGE_CURVE('',#673,#672,#754,.F.);
#535=EDGE_CURVE('',#674,#673,#64,.T.);
#536=EDGE_CURVE('',#675,#674,#755,.F.);
#537=EDGE_CURVE('',#668,#675,#65,.T.);
#538=EDGE_CURVE('',#676,#677,#66,.T.);
#539=EDGE_CURVE('',#676,#665,#67,.T.);
#540=EDGE_CURVE('',#677,#664,#68,.T.);
#541=EDGE_CURVE('',#678,#679,#69,.T.);
#542=EDGE_CURVE('',#678,#663,#70,.T.);
#543=EDGE_CURVE('',#679,#662,#71,.T.);
#544=EDGE_CURVE('',#680,#681,#72,.T.);
#545=EDGE_CURVE('',#680,#661,#73,.T.);
#546=EDGE_CURVE('',#681,#660,#74,.T.);
#547=EDGE_CURVE('',#681,#670,#756,.T.);
#548=EDGE_CURVE('',#669,#676,#757,.T.);
#549=EDGE_CURVE('',#677,#678,#758,.T.);
#550=EDGE_CURVE('',#679,#680,#759,.T.);
#551=EDGE_CURVE('',#648,#682,#760,.F.);
#552=EDGE_CURVE('',#682,#683,#75,.T.);
#553=EDGE_CURVE('',#683,#684,#761,.F.);
#554=EDGE_CURVE('',#684,#685,#76,.T.);
#555=EDGE_CURVE('',#685,#686,#762,.F.);
#556=EDGE_CURVE('',#686,#687,#77,.T.);
#557=EDGE_CURVE('',#687,#657,#763,.F.);
#558=EDGE_CURVE('',#688,#656,#78,.T.);
#559=EDGE_CURVE('',#688,#689,#79,.T.);
#560=EDGE_CURVE('',#689,#649,#80,.T.);
#561=EDGE_CURVE('',#690,#655,#81,.T.);
#562=EDGE_CURVE('',#690,#688,#764,.T.);
#563=EDGE_CURVE('',#691,#654,#82,.T.);
#564=EDGE_CURVE('',#691,#690,#83,.T.);
#565=EDGE_CURVE('',#692,#653,#84,.T.);
#566=EDGE_CURVE('',#692,#691,#765,.T.);
#567=EDGE_CURVE('',#693,#652,#85,.T.);
#568=EDGE_CURVE('',#693,#692,#86,.T.);
#569=EDGE_CURVE('',#694,#651,#87,.T.);
#570=EDGE_CURVE('',#694,#693,#766,.T.);
#571=EDGE_CURVE('',#695,#650,#88,.T.);
#572=EDGE_CURVE('',#695,#694,#89,.T.);
#573=EDGE_CURVE('',#689,#695,#767,.T.);
#574=EDGE_CURVE('',#696,#697,#90,.T.);
#575=EDGE_CURVE('',#697,#698,#91,.T.);
#576=EDGE_CURVE('',#698,#699,#92,.T.);
#577=EDGE_CURVE('',#699,#696,#93,.T.);
#578=EDGE_CURVE('',#700,#701,#17,.T.);
#579=EDGE_CURVE('',#702,#700,#768,.T.);
#580=EDGE_CURVE('',#703,#702,#18,.T.);
#581=EDGE_CURVE('',#701,#703,#769,.T.);
#582=EDGE_CURVE('',#704,#705,#94,.T.);
#583=EDGE_CURVE('',#704,#706,#19,.T.);
#584=EDGE_CURVE('',#707,#706,#95,.T.);
#585=EDGE_CURVE('',#707,#708,#770,.T.);
#586=EDGE_CURVE('',#709,#708,#96,.T.);
#587=EDGE_CURVE('',#709,#710,#20,.T.);
#588=EDGE_CURVE('',#711,#710,#97,.T.);
#589=EDGE_CURVE('',#711,#712,#21,.T.);
#590=EDGE_CURVE('',#713,#712,#98,.T.);
#591=EDGE_CURVE('',#713,#714,#771,.F.);
#592=EDGE_CURVE('',#715,#714,#99,.T.);
#593=EDGE_CURVE('',#715,#705,#772,.F.);
#594=EDGE_CURVE('',#716,#705,#100,.T.);
#595=EDGE_CURVE('',#717,#716,#101,.T.);
#596=EDGE_CURVE('',#717,#704,#102,.T.);
#597=EDGE_CURVE('',#717,#718,#22,.T.);
#598=EDGE_CURVE('',#718,#706,#103,.T.);
#599=EDGE_CURVE('',#719,#718,#104,.T.);
#600=EDGE_CURVE('',#719,#707,#105,.T.);
#601=EDGE_CURVE('',#719,#720,#773,.T.);
#602=EDGE_CURVE('',#720,#708,#106,.T.);
#603=EDGE_CURVE('',#721,#720,#107,.T.);
#604=EDGE_CURVE('',#721,#709,#108,.T.);
#605=EDGE_CURVE('',#721,#722,#23,.T.);
#606=EDGE_CURVE('',#722,#710,#109,.T.);
#607=EDGE_CURVE('',#723,#722,#110,.T.);
#608=EDGE_CURVE('',#723,#711,#111,.T.);
#609=EDGE_CURVE('',#723,#724,#24,.T.);
#610=EDGE_CURVE('',#724,#712,#112,.T.);
#611=EDGE_CURVE('',#725,#724,#113,.T.);
#612=EDGE_CURVE('',#725,#713,#114,.T.);
#613=EDGE_CURVE('',#725,#726,#774,.F.);
#614=EDGE_CURVE('',#726,#714,#115,.T.);
#615=EDGE_CURVE('',#727,#726,#116,.T.);
#616=EDGE_CURVE('',#727,#715,#117,.T.);
#617=EDGE_CURVE('',#728,#701,#118,.T.);
#618=EDGE_CURVE('',#729,#728,#25,.T.);
#619=EDGE_CURVE('',#729,#700,#119,.T.);
#620=EDGE_CURVE('',#730,#729,#775,.T.);
#621=EDGE_CURVE('',#730,#702,#120,.T.);
#622=EDGE_CURVE('',#731,#730,#26,.T.);
#623=EDGE_CURVE('',#731,#703,#121,.T.);
#624=EDGE_CURVE('',#728,#731,#776,.T.);
#625=EDGE_CURVE('',#727,#716,#777,.F.);
#626=EDGE_CURVE('',#732,#733,#122,.T.);
#627=EDGE_CURVE('',#733,#734,#123,.T.);
#628=EDGE_CURVE('',#734,#735,#124,.T.);
#629=EDGE_CURVE('',#735,#732,#125,.T.);
#630=EDGE_CURVE('',#685,#673,#126,.T.);
#631=EDGE_CURVE('',#684,#674,#127,.T.);
#632=EDGE_CURVE('',#683,#675,#128,.T.);
#633=EDGE_CURVE('',#682,#668,#129,.T.);
#634=EDGE_CURVE('',#687,#671,#130,.T.);
#635=EDGE_CURVE('',#686,#672,#131,.T.);
#636=EDGE_CURVE('',#696,#733,#132,.T.);
#637=EDGE_CURVE('',#734,#699,#133,.F.);
#638=EDGE_CURVE('',#735,#698,#134,.F.);
#639=EDGE_CURVE('',#697,#732,#135,.F.);
#640=EDGE_CURVE('',#736,#736,#778,.T.);
#641=EDGE_CURVE('',#737,#737,#779,.T.);
#642=EDGE_CURVE('',#738,#738,#780,.T.);
#643=EDGE_CURVE('',#739,#739,#781,.T.);
#644=VERTEX_POINT('',#1379);
#645=VERTEX_POINT('',#1381);
#646=VERTEX_POINT('',#1383);
#647=VERTEX_POINT('',#1384);
#648=VERTEX_POINT('',#1386);
#649=VERTEX_POINT('',#1388);
#650=VERTEX_POINT('',#1390);
#651=VERTEX_POINT('',#1392);
#652=VERTEX_POINT('',#1394);
#653=VERTEX_POINT('',#1396);
#654=VERTEX_POINT('',#1398);
#655=VERTEX_POINT('',#1400);
#656=VERTEX_POINT('',#1402);
#657=VERTEX_POINT('',#1404);
#658=VERTEX_POINT('',#1406);
#659=VERTEX_POINT('',#1408);
#660=VERTEX_POINT('',#1410);
#661=VERTEX_POINT('',#1412);
#662=VERTEX_POINT('',#1414);
#663=VERTEX_POINT('',#1416);
#664=VERTEX_POINT('',#1418);
#665=VERTEX_POINT('',#1420);
#666=VERTEX_POINT('',#1423);
#667=VERTEX_POINT('',#1425);
#668=VERTEX_POINT('',#1428);
#669=VERTEX_POINT('',#1430);
#670=VERTEX_POINT('',#1432);
#671=VERTEX_POINT('',#1435);
#672=VERTEX_POINT('',#1437);
#673=VERTEX_POINT('',#1439);
#674=VERTEX_POINT('',#1441);
#675=VERTEX_POINT('',#1443);
#676=VERTEX_POINT('',#1447);
#677=VERTEX_POINT('',#1448);
#678=VERTEX_POINT('',#1453);
#679=VERTEX_POINT('',#1454);
#680=VERTEX_POINT('',#1459);
#681=VERTEX_POINT('',#1460);
#682=VERTEX_POINT('',#1473);
#683=VERTEX_POINT('',#1475);
#684=VERTEX_POINT('',#1477);
#685=VERTEX_POINT('',#1479);
#686=VERTEX_POINT('',#1481);
#687=VERTEX_POINT('',#1483);
#688=VERTEX_POINT('',#1486);
#689=VERTEX_POINT('',#1488);
#690=VERTEX_POINT('',#1492);
#691=VERTEX_POINT('',#1496);
#692=VERTEX_POINT('',#1500);
#693=VERTEX_POINT('',#1504);
#694=VERTEX_POINT('',#1508);
#695=VERTEX_POINT('',#1512);
#696=VERTEX_POINT('',#1518);
#697=VERTEX_POINT('',#1519);
#698=VERTEX_POINT('',#1521);
#699=VERTEX_POINT('',#1523);
#700=VERTEX_POINT('',#1536);
#701=VERTEX_POINT('',#1537);
#702=VERTEX_POINT('',#1539);
#703=VERTEX_POINT('',#1551);
#704=VERTEX_POINT('',#1554);
#705=VERTEX_POINT('',#1555);
#706=VERTEX_POINT('',#1563);
#707=VERTEX_POINT('',#1565);
#708=VERTEX_POINT('',#1567);
#709=VERTEX_POINT('',#1569);
#710=VERTEX_POINT('',#1577);
#711=VERTEX_POINT('',#1579);
#712=VERTEX_POINT('',#1587);
#713=VERTEX_POINT('',#1589);
#714=VERTEX_POINT('',#1591);
#715=VERTEX_POINT('',#1593);
#716=VERTEX_POINT('',#1597);
#717=VERTEX_POINT('',#1599);
#718=VERTEX_POINT('',#1618);
#719=VERTEX_POINT('',#1622);
#720=VERTEX_POINT('',#1626);
#721=VERTEX_POINT('',#1630);
#722=VERTEX_POINT('',#1649);
#723=VERTEX_POINT('',#1653);
#724=VERTEX_POINT('',#1672);
#725=VERTEX_POINT('',#1676);
#726=VERTEX_POINT('',#1680);
#727=VERTEX_POINT('',#1684);
#728=VERTEX_POINT('',#1701);
#729=VERTEX_POINT('',#1713);
#730=VERTEX_POINT('',#1717);
#731=VERTEX_POINT('',#1744);
#732=VERTEX_POINT('',#1752);
#733=VERTEX_POINT('',#1753);
#734=VERTEX_POINT('',#1755);
#735=VERTEX_POINT('',#1757);
#736=VERTEX_POINT('',#1782);
#737=VERTEX_POINT('',#1786);
#738=VERTEX_POINT('',#1790);
#739=VERTEX_POINT('',#1794);
#740=CIRCLE('',#1014,0.00135);
#741=CIRCLE('',#1015,0.00135);
#742=CIRCLE('',#1016,0.006999999252925);
#743=CIRCLE('',#1017,0.006999999252925);
#744=CIRCLE('',#1018,0.006999999252925);
#745=CIRCLE('',#1019,0.00699999925292501);
#746=CIRCLE('',#1020,0.002999999252925);
#747=CIRCLE('',#1021,0.00299999925292501);
#748=CIRCLE('',#1022,0.00299999925292499);
#749=CIRCLE('',#1023,0.00299999925292501);
#750=CIRCLE('',#1024,0.00135);
#751=CIRCLE('',#1025,0.00135);
#752=CIRCLE('',#1027,0.00375);
#753=CIRCLE('',#1028,0.00375);
#754=CIRCLE('',#1029,0.00375);
#755=CIRCLE('',#1030,0.00375);
#756=CIRCLE('',#1035,0.002999999252925);
#757=CIRCLE('',#1037,0.00299999925292501);
#758=CIRCLE('',#1039,0.00299999925292499);
#759=CIRCLE('',#1041,0.00299999925292501);
#760=CIRCLE('',#1043,0.00375);
#761=CIRCLE('',#1044,0.00375);
#762=CIRCLE('',#1045,0.00375);
#763=CIRCLE('',#1046,0.00375);
#764=CIRCLE('',#1048,0.00699999925292501);
#765=CIRCLE('',#1051,0.006999999252925);
#766=CIRCLE('',#1054,0.006999999252925);
#767=CIRCLE('',#1057,0.006999999252925);
#768=CIRCLE('',#1059,0.00362471687687465);
#769=CIRCLE('',#1060,0.0036247165281882);
#770=CIRCLE('',#1061,0.00131851114951114);
#771=CIRCLE('',#1062,0.00087283696419934);
#772=CIRCLE('',#1063,0.000872795044312623);
#773=CIRCLE('',#1067,0.00131851114951114);
#774=CIRCLE('',#1072,0.00087283696419934);
#775=CIRCLE('',#1075,0.00362471687687465);
#776=CIRCLE('',#1077,0.0036247165281882);
#777=CIRCLE('',#1079,0.000872795044312623);
#778=CIRCLE('',#1093,0.00135);
#779=CIRCLE('',#1096,0.00135);
#780=CIRCLE('',#1099,0.00135);
#781=CIRCLE('',#1102,0.00135);
#782=EDGE_LOOP('',(#224));
#783=EDGE_LOOP('',(#225));
#784=EDGE_LOOP('',(#226,#227,#228,#229,#230,#231,#232,#233,#234,#235,#236,
#237,#238,#239,#240,#241,#242,#243,#244,#245));
#785=EDGE_LOOP('',(#246));
#786=EDGE_LOOP('',(#247));
#787=EDGE_LOOP('',(#248,#249,#250,#251,#252,#253,#254,#255,#256,#257,#258,
#259));
#788=EDGE_LOOP('',(#260,#261,#262,#263));
#789=EDGE_LOOP('',(#264,#265,#266,#267));
#790=EDGE_LOOP('',(#268,#269,#270,#271));
#791=EDGE_LOOP('',(#272,#273,#274,#275));
#792=EDGE_LOOP('',(#276,#277,#278,#279));
#793=EDGE_LOOP('',(#280,#281,#282,#283));
#794=EDGE_LOOP('',(#284,#285,#286,#287));
#795=EDGE_LOOP('',(#288,#289,#290,#291,#292,#293,#294,#295,#296,#297,#298,
#299));
#796=EDGE_LOOP('',(#300,#301,#302,#303));
#797=EDGE_LOOP('',(#304,#305,#306,#307));
#798=EDGE_LOOP('',(#308,#309,#310,#311));
#799=EDGE_LOOP('',(#312,#313,#314,#315));
#800=EDGE_LOOP('',(#316,#317,#318,#319));
#801=EDGE_LOOP('',(#320,#321,#322,#323));
#802=EDGE_LOOP('',(#324,#325,#326,#327));
#803=EDGE_LOOP('',(#328,#329,#330,#331));
#804=EDGE_LOOP('',(#332,#333,#334,#335,#336,#337,#338,#339));
#805=EDGE_LOOP('',(#340,#341,#342,#343));
#806=EDGE_LOOP('',(#344,#345,#346,#347,#348,#349,#350,#351,#352,#353,#354,
#355));
#807=EDGE_LOOP('',(#356,#357,#358,#359));
#808=EDGE_LOOP('',(#360,#361,#362,#363));
#809=EDGE_LOOP('',(#364,#365,#366,#367));
#810=EDGE_LOOP('',(#368,#369,#370,#371));
#811=EDGE_LOOP('',(#372,#373,#374,#375));
#812=EDGE_LOOP('',(#376,#377,#378,#379));
#813=EDGE_LOOP('',(#380,#381,#382,#383));
#814=EDGE_LOOP('',(#384,#385,#386,#387));
#815=EDGE_LOOP('',(#388,#389,#390,#391));
#816=EDGE_LOOP('',(#392,#393,#394,#395));
#817=EDGE_LOOP('',(#396,#397,#398,#399));
#818=EDGE_LOOP('',(#400,#401,#402,#403));
#819=EDGE_LOOP('',(#404,#405,#406,#407));
#820=EDGE_LOOP('',(#408,#409,#410,#411));
#821=EDGE_LOOP('',(#412,#413,#414,#415));
#822=EDGE_LOOP('',(#416,#417,#418,#419));
#823=EDGE_LOOP('',(#420,#421,#422,#423));
#824=EDGE_LOOP('',(#424,#425,#426,#427));
#825=EDGE_LOOP('',(#428,#429,#430,#431,#432,#433,#434,#435));
#826=EDGE_LOOP('',(#436,#437,#438,#439,#440,#441,#442,#443,#444,#445,#446,
#447));
#827=EDGE_LOOP('',(#448,#449,#450,#451));
#828=EDGE_LOOP('',(#452,#453,#454,#455));
#829=EDGE_LOOP('',(#456,#457,#458,#459));
#830=EDGE_LOOP('',(#460,#461,#462,#463));
#831=EDGE_LOOP('',(#464,#465,#466,#467));
#832=EDGE_LOOP('',(#468,#469,#470,#471));
#833=EDGE_LOOP('',(#472,#473,#474,#475));
#834=EDGE_LOOP('',(#476,#477,#478,#479));
#835=EDGE_LOOP('',(#480,#481,#482,#483));
#836=EDGE_LOOP('',(#484,#485,#486,#487));
#837=EDGE_LOOP('',(#488,#489,#490,#491));
#838=EDGE_LOOP('',(#492));
#839=EDGE_LOOP('',(#493));
#840=EDGE_LOOP('',(#494));
#841=EDGE_LOOP('',(#495));
#842=EDGE_LOOP('',(#496));
#843=EDGE_LOOP('',(#497));
#844=EDGE_LOOP('',(#498));
#845=EDGE_LOOP('',(#499));
#846=EDGE_LOOP('',(#500));
#847=EDGE_LOOP('',(#501));
#848=EDGE_LOOP('',(#502));
#849=EDGE_LOOP('',(#503));
#850=FACE_BOUND('',#782,.T.);
#851=FACE_BOUND('',#783,.T.);
#852=FACE_BOUND('',#784,.T.);
#853=FACE_BOUND('',#785,.T.);
#854=FACE_BOUND('',#786,.T.);
#855=FACE_BOUND('',#787,.T.);
#856=FACE_BOUND('',#788,.T.);
#857=FACE_BOUND('',#789,.T.);
#858=FACE_BOUND('',#790,.T.);
#859=FACE_BOUND('',#791,.T.);
#860=FACE_BOUND('',#792,.T.);
#861=FACE_BOUND('',#793,.T.);
#862=FACE_BOUND('',#794,.T.);
#863=FACE_BOUND('',#795,.T.);
#864=FACE_BOUND('',#796,.T.);
#865=FACE_BOUND('',#797,.T.);
#866=FACE_BOUND('',#798,.T.);
#867=FACE_BOUND('',#799,.T.);
#868=FACE_BOUND('',#800,.T.);
#869=FACE_BOUND('',#801,.T.);
#870=FACE_BOUND('',#802,.T.);
#871=FACE_BOUND('',#803,.T.);
#872=FACE_BOUND('',#804,.T.);
#873=FACE_BOUND('',#805,.T.);
#874=FACE_BOUND('',#806,.T.);
#875=FACE_BOUND('',#807,.T.);
#876=FACE_BOUND('',#808,.T.);
#877=FACE_BOUND('',#809,.T.);
#878=FACE_BOUND('',#810,.T.);
#879=FACE_BOUND('',#811,.T.);
#880=FACE_BOUND('',#812,.T.);
#881=FACE_BOUND('',#813,.T.);
#882=FACE_BOUND('',#814,.T.);
#883=FACE_BOUND('',#815,.T.);
#884=FACE_BOUND('',#816,.T.);
#885=FACE_BOUND('',#817,.T.);
#886=FACE_BOUND('',#818,.T.);
#887=FACE_BOUND('',#819,.T.);
#888=FACE_BOUND('',#820,.T.);
#889=FACE_BOUND('',#821,.T.);
#890=FACE_BOUND('',#822,.T.);
#891=FACE_BOUND('',#823,.T.);
#892=FACE_BOUND('',#824,.T.);
#893=FACE_BOUND('',#825,.T.);
#894=FACE_BOUND('',#826,.T.);
#895=FACE_BOUND('',#827,.T.);
#896=FACE_BOUND('',#828,.T.);
#897=FACE_BOUND('',#829,.T.);
#898=FACE_BOUND('',#830,.T.);
#899=FACE_BOUND('',#831,.T.);
#900=FACE_BOUND('',#832,.T.);
#901=FACE_BOUND('',#833,.T.);
#902=FACE_BOUND('',#834,.T.);
#903=FACE_BOUND('',#835,.T.);
#904=FACE_BOUND('',#836,.T.);
#905=FACE_BOUND('',#837,.T.);
#906=FACE_BOUND('',#838,.T.);
#907=FACE_BOUND('',#839,.T.);
#908=FACE_BOUND('',#840,.T.);
#909=FACE_BOUND('',#841,.T.);
#910=FACE_BOUND('',#842,.T.);
#911=FACE_BOUND('',#843,.T.);
#912=FACE_BOUND('',#844,.T.);
#913=FACE_BOUND('',#845,.T.);
#914=FACE_BOUND('',#846,.T.);
#915=FACE_BOUND('',#847,.T.);
#916=FACE_BOUND('',#848,.T.);
#917=FACE_BOUND('',#849,.T.);
#918=PLANE('',#1013);
#919=PLANE('',#1026);
#920=PLANE('',#1031);
#921=PLANE('',#1032);
#922=PLANE('',#1033);
#923=PLANE('',#1042);
#924=PLANE('',#1049);
#925=PLANE('',#1052);
#926=PLANE('',#1055);
#927=PLANE('',#1058);
#928=PLANE('',#1064);
#929=PLANE('',#1065);
#930=PLANE('',#1068);
#931=PLANE('',#1069);
#932=PLANE('',#1070);
#933=PLANE('',#1073);
#934=PLANE('',#1080);
#935=PLANE('',#1081);
#936=PLANE('',#1083);
#937=PLANE('',#1084);
#938=PLANE('',#1088);
#939=PLANE('',#1089);
#940=PLANE('',#1090);
#941=PLANE('',#1091);
#942=PLANE('',#1094);
#943=PLANE('',#1097);
#944=PLANE('',#1100);
#945=PLANE('',#1103);
#946=ADVANCED_FACE('',(#850,#851,#852,#853,#854),#918,.T.);
#947=ADVANCED_FACE('',(#855),#919,.F.);
#948=ADVANCED_FACE('',(#856),#920,.F.);
#949=ADVANCED_FACE('',(#857),#921,.F.);
#950=ADVANCED_FACE('',(#858),#922,.F.);
#951=ADVANCED_FACE('',(#859),#27,.F.);
#952=ADVANCED_FACE('',(#860),#28,.F.);
#953=ADVANCED_FACE('',(#861),#29,.F.);
#954=ADVANCED_FACE('',(#862),#30,.F.);
#955=ADVANCED_FACE('',(#863),#923,.T.);
#956=ADVANCED_FACE('',(#864),#31,.T.);
#957=ADVANCED_FACE('',(#865),#924,.T.);
#958=ADVANCED_FACE('',(#866),#32,.T.);
#959=ADVANCED_FACE('',(#867),#925,.T.);
#960=ADVANCED_FACE('',(#868),#33,.T.);
#961=ADVANCED_FACE('',(#869),#926,.T.);
#962=ADVANCED_FACE('',(#870),#34,.T.);
#963=ADVANCED_FACE('',(#871,#872,#873,#874),#927,.F.);
#964=ADVANCED_FACE('',(#875),#928,.F.);
#965=ADVANCED_FACE('',(#876),#12,.T.);
#966=ADVANCED_FACE('',(#877),#929,.F.);
#967=ADVANCED_FACE('',(#878),#35,.T.);
#968=ADVANCED_FACE('',(#879),#930,.F.);
#969=ADVANCED_FACE('',(#880),#13,.T.);
#970=ADVANCED_FACE('',(#881),#931,.F.);
#971=ADVANCED_FACE('',(#882),#14,.T.);
#972=ADVANCED_FACE('',(#883),#932,.F.);
#973=ADVANCED_FACE('',(#884),#36,.F.);
#974=ADVANCED_FACE('',(#885),#933,.F.);
#975=ADVANCED_FACE('',(#886),#15,.F.);
#976=ADVANCED_FACE('',(#887),#37,.F.);
#977=ADVANCED_FACE('',(#888),#16,.F.);
#978=ADVANCED_FACE('',(#889),#38,.F.);
#979=ADVANCED_FACE('',(#890),#39,.F.);
#980=ADVANCED_FACE('',(#891,#892,#893,#894),#934,.F.);
#981=ADVANCED_FACE('',(#895),#935,.T.);
#982=ADVANCED_FACE('',(#896),#40,.F.);
#983=ADVANCED_FACE('',(#897),#936,.T.);
#984=ADVANCED_FACE('',(#898),#937,.T.);
#985=ADVANCED_FACE('',(#899),#41,.F.);
#986=ADVANCED_FACE('',(#900),#42,.F.);
#987=ADVANCED_FACE('',(#901),#43,.F.);
#988=ADVANCED_FACE('',(#902),#938,.F.);
#989=ADVANCED_FACE('',(#903),#939,.F.);
#990=ADVANCED_FACE('',(#904),#940,.F.);
#991=ADVANCED_FACE('',(#905),#941,.F.);
#992=ADVANCED_FACE('',(#906,#907),#44,.F.);
#993=ADVANCED_FACE('',(#908),#942,.T.);
#994=ADVANCED_FACE('',(#909,#910),#45,.F.);
#995=ADVANCED_FACE('',(#911),#943,.T.);
#996=ADVANCED_FACE('',(#912,#913),#46,.F.);
#997=ADVANCED_FACE('',(#914),#944,.T.);
#998=ADVANCED_FACE('',(#915,#916),#47,.F.);
#999=ADVANCED_FACE('',(#917),#945,.T.);
#1000=CLOSED_SHELL('',(#946,#947,#948,#949,#950,#951,#952,#953,#954,#955,
#956,#957,#958,#959,#960,#961,#962,#963,#964,#965,#966,#967,#968,#969,#970,
#971,#972,#973,#974,#975,#976,#977,#978,#979,#980,#981,#982,#983,#984,#985,
#986,#987,#988,#989,#990,#991,#992,#993,#994,#995,#996,#997,#998,#999));
#1001=STYLED_ITEM('',(#1002),#1009);
#1002=PRESENTATION_STYLE_ASSIGNMENT((#1003));
#1003=SURFACE_STYLE_USAGE(.BOTH.,#1004);
#1004=SURFACE_SIDE_STYLE('',(#1005));
#1005=SURFACE_STYLE_FILL_AREA(#1006);
#1006=FILL_AREA_STYLE('',(#1007));
#1007=FILL_AREA_STYLE_COLOUR('',#1008);
#1008=COLOUR_RGB('',0.647058823529412,0.647058823529412,0.647058823529412);
#1009=MANIFOLD_SOLID_BREP('Top',#1000);
#1010=SHAPE_DEFINITION_REPRESENTATION(#1802,#1011);
#1011=SHAPE_REPRESENTATION('Top',(#1012),#1797);
#1012=AXIS2_PLACEMENT_3D('',#1376,#1104,#1105);
#1013=AXIS2_PLACEMENT_3D('',#1377,#1106,#1107);
#1014=AXIS2_PLACEMENT_3D('',#1378,#1108,#1109);
#1015=AXIS2_PLACEMENT_3D('',#1380,#1110,#1111);
#1016=AXIS2_PLACEMENT_3D('',#1389,#1115,#1116);
#1017=AXIS2_PLACEMENT_3D('',#1393,#1118,#1119);
#1018=AXIS2_PLACEMENT_3D('',#1397,#1121,#1122);
#1019=AXIS2_PLACEMENT_3D('',#1401,#1124,#1125);
#1020=AXIS2_PLACEMENT_3D('',#1409,#1129,#1130);
#1021=AXIS2_PLACEMENT_3D('',#1413,#1132,#1133);
#1022=AXIS2_PLACEMENT_3D('',#1417,#1135,#1136);
#1023=AXIS2_PLACEMENT_3D('',#1421,#1138,#1139);
#1024=AXIS2_PLACEMENT_3D('',#1422,#1140,#1141);
#1025=AXIS2_PLACEMENT_3D('',#1424,#1142,#1143);
#1026=AXIS2_PLACEMENT_3D('',#1426,#1144,#1145);
#1027=AXIS2_PLACEMENT_3D('',#1427,#1146,#1147);
#1028=AXIS2_PLACEMENT_3D('',#1434,#1151,#1152);
#1029=AXIS2_PLACEMENT_3D('',#1438,#1154,#1155);
#1030=AXIS2_PLACEMENT_3D('',#1442,#1157,#1158);
#1031=AXIS2_PLACEMENT_3D('',#1445,#1160,#1161);
#1032=AXIS2_PLACEMENT_3D('',#1451,#1165,#1166);
#1033=AXIS2_PLACEMENT_3D('',#1457,#1170,#1171);
#1034=AXIS2_PLACEMENT_3D('',#1463,#1175,#1176);
#1035=AXIS2_PLACEMENT_3D('',#1464,#1177,#1178);
#1036=AXIS2_PLACEMENT_3D('',#1465,#1179,#1180);
#1037=AXIS2_PLACEMENT_3D('',#1466,#1181,#1182);
#1038=AXIS2_PLACEMENT_3D('',#1467,#1183,#1184);
#1039=AXIS2_PLACEMENT_3D('',#1468,#1185,#1186);
#1040=AXIS2_PLACEMENT_3D('',#1469,#1187,#1188);
#1041=AXIS2_PLACEMENT_3D('',#1470,#1189,#1190);
#1042=AXIS2_PLACEMENT_3D('',#1471,#1191,#1192);
#1043=AXIS2_PLACEMENT_3D('',#1472,#1193,#1194);
#1044=AXIS2_PLACEMENT_3D('',#1476,#1196,#1197);
#1045=AXIS2_PLACEMENT_3D('',#1480,#1199,#1200);
#1046=AXIS2_PLACEMENT_3D('',#1484,#1202,#1203);
#1047=AXIS2_PLACEMENT_3D('',#1490,#1207,#1208);
#1048=AXIS2_PLACEMENT_3D('',#1493,#1210,#1211);
#1049=AXIS2_PLACEMENT_3D('',#1494,#1212,#1213);
#1050=AXIS2_PLACEMENT_3D('',#1498,#1216,#1217);
#1051=AXIS2_PLACEMENT_3D('',#1501,#1219,#1220);
#1052=AXIS2_PLACEMENT_3D('',#1502,#1221,#1222);
#1053=AXIS2_PLACEMENT_3D('',#1506,#1225,#1226);
#1054=AXIS2_PLACEMENT_3D('',#1509,#1228,#1229);
#1055=AXIS2_PLACEMENT_3D('',#1510,#1230,#1231);
#1056=AXIS2_PLACEMENT_3D('',#1514,#1234,#1235);
#1057=AXIS2_PLACEMENT_3D('',#1515,#1236,#1237);
#1058=AXIS2_PLACEMENT_3D('',#1516,#1238,#1239);
#1059=AXIS2_PLACEMENT_3D('',#1538,#1244,#1245);
#1060=AXIS2_PLACEMENT_3D('',#1552,#1246,#1247);
#1061=AXIS2_PLACEMENT_3D('',#1566,#1250,#1251);
#1062=AXIS2_PLACEMENT_3D('',#1590,#1255,#1256);
#1063=AXIS2_PLACEMENT_3D('',#1594,#1258,#1259);
#1064=AXIS2_PLACEMENT_3D('',#1595,#1260,#1261);
#1065=AXIS2_PLACEMENT_3D('',#1620,#1266,#1267);
#1066=AXIS2_PLACEMENT_3D('',#1624,#1270,#1271);
#1067=AXIS2_PLACEMENT_3D('',#1625,#1272,#1273);
#1068=AXIS2_PLACEMENT_3D('',#1628,#1275,#1276);
#1069=AXIS2_PLACEMENT_3D('',#1651,#1280,#1281);
#1070=AXIS2_PLACEMENT_3D('',#1674,#1285,#1286);
#1071=AXIS2_PLACEMENT_3D('',#1678,#1289,#1290);
#1072=AXIS2_PLACEMENT_3D('',#1679,#1291,#1292);
#1073=AXIS2_PLACEMENT_3D('',#1682,#1294,#1295);
#1074=AXIS2_PLACEMENT_3D('',#1715,#1300,#1301);
#1075=AXIS2_PLACEMENT_3D('',#1716,#1302,#1303);
#1076=AXIS2_PLACEMENT_3D('',#1746,#1306,#1307);
#1077=AXIS2_PLACEMENT_3D('',#1747,#1308,#1309);
#1078=AXIS2_PLACEMENT_3D('',#1748,#1310,#1311);
#1079=AXIS2_PLACEMENT_3D('',#1749,#1312,#1313);
#1080=AXIS2_PLACEMENT_3D('',#1750,#1314,#1315);
#1081=AXIS2_PLACEMENT_3D('',#1759,#1320,#1321);
#1082=AXIS2_PLACEMENT_3D('',#1762,#1324,#1325);
#1083=AXIS2_PLACEMENT_3D('',#1764,#1327,#1328);
#1084=AXIS2_PLACEMENT_3D('',#1766,#1330,#1331);
#1085=AXIS2_PLACEMENT_3D('',#1769,#1334,#1335);
#1086=AXIS2_PLACEMENT_3D('',#1770,#1336,#1337);
#1087=AXIS2_PLACEMENT_3D('',#1771,#1338,#1339);
#1088=AXIS2_PLACEMENT_3D('',#1772,#1340,#1341);
#1089=AXIS2_PLACEMENT_3D('',#1775,#1344,#1345);
#1090=AXIS2_PLACEMENT_3D('',#1777,#1347,#1348);
#1091=AXIS2_PLACEMENT_3D('',#1779,#1350,#1351);
#1092=AXIS2_PLACEMENT_3D('',#1780,#1352,#1353);
#1093=AXIS2_PLACEMENT_3D('',#1781,#1354,#1355);
#1094=AXIS2_PLACEMENT_3D('',#1783,#1356,#1357);
#1095=AXIS2_PLACEMENT_3D('',#1784,#1358,#1359);
#1096=AXIS2_PLACEMENT_3D('',#1785,#1360,#1361);
#1097=AXIS2_PLACEMENT_3D('',#1787,#1362,#1363);
#1098=AXIS2_PLACEMENT_3D('',#1788,#1364,#1365);
#1099=AXIS2_PLACEMENT_3D('',#1789,#1366,#1367);
#1100=AXIS2_PLACEMENT_3D('',#1791,#1368,#1369);
#1101=AXIS2_PLACEMENT_3D('',#1792,#1370,#1371);
#1102=AXIS2_PLACEMENT_3D('',#1793,#1372,#1373);
#1103=AXIS2_PLACEMENT_3D('',#1795,#1374,#1375);
#1104=DIRECTION('',(0.,0.,1.));
#1105=DIRECTION('',(1.,0.,0.));
#1106=DIRECTION('',(0.,0.,-1.));
#1107=DIRECTION('',(1.,0.,0.));
#1108=DIRECTION('',(0.,0.,1.));
#1109=DIRECTION('',(-1.,0.,0.));
#1110=DIRECTION('',(0.,0.,-1.));
#1111=DIRECTION('',(-1.,0.,0.));
#1112=DIRECTION('',(1.,0.,0.));
#1113=DIRECTION('',(1.346145417358E-15,-1.,3.006609133585E-15));
#1114=DIRECTION('',(1.,0.,0.));
#1115=DIRECTION('',(0.,0.,-1.));
#1116=DIRECTION('',(-1.,0.,0.));
#1117=DIRECTION('',(0.,-1.,0.));
#1118=DIRECTION('',(0.,0.,-1.));
#1119=DIRECTION('',(-1.,0.,0.));
#1120=DIRECTION('',(-1.,0.,0.));
#1121=DIRECTION('',(0.,0.,-1.));
#1122=DIRECTION('',(-1.,0.,0.));
#1123=DIRECTION('',(0.,1.,0.));
#1124=DIRECTION('',(0.,0.,-1.));
#1125=DIRECTION('',(-1.,0.,0.));
#1126=DIRECTION('',(1.,0.,0.));
#1127=DIRECTION('',(1.346145417358E-15,-1.,3.006609133585E-15));
#1128=DIRECTION('',(1.,0.,0.));
#1129=DIRECTION('',(0.,0.,-1.));
#1130=DIRECTION('',(-1.,0.,0.));
#1131=DIRECTION('',(0.,1.,0.));
#1132=DIRECTION('',(0.,0.,-1.));
#1133=DIRECTION('',(-1.,0.,0.));
#1134=DIRECTION('',(-1.,0.,0.));
#1135=DIRECTION('',(0.,0.,-1.));
#1136=DIRECTION('',(-1.,0.,0.));
#1137=DIRECTION('',(0.,-1.,0.));
#1138=DIRECTION('',(0.,0.,-1.));
#1139=DIRECTION('',(-1.,0.,0.));
#1140=DIRECTION('',(0.,0.,-1.));
#1141=DIRECTION('',(-1.,0.,0.));
#1142=DIRECTION('',(0.,0.,1.));
#1143=DIRECTION('',(-1.,0.,0.));
#1144=DIRECTION('',(0.,1.,0.));
#1145=DIRECTION('',(0.,0.,1.));
#1146=DIRECTION('',(0.,1.,0.));
#1147=DIRECTION('',(0.,0.,1.));
#1148=DIRECTION('',(0.,0.,-1.));
#1149=DIRECTION('',(1.,0.,0.));
#1150=DIRECTION('',(0.,0.,-1.));
#1151=DIRECTION('',(0.,1.,0.));
#1152=DIRECTION('',(0.,0.,1.));
#1153=DIRECTION('',(0.,0.,-1.));
#1154=DIRECTION('',(0.,1.,0.));
#1155=DIRECTION('',(0.,0.,1.));
#1156=DIRECTION('',(-1.,0.,-6.47905024486483E-30));
#1157=DIRECTION('',(0.,1.,0.));
#1158=DIRECTION('',(0.,0.,1.));
#1159=DIRECTION('',(0.,0.,1.));
#1160=DIRECTION('',(1.,0.,0.));
#1161=DIRECTION('',(0.,0.,-1.));
#1162=DIRECTION('',(0.,-1.,0.));
#1163=DIRECTION('',(0.,0.,-1.));
#1164=DIRECTION('',(0.,0.,-1.));
#1165=DIRECTION('',(0.,-1.,0.));
#1166=DIRECTION('',(0.,0.,-1.));
#1167=DIRECTION('',(-1.,0.,0.));
#1168=DIRECTION('',(0.,0.,-1.));
#1169=DIRECTION('',(0.,0.,-1.));
#1170=DIRECTION('',(-1.,0.,0.));
#1171=DIRECTION('',(0.,0.,1.));
#1172=DIRECTION('',(0.,1.,0.));
#1173=DIRECTION('',(0.,0.,-1.));
#1174=DIRECTION('',(0.,0.,-1.));
#1175=DIRECTION('',(0.,0.,-1.));
#1176=DIRECTION('',(-1.,0.,0.));
#1177=DIRECTION('',(0.,0.,-1.));
#1178=DIRECTION('',(-1.,0.,0.));
#1179=DIRECTION('',(0.,0.,-1.));
#1180=DIRECTION('',(-1.,0.,0.));
#1181=DIRECTION('',(0.,0.,-1.));
#1182=DIRECTION('',(-1.,0.,0.));
#1183=DIRECTION('',(0.,0.,-1.));
#1184=DIRECTION('',(-1.,0.,0.));
#1185=DIRECTION('',(0.,0.,-1.));
#1186=DIRECTION('',(-1.,0.,0.));
#1187=DIRECTION('',(0.,0.,-1.));
#1188=DIRECTION('',(-1.,0.,0.));
#1189=DIRECTION('',(0.,0.,-1.));
#1190=DIRECTION('',(-1.,0.,0.));
#1191=DIRECTION('',(0.,1.,0.));
#1192=DIRECTION('',(0.,0.,1.));
#1193=DIRECTION('',(0.,1.,0.));
#1194=DIRECTION('',(0.,0.,1.));
#1195=DIRECTION('',(0.,0.,1.));
#1196=DIRECTION('',(0.,1.,0.));
#1197=DIRECTION('',(0.,0.,1.));
#1198=DIRECTION('',(-1.,0.,-6.47905024486483E-30));
#1199=DIRECTION('',(0.,1.,0.));
#1200=DIRECTION('',(0.,0.,1.));
#1201=DIRECTION('',(0.,0.,-1.));
#1202=DIRECTION('',(0.,1.,0.));
#1203=DIRECTION('',(0.,0.,1.));
#1204=DIRECTION('',(0.,0.,-1.));
#1205=DIRECTION('',(1.,0.,0.));
#1206=DIRECTION('',(0.,0.,-1.));
#1207=DIRECTION('',(0.,0.,-1.));
#1208=DIRECTION('',(-1.,0.,0.));
#1209=DIRECTION('',(0.,0.,-1.));
#1210=DIRECTION('',(0.,0.,-1.));
#1211=DIRECTION('',(-1.,0.,0.));
#1212=DIRECTION('',(-1.,0.,0.));
#1213=DIRECTION('',(0.,0.,1.));
#1214=DIRECTION('',(0.,0.,-1.));
#1215=DIRECTION('',(0.,1.,0.));
#1216=DIRECTION('',(0.,0.,-1.));
#1217=DIRECTION('',(-1.,0.,0.));
#1218=DIRECTION('',(0.,0.,-1.));
#1219=DIRECTION('',(0.,0.,-1.));
#1220=DIRECTION('',(-1.,0.,0.));
#1221=DIRECTION('',(0.,-1.,0.));
#1222=DIRECTION('',(0.,0.,-1.));
#1223=DIRECTION('',(0.,0.,-1.));
#1224=DIRECTION('',(-1.,0.,0.));
#1225=DIRECTION('',(0.,0.,-1.));
#1226=DIRECTION('',(-1.,0.,0.));
#1227=DIRECTION('',(0.,0.,-1.));
#1228=DIRECTION('',(0.,0.,-1.));
#1229=DIRECTION('',(-1.,0.,0.));
#1230=DIRECTION('',(1.,0.,0.));
#1231=DIRECTION('',(0.,0.,-1.));
#1232=DIRECTION('',(0.,0.,-1.));
#1233=DIRECTION('',(0.,-1.,0.));
#1234=DIRECTION('',(0.,0.,-1.));
#1235=DIRECTION('',(-1.,0.,0.));
#1236=DIRECTION('',(0.,0.,-1.));
#1237=DIRECTION('',(-1.,0.,0.));
#1238=DIRECTION('',(0.,0.,-1.));
#1239=DIRECTION('',(1.,0.,0.));
#1240=DIRECTION('',(0.,-1.,0.));
#1241=DIRECTION('',(-1.,0.,0.));
#1242=DIRECTION('',(0.,1.,0.));
#1243=DIRECTION('',(1.,0.,0.));
#1244=DIRECTION('',(0.,0.,1.));
#1245=DIRECTION('',(1.,0.,0.));
#1246=DIRECTION('',(0.,0.,1.));
#1247=DIRECTION('',(1.,0.,0.));
#1248=DIRECTION('',(0.,-1.,0.));
#1249=DIRECTION('',(-1.,0.,0.));
#1250=DIRECTION('',(0.,0.,1.));
#1251=DIRECTION('',(1.,0.,0.));
#1252=DIRECTION('',(0.,-1.,0.));
#1253=DIRECTION('',(-1.,0.,0.));
#1254=DIRECTION('',(0.,1.,0.));
#1255=DIRECTION('',(0.,0.,1.));
#1256=DIRECTION('',(1.,0.,0.));
#1257=DIRECTION('',(1.,0.,0.));
#1258=DIRECTION('',(0.,0.,1.));
#1259=DIRECTION('',(1.,0.,0.));
#1260=DIRECTION('',(-1.,0.,0.));
#1261=DIRECTION('',(0.,0.,1.));
#1262=DIRECTION('',(0.,0.,1.));
#1263=DIRECTION('',(0.,-1.,0.));
#1264=DIRECTION('',(0.,0.,1.));
#1265=DIRECTION('',(0.,0.,1.));
#1266=DIRECTION('',(0.,1.,0.));
#1267=DIRECTION('',(0.,0.,1.));
#1268=DIRECTION('',(-1.,0.,0.));
#1269=DIRECTION('',(0.,0.,1.));
#1270=DIRECTION('',(0.,0.,1.));
#1271=DIRECTION('',(1.,0.,0.));
#1272=DIRECTION('',(0.,0.,1.));
#1273=DIRECTION('',(1.,0.,0.));
#1274=DIRECTION('',(0.,0.,1.));
#1275=DIRECTION('',(-1.,0.,0.));
#1276=DIRECTION('',(0.,0.,1.));
#1277=DIRECTION('',(0.,-1.,0.));
#1278=DIRECTION('',(0.,0.,1.));
#1279=DIRECTION('',(0.,0.,1.));
#1280=DIRECTION('',(0.,1.,0.));
#1281=DIRECTION('',(0.,0.,1.));
#1282=DIRECTION('',(-1.,0.,0.));
#1283=DIRECTION('',(0.,0.,1.));
#1284=DIRECTION('',(0.,0.,1.));
#1285=DIRECTION('',(1.,0.,0.));
#1286=DIRECTION('',(0.,0.,-1.));
#1287=DIRECTION('',(0.,1.,0.));
#1288=DIRECTION('',(0.,0.,1.));
#1289=DIRECTION('',(0.,0.,1.));
#1290=DIRECTION('',(0.715691834338815,-0.698416207043294,0.));
#1291=DIRECTION('',(0.,0.,1.));
#1292=DIRECTION('',(1.,0.,0.));
#1293=DIRECTION('',(0.,0.,1.));
#1294=DIRECTION('',(0.,-1.,0.));
#1295=DIRECTION('',(0.,0.,-1.));
#1296=DIRECTION('',(1.,0.,0.));
#1297=DIRECTION('',(0.,0.,1.));
#1298=DIRECTION('',(0.,0.,1.));
#1299=DIRECTION('',(0.,0.,1.));
#1300=DIRECTION('',(0.,0.,1.));
#1301=DIRECTION('',(1.,0.,0.));
#1302=DIRECTION('',(0.,0.,1.));
#1303=DIRECTION('',(1.,0.,0.));
#1304=DIRECTION('',(0.,0.,1.));
#1305=DIRECTION('',(0.,0.,1.));
#1306=DIRECTION('',(0.,0.,1.));
#1307=DIRECTION('',(1.,0.,0.));
#1308=DIRECTION('',(0.,0.,1.));
#1309=DIRECTION('',(1.,0.,0.));
#1310=DIRECTION('',(0.,0.,1.));
#1311=DIRECTION('',(-0.715428392835728,-0.698686063067303,0.));
#1312=DIRECTION('',(0.,0.,1.));
#1313=DIRECTION('',(1.,0.,0.));
#1314=DIRECTION('',(0.,0.,1.));
#1315=DIRECTION('',(1.,0.,0.));
#1316=DIRECTION('',(0.,1.,0.));
#1317=DIRECTION('',(-1.,0.,0.));
#1318=DIRECTION('',(0.,-1.,0.));
#1319=DIRECTION('',(1.,0.,0.));
#1320=DIRECTION('',(6.47905024486483E-30,-3.006609133585E-15,-1.));
#1321=DIRECTION('',(0.,1.,-3.006609133585E-15));
#1322=DIRECTION('',(1.346145417358E-15,-1.,3.006609133585E-15));
#1323=DIRECTION('',(1.346145417358E-15,-1.,3.006609133585E-15));
#1324=DIRECTION('',(1.346145417358E-15,-1.,3.006609133585E-15));
#1325=DIRECTION('',(0.,-3.006609133585E-15,-1.));
#1326=DIRECTION('',(1.346145417358E-15,-1.,3.006609133585E-15));
#1327=DIRECTION('',(-1.,-1.346145417358E-15,0.));
#1328=DIRECTION('',(1.346145417358E-15,-1.,0.));
#1329=DIRECTION('',(1.346145417358E-15,-1.,3.006609133585E-15));
#1330=DIRECTION('',(1.,1.346145417358E-15,0.));
#1331=DIRECTION('',(-1.346145417358E-15,1.,0.));
#1332=DIRECTION('',(1.346145417358E-15,-1.,3.006609133585E-15));
#1333=DIRECTION('',(1.346145417358E-15,-1.,3.006609133585E-15));
#1334=DIRECTION('',(1.346145417358E-15,-1.,3.006609133585E-15));
#1335=DIRECTION('',(0.,-3.006609133585E-15,-1.));
#1336=DIRECTION('',(1.346145417358E-15,-1.,3.006609133585E-15));
#1337=DIRECTION('',(0.,-3.006609133585E-15,-1.));
#1338=DIRECTION('',(1.346145417358E-15,-1.,3.006609133585E-15));
#1339=DIRECTION('',(0.,-3.006609133585E-15,-1.));
#1340=DIRECTION('',(0.,0.707106781186548,-0.707106781186548));
#1341=DIRECTION('',(-1.,0.,0.));
#1342=DIRECTION('',(-0.577350269189626,-0.577350269189626,-0.577350269189626));
#1343=DIRECTION('',(0.577350269189626,-0.577350269189626,-0.577350269189626));
#1344=DIRECTION('',(-0.707106781186548,0.,-0.707106781186548));
#1345=DIRECTION('',(0.,-1.,0.));
#1346=DIRECTION('',(0.577350269189626,0.577350269189626,-0.577350269189626));
#1347=DIRECTION('',(0.707106781186548,0.,-0.707106781186548));
#1348=DIRECTION('',(0.,1.,0.));
#1349=DIRECTION('',(0.577350269189626,-0.577350269189626,0.577350269189626));
#1350=DIRECTION('',(0.,-0.707106781186548,-0.707106781186548));
#1351=DIRECTION('',(1.,0.,0.));
#1352=DIRECTION('',(0.,0.,-1.));
#1353=DIRECTION('',(-1.,0.,0.));
#1354=DIRECTION('',(0.,0.,-1.));
#1355=DIRECTION('',(-1.,0.,0.));
#1356=DIRECTION('',(0.,0.,-1.));
#1357=DIRECTION('',(1.,0.,0.));
#1358=DIRECTION('',(0.,0.,-1.));
#1359=DIRECTION('',(-1.,0.,0.));
#1360=DIRECTION('',(0.,0.,1.));
#1361=DIRECTION('',(-1.,0.,0.));
#1362=DIRECTION('',(0.,0.,-1.));
#1363=DIRECTION('',(1.,0.,0.));
#1364=DIRECTION('',(0.,0.,-1.));
#1365=DIRECTION('',(-1.,0.,0.));
#1366=DIRECTION('',(0.,0.,-1.));
#1367=DIRECTION('',(-1.,0.,0.));
#1368=DIRECTION('',(0.,0.,-1.));
#1369=DIRECTION('',(1.,0.,0.));
#1370=DIRECTION('',(0.,0.,-1.));
#1371=DIRECTION('',(-1.,0.,0.));
#1372=DIRECTION('',(0.,0.,1.));
#1373=DIRECTION('',(-1.,0.,0.));
#1374=DIRECTION('',(0.,0.,-1.));
#1375=DIRECTION('',(1.,0.,0.));
#1376=CARTESIAN_POINT('',(0.,0.,0.));
#1377=CARTESIAN_POINT('',(1.32532873564628E-15,1.32532873564628E-15,0.0027));
#1378=CARTESIAN_POINT('',(-0.0335000003735337,0.0422500003735375,0.0027));
#1379=CARTESIAN_POINT('',(-0.0348500003735337,0.0422500003735375,0.0027));
#1380=CARTESIAN_POINT('',(0.0335000003735387,0.0422500003735375,0.0027));
#1381=CARTESIAN_POINT('',(0.0321500003735387,0.0422500003735375,0.0027));
#1382=CARTESIAN_POINT('',(2.4980018054066E-15,0.04175,0.0027));
#1383=CARTESIAN_POINT('',(-0.012777586546394,0.04175,0.00270000000000007));
#1384=CARTESIAN_POINT('',(0.030000000747075,0.04175,0.0027));
#1385=CARTESIAN_POINT('',(-0.012777586546394,0.06575,0.0027));
#1386=CARTESIAN_POINT('',(-0.012777586546394,0.04575,0.00270000000000006));
#1387=CARTESIAN_POINT('',(2.4980018054066E-15,0.04575,0.0027));
#1388=CARTESIAN_POINT('',(0.030000000747075,0.04575,0.0027));
#1389=CARTESIAN_POINT('',(0.030000000747075,0.038750000747075,0.0027));
#1390=CARTESIAN_POINT('',(0.037,0.038750000747075,0.0027));
#1391=CARTESIAN_POINT('',(0.037,2.4980018054066E-15,0.0027));
#1392=CARTESIAN_POINT('',(0.037,-0.03875000074707,0.0027));
#1393=CARTESIAN_POINT('',(0.030000000747075,-0.03875000074707,0.0027));
#1394=CARTESIAN_POINT('',(0.030000000747075,-0.0457499999999974,0.0027));
#1395=CARTESIAN_POINT('',(2.50147125235856E-15,-0.0457499999999974,0.0027));
#1396=CARTESIAN_POINT('',(-0.03000000074707,-0.045749999999995,0.0027));
#1397=CARTESIAN_POINT('',(-0.03000000074707,-0.03875000074707,0.0027));
#1398=CARTESIAN_POINT('',(-0.0369999999999973,-0.03875000074707,0.0027));
#1399=CARTESIAN_POINT('',(-0.0369999999999973,2.4980018054066E-15,0.0027));
#1400=CARTESIAN_POINT('',(-0.036999999999995,0.038750000747075,0.0027));
#1401=CARTESIAN_POINT('',(-0.03000000074707,0.038750000747075,0.0027));
#1402=CARTESIAN_POINT('',(-0.03000000074707,0.04575,0.0027));
#1403=CARTESIAN_POINT('',(2.4980018054066E-15,0.04575,0.0027));
#1404=CARTESIAN_POINT('',(-0.026222413453606,0.04575,0.00270000000000006));
#1405=CARTESIAN_POINT('',(-0.026222413453606,0.06575,0.0027));
#1406=CARTESIAN_POINT('',(-0.026222413453606,0.04175,0.0027));
#1407=CARTESIAN_POINT('',(2.4980018054066E-15,0.04175,0.0027));
#1408=CARTESIAN_POINT('',(-0.03000000074707,0.04175,0.0027));
#1409=CARTESIAN_POINT('',(-0.03000000074707,0.038750000747075,0.0027));
#1410=CARTESIAN_POINT('',(-0.0329999999999974,0.038750000747075,0.0027));
#1411=CARTESIAN_POINT('',(-0.0329999999999974,2.4980018054066E-15,0.0027));
#1412=CARTESIAN_POINT('',(-0.0329999999999974,-0.03875000074707,0.0027));
#1413=CARTESIAN_POINT('',(-0.03000000074707,-0.03875000074707,0.0027));
#1414=CARTESIAN_POINT('',(-0.03000000074707,-0.041749999999995,0.0027));
#1415=CARTESIAN_POINT('',(2.50147125235856E-15,-0.0417499999999974,0.0027));
#1416=CARTESIAN_POINT('',(0.030000000747075,-0.0417499999999974,0.0027));
#1417=CARTESIAN_POINT('',(0.030000000747075,-0.03875000074707,0.0027));
#1418=CARTESIAN_POINT('',(0.033,-0.03875000074707,0.0027));
#1419=CARTESIAN_POINT('',(0.033,2.4980018054066E-15,0.0027));
#1420=CARTESIAN_POINT('',(0.033,0.038750000747075,0.0027));
#1421=CARTESIAN_POINT('',(0.030000000747075,0.038750000747075,0.0027));
#1422=CARTESIAN_POINT('',(-0.0335000003735337,-0.0422500003735325,0.0027));
#1423=CARTESIAN_POINT('',(-0.0348500003735337,-0.0422500003735325,0.0027));
#1424=CARTESIAN_POINT('',(0.0335000003735387,-0.0422500003735325,0.0027));
#1425=CARTESIAN_POINT('',(0.0321500003735387,-0.0422500003735325,0.0027));
#1426=CARTESIAN_POINT('',(2.4980018054066E-15,0.04175,0.0117));
#1427=CARTESIAN_POINT('',(-0.01628,0.04175,0.00404));
#1428=CARTESIAN_POINT('',(-0.01253,0.04175,0.00404));
#1429=CARTESIAN_POINT('',(0.030000000747075,0.04175,0.0117));
#1430=CARTESIAN_POINT('',(0.030000000747075,0.04175,0.0107));
#1431=CARTESIAN_POINT('',(2.4980018054066E-15,0.04175,0.0107));
#1432=CARTESIAN_POINT('',(-0.03000000074707,0.04175,0.0107));
#1433=CARTESIAN_POINT('',(-0.03000000074707,0.04175,0.0117));
#1434=CARTESIAN_POINT('',(-0.02272,0.04175,0.00404));
#1435=CARTESIAN_POINT('',(-0.02647,0.04175,0.00404));
#1436=CARTESIAN_POINT('',(-0.02647,0.04175,0.0117));
#1437=CARTESIAN_POINT('',(-0.02647,0.04175,0.00475));
#1438=CARTESIAN_POINT('',(-0.02272,0.04175,0.00475));
#1439=CARTESIAN_POINT('',(-0.02272,0.04175,0.0085));
#1440=CARTESIAN_POINT('',(2.4980018054066E-15,0.04175,0.0085));
#1441=CARTESIAN_POINT('',(-0.01628,0.04175,0.0085));
#1442=CARTESIAN_POINT('',(-0.01628,0.04175,0.00475));
#1443=CARTESIAN_POINT('',(-0.01253,0.04175,0.00475));
#1444=CARTESIAN_POINT('',(-0.01253,0.04175,0.0117));
#1445=CARTESIAN_POINT('',(0.033,2.4980018054066E-15,0.0117));
#1446=CARTESIAN_POINT('',(0.033,2.4980018054066E-15,0.0107));
#1447=CARTESIAN_POINT('',(0.033,0.038750000747075,0.0107));
#1448=CARTESIAN_POINT('',(0.033,-0.03875000074707,0.0107));
#1449=CARTESIAN_POINT('',(0.033,0.038750000747075,0.0117));
#1450=CARTESIAN_POINT('',(0.033,-0.03875000074707,0.0117));
#1451=CARTESIAN_POINT('',(2.50147125235856E-15,-0.0417499999999974,0.0117));
#1452=CARTESIAN_POINT('',(2.50147125235856E-15,-0.0417499999999974,0.0107));
#1453=CARTESIAN_POINT('',(0.030000000747075,-0.0417499999999974,0.0107));
#1454=CARTESIAN_POINT('',(-0.03000000074707,-0.041749999999995,0.0107));
#1455=CARTESIAN_POINT('',(0.030000000747075,-0.0417499999999974,0.0117));
#1456=CARTESIAN_POINT('',(-0.03000000074707,-0.041749999999995,0.0117));
#1457=CARTESIAN_POINT('',(-0.0329999999999974,2.4980018054066E-15,0.0117));
#1458=CARTESIAN_POINT('',(-0.0329999999999974,2.4980018054066E-15,0.0107));
#1459=CARTESIAN_POINT('',(-0.0329999999999974,-0.03875000074707,0.0107));
#1460=CARTESIAN_POINT('',(-0.0329999999999974,0.038750000747075,0.0107));
#1461=CARTESIAN_POINT('',(-0.0329999999999974,-0.03875000074707,0.0117));
#1462=CARTESIAN_POINT('',(-0.0329999999999974,0.038750000747075,0.0117));
#1463=CARTESIAN_POINT('',(-0.03000000074707,0.038750000747075,0.0117));
#1464=CARTESIAN_POINT('',(-0.03000000074707,0.038750000747075,0.0107));
#1465=CARTESIAN_POINT('',(0.030000000747075,0.038750000747075,0.0117));
#1466=CARTESIAN_POINT('',(0.030000000747075,0.038750000747075,0.0107));
#1467=CARTESIAN_POINT('',(0.030000000747075,-0.03875000074707,0.0117));
#1468=CARTESIAN_POINT('',(0.030000000747075,-0.03875000074707,0.0107));
#1469=CARTESIAN_POINT('',(-0.03000000074707,-0.03875000074707,0.0117));
#1470=CARTESIAN_POINT('',(-0.03000000074707,-0.03875000074707,0.0107));
#1471=CARTESIAN_POINT('',(2.4980018054066E-15,0.04575,0.0117));
#1472=CARTESIAN_POINT('',(-0.01628,0.04575,0.00404));
#1473=CARTESIAN_POINT('',(-0.01253,0.04575,0.00404));
#1474=CARTESIAN_POINT('',(-0.01253,0.04575,0.0117));
#1475=CARTESIAN_POINT('',(-0.01253,0.04575,0.00475));
#1476=CARTESIAN_POINT('',(-0.01628,0.04575,0.00475));
#1477=CARTESIAN_POINT('',(-0.01628,0.04575,0.0085));
#1478=CARTESIAN_POINT('',(2.4980018054066E-15,0.04575,0.0085));
#1479=CARTESIAN_POINT('',(-0.02272,0.04575,0.0085));
#1480=CARTESIAN_POINT('',(-0.02272,0.04575,0.00475));
#1481=CARTESIAN_POINT('',(-0.02647,0.04575,0.00475));
#1482=CARTESIAN_POINT('',(-0.02647,0.04575,0.0117));
#1483=CARTESIAN_POINT('',(-0.02647,0.04575,0.00404));
#1484=CARTESIAN_POINT('',(-0.02272,0.04575,0.00404));
#1485=CARTESIAN_POINT('',(-0.03000000074707,0.04575,0.0117));
#1486=CARTESIAN_POINT('',(-0.03000000074707,0.04575,0.0117));
#1487=CARTESIAN_POINT('',(2.4980018054066E-15,0.04575,0.0117));
#1488=CARTESIAN_POINT('',(0.030000000747075,0.04575,0.0117));
#1489=CARTESIAN_POINT('',(0.030000000747075,0.04575,0.0117));
#1490=CARTESIAN_POINT('',(-0.03000000074707,0.038750000747075,0.0117));
#1491=CARTESIAN_POINT('',(-0.036999999999995,0.038750000747075,0.0117));
#1492=CARTESIAN_POINT('',(-0.036999999999995,0.038750000747075,0.0117));
#1493=CARTESIAN_POINT('',(-0.03000000074707,0.038750000747075,0.0117));
#1494=CARTESIAN_POINT('',(-0.0369999999999973,2.4980018054066E-15,0.0117));
#1495=CARTESIAN_POINT('',(-0.0369999999999973,-0.03875000074707,0.0117));
#1496=CARTESIAN_POINT('',(-0.0369999999999973,-0.03875000074707,0.0117));
#1497=CARTESIAN_POINT('',(-0.0369999999999973,2.4980018054066E-15,0.0117));
#1498=CARTESIAN_POINT('',(-0.03000000074707,-0.03875000074707,0.0117));
#1499=CARTESIAN_POINT('',(-0.03000000074707,-0.045749999999995,0.0117));
#1500=CARTESIAN_POINT('',(-0.03000000074707,-0.045749999999995,0.0117));
#1501=CARTESIAN_POINT('',(-0.03000000074707,-0.03875000074707,0.0117));
#1502=CARTESIAN_POINT('',(2.50147125235856E-15,-0.0457499999999974,0.0117));
#1503=CARTESIAN_POINT('',(0.030000000747075,-0.0457499999999974,0.0117));
#1504=CARTESIAN_POINT('',(0.030000000747075,-0.0457499999999974,0.0117));
#1505=CARTESIAN_POINT('',(2.50147125235856E-15,-0.0457499999999974,0.0117));
#1506=CARTESIAN_POINT('',(0.030000000747075,-0.03875000074707,0.0117));
#1507=CARTESIAN_POINT('',(0.037,-0.03875000074707,0.0117));
#1508=CARTESIAN_POINT('',(0.037,-0.03875000074707,0.0117));
#1509=CARTESIAN_POINT('',(0.030000000747075,-0.03875000074707,0.0117));
#1510=CARTESIAN_POINT('',(0.037,2.4980018054066E-15,0.0117));
#1511=CARTESIAN_POINT('',(0.037,0.038750000747075,0.0117));
#1512=CARTESIAN_POINT('',(0.037,0.038750000747075,0.0117));
#1513=CARTESIAN_POINT('',(0.037,2.4980018054066E-15,0.0117));
#1514=CARTESIAN_POINT('',(0.030000000747075,0.038750000747075,0.0117));
#1515=CARTESIAN_POINT('',(0.030000000747075,0.038750000747075,0.0117));
#1516=CARTESIAN_POINT('',(1.32532873564628E-15,1.32532873564628E-15,0.0117));
#1517=CARTESIAN_POINT('',(0.0227262304708361,1.32532873564628E-15,0.0117));
#1518=CARTESIAN_POINT('',(0.0227262304708361,0.0336322335195541,0.0117));
#1519=CARTESIAN_POINT('',(0.0227262304708361,0.0260522335195542,0.0117));
#1520=CARTESIAN_POINT('',(1.32532873564628E-15,0.0260522335195542,0.0117));
#1521=CARTESIAN_POINT('',(-0.00165376952916384,0.0260522335195542,0.0117));
#1522=CARTESIAN_POINT('',(-0.00165376952916384,1.32532873564628E-15,0.0117));
#1523=CARTESIAN_POINT('',(-0.00165376952916384,0.0336322335195541,0.0117));
#1524=CARTESIAN_POINT('',(1.32532873564628E-15,0.0336322335195541,0.0117));
#1525=CARTESIAN_POINT('',(-0.0177075,0.005954223095394,0.0117));
#1526=CARTESIAN_POINT('',(-0.0173032053923794,0.0060759489806727,0.0117));
#1527=CARTESIAN_POINT('',(-0.016537835212951,0.0064610205697636,0.0117));
#1528=CARTESIAN_POINT('',(-0.0156430635914487,0.00738136644508779,0.0117));
#1529=CARTESIAN_POINT('',(-0.0150801836628494,0.00853319132102026,0.0117));
#1530=CARTESIAN_POINT('',(-0.0148886601446756,0.00980001412391762,0.0117));
#1531=CARTESIAN_POINT('',(-0.0150801757578009,0.0110667854885097,0.0117));
#1532=CARTESIAN_POINT('',(-0.0156430813411267,0.0122186382093758,0.0117));
#1533=CARTESIAN_POINT('',(-0.0165378253235728,0.0131389695536754,0.0117));
#1534=CARTESIAN_POINT('',(-0.0173032053923794,0.0135240510193273,0.0117));
#1535=CARTESIAN_POINT('',(-0.0177075,0.013645776904606,0.0117));
#1536=CARTESIAN_POINT('',(-0.0177075,0.005954223095394,0.0117));
#1537=CARTESIAN_POINT('',(-0.0177075,0.013645776904606,0.0117));
#1538=CARTESIAN_POINT('',(-0.0187525,0.0094250367518008,0.0117));
#1539=CARTESIAN_POINT('',(-0.0197975,0.005954223095394,0.0117));
#1540=CARTESIAN_POINT('',(-0.0197975,0.013645776904606,0.0117));
#1541=CARTESIAN_POINT('',(-0.0202017946076206,0.0135240510193273,0.0117));
#1542=CARTESIAN_POINT('',(-0.020967164787049,0.0131389794302364,0.0117));
#1543=CARTESIAN_POINT('',(-0.0218619364085513,0.0122186335549122,0.0117));
#1544=CARTESIAN_POINT('',(-0.0224248163371506,0.0110668086789797,0.0117));
#1545=CARTESIAN_POINT('',(-0.0226163398553244,0.00979998587608237,0.0117));
#1546=CARTESIAN_POINT('',(-0.0224248242421991,0.00853321451149031,0.0117));
#1547=CARTESIAN_POINT('',(-0.0218619186588734,0.00738136179062422,0.0117));
#1548=CARTESIAN_POINT('',(-0.0209671746764272,0.00646103044632459,0.0117));
#1549=CARTESIAN_POINT('',(-0.0202017946076206,0.0060759489806727,0.0117));
#1550=CARTESIAN_POINT('',(-0.0197975,0.005954223095394,0.0117));
#1551=CARTESIAN_POINT('',(-0.0197975,0.013645776904606,0.0117));
#1552=CARTESIAN_POINT('',(-0.018752500120568,0.010174963648648,0.0117));
#1553=CARTESIAN_POINT('',(-0.02815,-0.00984999999999929,0.0117));
#1554=CARTESIAN_POINT('',(-0.02815,-0.00119213348327142,0.0117));
#1555=CARTESIAN_POINT('',(-0.0281495289948332,-0.0380078727220571,0.0117));
#1556=CARTESIAN_POINT('',(-0.02815,-0.00119213348327142,0.0117));
#1557=CARTESIAN_POINT('',(-0.02815,-0.00106813738447275,0.0117));
#1558=CARTESIAN_POINT('',(-0.028097448462637,-0.00082363387322186,0.0117));
#1559=CARTESIAN_POINT('',(-0.0278808979775552,-0.000522389768391094,0.0117));
#1560=CARTESIAN_POINT('',(-0.0275759815868222,-0.000334321851576695,0.0117));
#1561=CARTESIAN_POINT('',(-0.027346834391551,-0.000292133483272721,0.0117));
#1562=CARTESIAN_POINT('',(-0.0272318113033001,-0.000292133483271972,0.0117));
#1563=CARTESIAN_POINT('',(-0.0272318113032939,-0.000292133483271972,0.0117));
#1564=CARTESIAN_POINT('',(-0.0186,-0.000292133483271972,0.0117));
#1565=CARTESIAN_POINT('',(-0.00996818869670595,-0.000292133483271972,0.0117));
#1566=CARTESIAN_POINT('',(-0.00996818869670595,0.00102637766623917,0.0117));
#1567=CARTESIAN_POINT('',(-0.00865,0.000997219283879319,0.0117));
#1568=CARTESIAN_POINT('',(-0.00865,0.00965254290030402,0.0117));
#1569=CARTESIAN_POINT('',(-0.00865,0.0183078665167287,0.0117));
#1570=CARTESIAN_POINT('',(-0.00865,0.0183078665167287,0.0117));
#1571=CARTESIAN_POINT('',(-0.00865,0.018431862615527,0.0117));
#1572=CARTESIAN_POINT('',(-0.00859744846263722,0.0186763661267779,0.0117));
#1573=CARTESIAN_POINT('',(-0.00838089797755518,0.0189776102316089,0.0117));
#1574=CARTESIAN_POINT('',(-0.00807598158682252,0.0191656781484233,0.0117));
#1575=CARTESIAN_POINT('',(-0.00784683439155084,0.0192078665167273,0.0117));
#1576=CARTESIAN_POINT('',(-0.00773181130330021,0.019207866516728,0.0117));
#1577=CARTESIAN_POINT('',(-0.00773181130330021,0.019207866516728,0.0117));
#1578=CARTESIAN_POINT('',(0.00090000000000005,0.019207866516728,0.0117));
#1579=CARTESIAN_POINT('',(0.029031811303294,0.019207866516728,0.0117));
#1580=CARTESIAN_POINT('',(0.029031811303294,0.019207866516728,0.0117));
#1581=CARTESIAN_POINT('',(0.0291468445250609,0.019207866516728,0.0117));
#1582=CARTESIAN_POINT('',(0.0293737238184639,0.0191666681658121,0.0117));
#1583=CARTESIAN_POINT('',(0.0296813925565575,0.0189770017315212,0.0117));
#1584=CARTESIAN_POINT('',(0.0298960404054777,0.0186793897684571,0.0117));
#1585=CARTESIAN_POINT('',(0.02995,0.0184318925905081,0.0117));
#1586=CARTESIAN_POINT('',(0.02995,0.0183078665167281,0.0117));
#1587=CARTESIAN_POINT('',(0.02995,0.0183078665167281,0.0117));
#1588=CARTESIAN_POINT('',(0.02995,0.00965000000000043,0.0117));
#1589=CARTESIAN_POINT('',(0.0299495435586357,-0.0380078725010758,0.0117));
#1590=CARTESIAN_POINT('',(0.0290763251616498,-0.0380193211639671,0.0117));
#1591=CARTESIAN_POINT('',(0.0290726952053691,-0.0388921420315614,0.0117));
#1592=CARTESIAN_POINT('',(0.0204,-0.038892133483272,0.0117));
#1593=CARTESIAN_POINT('',(-0.027272695176929,-0.0388921488118998,0.0117));
#1594=CARTESIAN_POINT('',(-0.0272763386816595,-0.038019376701466,0.0117));
#1595=CARTESIAN_POINT('',(-0.02815,-0.00984999999999929,0.0107));
#1596=CARTESIAN_POINT('',(-0.02815,-0.0380078665167275,0.0107));
#1597=CARTESIAN_POINT('',(-0.0281495289948332,-0.0380078727220571,0.0107));
#1598=CARTESIAN_POINT('',(-0.02815,-0.00984999999999929,0.0107));
#1599=CARTESIAN_POINT('',(-0.02815,-0.00119213348327142,0.0107));
#1600=CARTESIAN_POINT('',(-0.02815,-0.00119213348327142,0.0107));
#1601=CARTESIAN_POINT('',(-0.02815,-0.00119213348327142,0.0107));
#1602=CARTESIAN_POINT('',(-0.02815,-0.00119213348327142,0.0117));
#1603=CARTESIAN_POINT('',(-0.02815,-0.000944141285674092,0.0107));
#1604=CARTESIAN_POINT('',(-0.02815,-0.000944141285674092,0.0117));
#1605=CARTESIAN_POINT('',(-0.0279264119133258,-0.000464367548313862,0.0107));
#1606=CARTESIAN_POINT('',(-0.0279264119133258,-0.000464367548313862,0.0117));
#1607=CARTESIAN_POINT('',(-0.0274618574798019,-0.00029213348327347,0.0107));
#1608=CARTESIAN_POINT('',(-0.0274618574798019,-0.00029213348327347,0.0117));
#1609=CARTESIAN_POINT('',(-0.0272318113033001,-0.000292133483271972,0.0107));
#1610=CARTESIAN_POINT('',(-0.0272318113033001,-0.000292133483271972,0.0117));
#1611=CARTESIAN_POINT('',(-0.02815,-0.00119213348327142,0.0107));
#1612=CARTESIAN_POINT('',(-0.02815,-0.00106813738447275,0.0107));
#1613=CARTESIAN_POINT('',(-0.028097448462637,-0.00082363387322186,0.0107));
#1614=CARTESIAN_POINT('',(-0.0278808979775552,-0.000522389768391094,0.0107));
#1615=CARTESIAN_POINT('',(-0.0275759815868222,-0.000334321851576695,0.0107));
#1616=CARTESIAN_POINT('',(-0.027346834391551,-0.000292133483272721,0.0107));
#1617=CARTESIAN_POINT('',(-0.0272318113033001,-0.000292133483271972,0.0107));
#1618=CARTESIAN_POINT('',(-0.0272318113032939,-0.000292133483271972,0.0107));
#1619=CARTESIAN_POINT('',(-0.0272318113032939,-0.000292133483271972,0.0107));
#1620=CARTESIAN_POINT('',(-0.0186,-0.000292133483271972,0.0107));
#1621=CARTESIAN_POINT('',(-0.0186,-0.000292133483271972,0.0107));
#1622=CARTESIAN_POINT('',(-0.00996818869670595,-0.000292133483271972,0.0107));
#1623=CARTESIAN_POINT('',(-0.00996818869670595,-0.000292133483271972,0.0107));
#1624=CARTESIAN_POINT('',(-0.00996818869670595,0.00102637766623917,0.0107));
#1625=CARTESIAN_POINT('',(-0.00996818869670595,0.00102637766623917,0.0107));
#1626=CARTESIAN_POINT('',(-0.00865,0.000997219283879319,0.0107));
#1627=CARTESIAN_POINT('',(-0.00865,0.000997219283879319,0.0107));
#1628=CARTESIAN_POINT('',(-0.00865,0.00965254290030402,0.0107));
#1629=CARTESIAN_POINT('',(-0.00865,0.00965254290030402,0.0107));
#1630=CARTESIAN_POINT('',(-0.00865,0.0183078665167287,0.0107));
#1631=CARTESIAN_POINT('',(-0.00865,0.0183078665167287,0.0107));
#1632=CARTESIAN_POINT('',(-0.00865,0.0183078665167287,0.0107));
#1633=CARTESIAN_POINT('',(-0.00865,0.0183078665167287,0.0117));
#1634=CARTESIAN_POINT('',(-0.00865,0.0185558587143254,0.0107));
#1635=CARTESIAN_POINT('',(-0.00865,0.0185558587143254,0.0117));
#1636=CARTESIAN_POINT('',(-0.00842641191332609,0.0190356324516863,0.0107));
#1637=CARTESIAN_POINT('',(-0.00842641191332609,0.0190356324516863,0.0117));
#1638=CARTESIAN_POINT('',(-0.00796185747980147,0.0192078665167265,0.0107));
#1639=CARTESIAN_POINT('',(-0.00796185747980147,0.0192078665167265,0.0117));
#1640=CARTESIAN_POINT('',(-0.00773181130330021,0.0192078665167281,0.0107));
#1641=CARTESIAN_POINT('',(-0.00773181130330021,0.0192078665167281,0.0117));
#1642=CARTESIAN_POINT('',(-0.00865,0.0183078665167287,0.0107));
#1643=CARTESIAN_POINT('',(-0.00865,0.018431862615527,0.0107));
#1644=CARTESIAN_POINT('',(-0.00859744846263722,0.0186763661267779,0.0107));
#1645=CARTESIAN_POINT('',(-0.00838089797755518,0.0189776102316089,0.0107));
#1646=CARTESIAN_POINT('',(-0.00807598158682252,0.0191656781484233,0.0107));
#1647=CARTESIAN_POINT('',(-0.00784683439155084,0.0192078665167273,0.0107));
#1648=CARTESIAN_POINT('',(-0.00773181130330021,0.019207866516728,0.0107));
#1649=CARTESIAN_POINT('',(-0.00773181130330021,0.019207866516728,0.0107));
#1650=CARTESIAN_POINT('',(-0.00773181130330021,0.019207866516728,0.0107));
#1651=CARTESIAN_POINT('',(0.00090000000000005,0.019207866516728,0.0107));
#1652=CARTESIAN_POINT('',(0.00090000000000005,0.019207866516728,0.0107));
#1653=CARTESIAN_POINT('',(0.029031811303294,0.019207866516728,0.0107));
#1654=CARTESIAN_POINT('',(0.029031811303294,0.019207866516728,0.0107));
#1655=CARTESIAN_POINT('',(0.029031811303294,0.019207866516728,0.0107));
#1656=CARTESIAN_POINT('',(0.029031811303294,0.019207866516728,0.0117));
#1657=CARTESIAN_POINT('',(0.0292618777468278,0.019207866516728,0.0107));
#1658=CARTESIAN_POINT('',(0.0292618777468278,0.019207866516728,0.0117));
#1659=CARTESIAN_POINT('',(0.0297258392766432,0.0190361290296098,0.0107));
#1660=CARTESIAN_POINT('',(0.0297258392766432,0.0190361290296098,0.0117));
#1661=CARTESIAN_POINT('',(0.02995,0.0185559186642881,0.0107));
#1662=CARTESIAN_POINT('',(0.02995,0.0185559186642881,0.0117));
#1663=CARTESIAN_POINT('',(0.02995,0.0183078665167281,0.0107));
#1664=CARTESIAN_POINT('',(0.02995,0.0183078665167281,0.0117));
#1665=CARTESIAN_POINT('',(0.029031811303294,0.019207866516728,0.0107));
#1666=CARTESIAN_POINT('',(0.0291468445250609,0.019207866516728,0.0107));
#1667=CARTESIAN_POINT('',(0.0293737238184639,0.0191666681658121,0.0107));
#1668=CARTESIAN_POINT('',(0.0296813925565575,0.0189770017315212,0.0107));
#1669=CARTESIAN_POINT('',(0.0298960404054777,0.0186793897684571,0.0107));
#1670=CARTESIAN_POINT('',(0.02995,0.0184318925905081,0.0107));
#1671=CARTESIAN_POINT('',(0.02995,0.0183078665167281,0.0107));
#1672=CARTESIAN_POINT('',(0.02995,0.0183078665167281,0.0107));
#1673=CARTESIAN_POINT('',(0.02995,0.0183078665167281,0.0107));
#1674=CARTESIAN_POINT('',(0.02995,0.00965000000000043,0.0107));
#1675=CARTESIAN_POINT('',(0.02995,0.00965000000000043,0.0107));
#1676=CARTESIAN_POINT('',(0.0299495435586357,-0.0380078725010758,0.01070000025));
#1677=CARTESIAN_POINT('',(0.02995,-0.0380078665167271,0.0107));
#1678=CARTESIAN_POINT('',(0.0290763251616498,-0.0380193211639671,0.0107));
#1679=CARTESIAN_POINT('',(0.0290763251616498,-0.0380193211639671,0.0107));
#1680=CARTESIAN_POINT('',(0.0290726952053691,-0.0388921420315614,0.0107));
#1681=CARTESIAN_POINT('',(0.0290726952409204,-0.038892133483272,0.0107));
#1682=CARTESIAN_POINT('',(0.0204,-0.038892133483272,0.0107));
#1683=CARTESIAN_POINT('',(0.0204,-0.038892133483272,0.0107));
#1684=CARTESIAN_POINT('',(-0.027272695176929,-0.0388921488118998,0.01070000025));
#1685=CARTESIAN_POINT('',(-0.0272726952409204,-0.038892133483272,0.0107));
#1686=CARTESIAN_POINT('',(-0.0177075,0.005954223095394,0.0107));
#1687=CARTESIAN_POINT('',(-0.0177075,0.005954223095394,0.0117));
#1688=CARTESIAN_POINT('',(-0.0168989107847588,0.0061976748659514,0.0107));
#1689=CARTESIAN_POINT('',(-0.0168989107847588,0.0061976748659514,0.0117));
#1690=CARTESIAN_POINT('',(-0.0154710536216417,0.00726375841545518,0.0107));
#1691=CARTESIAN_POINT('',(-0.0154710536216417,0.00726375841545518,0.0117));
#1692=CARTESIAN_POINT('',(-0.0146932193887112,0.00980001091811482,0.0107));
#1693=CARTESIAN_POINT('',(-0.0146932193887112,0.00980001091811482,0.0117));
#1694=CARTESIAN_POINT('',(-0.015471068822866,0.0123362312172859,0.0107));
#1695=CARTESIAN_POINT('',(-0.015471068822866,0.0123362312172859,0.0117));
#1696=CARTESIAN_POINT('',(-0.0168989107847588,0.0134023251340486,0.0107));
#1697=CARTESIAN_POINT('',(-0.0168989107847588,0.0134023251340486,0.0117));
#1698=CARTESIAN_POINT('',(-0.0177075,0.013645776904606,0.0107));
#1699=CARTESIAN_POINT('',(-0.0177075,0.013645776904606,0.0117));
#1700=CARTESIAN_POINT('',(-0.0177075,0.013645776904606,0.0107));
#1701=CARTESIAN_POINT('',(-0.0177075,0.013645776904606,0.0107));
#1702=CARTESIAN_POINT('',(-0.0177075,0.005954223095394,0.0107));
#1703=CARTESIAN_POINT('',(-0.0173032053923794,0.0060759489806727,0.0107));
#1704=CARTESIAN_POINT('',(-0.016537835212951,0.0064610205697636,0.0107));
#1705=CARTESIAN_POINT('',(-0.0156430635914487,0.00738136644508779,0.0107));
#1706=CARTESIAN_POINT('',(-0.0150801836628494,0.00853319132102026,0.0107));
#1707=CARTESIAN_POINT('',(-0.0148886601446756,0.00980001412391762,0.0107));
#1708=CARTESIAN_POINT('',(-0.0150801757578009,0.0110667854885097,0.0107));
#1709=CARTESIAN_POINT('',(-0.0156430813411267,0.0122186382093758,0.0107));
#1710=CARTESIAN_POINT('',(-0.0165378253235728,0.0131389695536754,0.0107));
#1711=CARTESIAN_POINT('',(-0.0173032053923794,0.0135240510193273,0.0107));
#1712=CARTESIAN_POINT('',(-0.0177075,0.013645776904606,0.0107));
#1713=CARTESIAN_POINT('',(-0.0177075,0.005954223095394,0.0107));
#1714=CARTESIAN_POINT('',(-0.0177075,0.005954223095394,0.0107));
#1715=CARTESIAN_POINT('',(-0.0187525,0.0094250367518008,0.0107));
#1716=CARTESIAN_POINT('',(-0.0187525,0.0094250367518008,0.0107));
#1717=CARTESIAN_POINT('',(-0.0197975,0.005954223095394,0.0107));
#1718=CARTESIAN_POINT('',(-0.0197975,0.005954223095394,0.0107));
#1719=CARTESIAN_POINT('',(-0.0197975,0.013645776904606,0.0107));
#1720=CARTESIAN_POINT('',(-0.0197975,0.013645776904606,0.0117));
#1721=CARTESIAN_POINT('',(-0.0206060892152412,0.0134023251340486,0.0107));
#1722=CARTESIAN_POINT('',(-0.0206060892152412,0.0134023251340486,0.0117));
#1723=CARTESIAN_POINT('',(-0.0220339463783583,0.0123362415845448,0.0107));
#1724=CARTESIAN_POINT('',(-0.0220339463783583,0.0123362415845448,0.0117));
#1725=CARTESIAN_POINT('',(-0.0228117806112888,0.00979998908188513,0.0107));
#1726=CARTESIAN_POINT('',(-0.0228117806112888,0.00979998908188513,0.0117));
#1727=CARTESIAN_POINT('',(-0.0220339311771341,0.00726376878271416,0.0107));
#1728=CARTESIAN_POINT('',(-0.0220339311771341,0.00726376878271416,0.0117));
#1729=CARTESIAN_POINT('',(-0.0206060892152412,0.0061976748659514,0.0107));
#1730=CARTESIAN_POINT('',(-0.0206060892152412,0.0061976748659514,0.0117));
#1731=CARTESIAN_POINT('',(-0.0197975,0.005954223095394,0.0107));
#1732=CARTESIAN_POINT('',(-0.0197975,0.005954223095394,0.0117));
#1733=CARTESIAN_POINT('',(-0.0197975,0.013645776904606,0.0107));
#1734=CARTESIAN_POINT('',(-0.0202017946076206,0.0135240510193273,0.0107));
#1735=CARTESIAN_POINT('',(-0.020967164787049,0.0131389794302364,0.0107));
#1736=CARTESIAN_POINT('',(-0.0218619364085513,0.0122186335549122,0.0107));
#1737=CARTESIAN_POINT('',(-0.0224248163371506,0.0110668086789797,0.0107));
#1738=CARTESIAN_POINT('',(-0.0226163398553244,0.00979998587608237,0.0107));
#1739=CARTESIAN_POINT('',(-0.0224248242421991,0.00853321451149031,0.0107));
#1740=CARTESIAN_POINT('',(-0.0218619186588734,0.00738136179062422,0.0107));
#1741=CARTESIAN_POINT('',(-0.0209671746764272,0.00646103044632459,0.0107));
#1742=CARTESIAN_POINT('',(-0.0202017946076206,0.0060759489806727,0.0107));
#1743=CARTESIAN_POINT('',(-0.0197975,0.005954223095394,0.0107));
#1744=CARTESIAN_POINT('',(-0.0197975,0.013645776904606,0.0107));
#1745=CARTESIAN_POINT('',(-0.0197975,0.013645776904606,0.0107));
#1746=CARTESIAN_POINT('',(-0.018752500120568,0.010174963648648,0.0107));
#1747=CARTESIAN_POINT('',(-0.018752500120568,0.010174963648648,0.0107));
#1748=CARTESIAN_POINT('',(-0.0272763386816595,-0.038019376701466,0.0107));
#1749=CARTESIAN_POINT('',(-0.0272763386816595,-0.038019376701466,0.0107));
#1750=CARTESIAN_POINT('',(1.32532873564628E-15,1.32532873564628E-15,0.0107));
#1751=CARTESIAN_POINT('',(0.0217262304708362,0.0298422335195541,0.0107));
#1752=CARTESIAN_POINT('',(0.0217262304708362,0.0270522335195542,0.0107));
#1753=CARTESIAN_POINT('',(0.0217262304708362,0.0326322335195542,0.0107));
#1754=CARTESIAN_POINT('',(0.0105362304708362,0.0326322335195542,0.0107));
#1755=CARTESIAN_POINT('',(-0.000653769529163838,0.0326322335195542,0.0107));
#1756=CARTESIAN_POINT('',(-0.000653769529163838,0.0298422335195541,0.0107));
#1757=CARTESIAN_POINT('',(-0.000653769529163836,0.0270522335195542,0.0107));
#1758=CARTESIAN_POINT('',(0.0105362304708362,0.0270522335195542,0.0107));
#1759=CARTESIAN_POINT('',(-0.0195,0.06575,0.0084999999999999));
#1760=CARTESIAN_POINT('',(-0.02272,0.06575,0.0084999999999999));
#1761=CARTESIAN_POINT('',(-0.01628,0.06575,0.0084999999999999));
#1762=CARTESIAN_POINT('',(-0.01628,0.06575,0.0047499999999999));
#1763=CARTESIAN_POINT('',(-0.01253,0.06575,0.0047499999999999));
#1764=CARTESIAN_POINT('',(-0.01253,0.06575,0.0043949999999999));
#1765=CARTESIAN_POINT('',(-0.01253,0.06575,0.0040399999999999));
#1766=CARTESIAN_POINT('',(-0.02647,0.06575,0.0043949999999999));
#1767=CARTESIAN_POINT('',(-0.02647,0.06575,0.0040399999999999));
#1768=CARTESIAN_POINT('',(-0.02647,0.06575,0.0047499999999999));
#1769=CARTESIAN_POINT('',(-0.02272,0.06575,0.0047499999999999));
#1770=CARTESIAN_POINT('',(-0.01628,0.06575,0.0040399999999999));
#1771=CARTESIAN_POINT('',(-0.02272,0.06575,0.0040399999999999));
#1772=CARTESIAN_POINT('',(0.0105362304708362,0.0326322335195542,0.0107));
#1773=CARTESIAN_POINT('',(0.0179962304708361,0.0289022335195541,0.00697));
#1774=CARTESIAN_POINT('',(0.000276230470836163,0.0317022335195542,0.00977));
#1775=CARTESIAN_POINT('',(-0.000653769529163838,0.0298422335195541,0.0107));
#1776=CARTESIAN_POINT('',(0.00307623047083616,0.0307822335195541,0.00697));
#1777=CARTESIAN_POINT('',(0.0217262304708362,0.0298422335195541,0.0107));
#1778=CARTESIAN_POINT('',(0.0179962304708361,0.0307822335195541,0.00697));
#1779=CARTESIAN_POINT('',(0.0105362304708362,0.0270522335195542,0.0107));
#1780=CARTESIAN_POINT('',(0.0335000003735387,0.0422500003735375,0.0077));
#1781=CARTESIAN_POINT('',(0.0335000003735387,0.0422500003735375,0.0077));
#1782=CARTESIAN_POINT('',(0.0321500003735387,0.0422500003735375,0.0077));
#1783=CARTESIAN_POINT('',(1.32532873564628E-15,1.32532873564628E-15,0.0077));
#1784=CARTESIAN_POINT('',(-0.0335000003735337,0.0422500003735375,0.0077));
#1785=CARTESIAN_POINT('',(-0.0335000003735337,0.0422500003735375,0.0077));
#1786=CARTESIAN_POINT('',(-0.0348500003735337,0.0422500003735375,0.0077));
#1787=CARTESIAN_POINT('',(1.32532873564628E-15,1.32532873564628E-15,0.0077));
#1788=CARTESIAN_POINT('',(-0.0335000003735337,-0.0422500003735325,0.0077));
#1789=CARTESIAN_POINT('',(-0.0335000003735337,-0.0422500003735325,0.0077));
#1790=CARTESIAN_POINT('',(-0.0348500003735337,-0.0422500003735325,0.0077));
#1791=CARTESIAN_POINT('',(1.32532873564628E-15,1.32532873564628E-15,0.0077));
#1792=CARTESIAN_POINT('',(0.0335000003735387,-0.0422500003735325,0.0077));
#1793=CARTESIAN_POINT('',(0.0335000003735387,-0.0422500003735325,0.0077));
#1794=CARTESIAN_POINT('',(0.0321500003735387,-0.0422500003735325,0.0077));
#1795=CARTESIAN_POINT('',(1.32532873564628E-15,1.32532873564628E-15,0.0077));
#1796=MECHANICAL_DESIGN_GEOMETRIC_PRESENTATION_REPRESENTATION('',(#1001),
#1797);
#1797=(
GEOMETRIC_REPRESENTATION_CONTEXT(3)
GLOBAL_UNCERTAINTY_ASSIGNED_CONTEXT((#1798))
GLOBAL_UNIT_ASSIGNED_CONTEXT((#1801,#1800,#1799))
REPRESENTATION_CONTEXT('Top','TOP_LEVEL_ASSEMBLY_PART')
);
#1798=UNCERTAINTY_MEASURE_WITH_UNIT(LENGTH_MEASURE(2.E-5),#1801,
'DISTANCE_ACCURACY_VALUE','Maximum Tolerance applied to model');
#1799=(
NAMED_UNIT(*)
SI_UNIT($,.STERADIAN.)
SOLID_ANGLE_UNIT()
);
#1800=(
NAMED_UNIT(*)
PLANE_ANGLE_UNIT()
SI_UNIT($,.RADIAN.)
);
#1801=(
LENGTH_UNIT()
NAMED_UNIT(*)
SI_UNIT($,.METRE.)
);
#1802=PRODUCT_DEFINITION_SHAPE('','',#1803);
#1803=PRODUCT_DEFINITION('','',#1805,#1804);
#1804=PRODUCT_DEFINITION_CONTEXT('',#1811,'design');
#1805=PRODUCT_DEFINITION_FORMATION_WITH_SPECIFIED_SOURCE('','',#1807,
 .NOT_KNOWN.);
#1806=PRODUCT_RELATED_PRODUCT_CATEGORY('','',(#1807));
#1807=PRODUCT('Top','Top','Top',(#1809));
#1808=PRODUCT_CATEGORY('','');
#1809=PRODUCT_CONTEXT('',#1811,'mechanical');
#1810=APPLICATION_PROTOCOL_DEFINITION('international standard',
'ap242_managed_model_based_3d_engineering',2020,#1811);
#1811=APPLICATION_CONTEXT('managed model based 3d engineering');
ENDSEC;
END-ISO-10303-21;
